<?xml version="1.0" encoding="utf-8"?>
<!-- Generator: Adobe Illustrator 25.2.3, SVG Export Plug-In . SVG Version: 6.00 Build 0)  -->
<svg version="1.1" id="Layer_1" xmlns="http://www.w3.org/2000/svg" xmlns:xlink="http://www.w3.org/1999/xlink" x="0px" y="0px"
	 viewBox="0 0 1200 101.9" style="enable-background:new 0 0 1200 101.9;" xml:space="preserve">
<style type="text/css">
	.st0{fill:url(#SVGID_1_);}
	.st1{fill:url(#SVGID_2_);}
	.st2{opacity:0.26;fill:url(#SVGID_3_);}
</style>
<linearGradient id="SVGID_1_" gradientUnits="userSpaceOnUse" x1="1200" y1="50.945" x2="-9.094947e-13" y2="50.945">
	<stop  offset="0" style="stop-color:#33A9DF"/>
	<stop  offset="1" style="stop-color:#3B91CE"/>
</linearGradient>
<path class="st0" d="M1200,0v101.9H0V0c0.1,0,0.3,0,0.4,0.1c11.8,1.7,23.8,3.3,36,4.9c7.4,1,14.9,1.9,22.5,2.9
	c10.2,1.3,20.5,2.5,31,3.8c4.7,0.5,9.4,1.1,14.1,1.6c0.7,0.1,1.4,0.2,2,0.2c10.2,1.2,20.6,2.3,31,3.4c5.4,0.6,10.8,1.2,16.2,1.7
	c4.9,0.5,9.8,1,14.7,1.5c1,0.1,2.1,0.2,3.1,0.3c5.1,0.5,10.1,1,15.3,1.5c11.1,1.1,22.4,2.1,33.8,3.1c4.9,0.4,9.8,0.8,14.8,1.3
	c23.8,2,48.2,3.9,73.1,5.5c8.5,0.6,17,1.1,25.5,1.6c13.4,0.8,26.9,1.6,40.6,2.3c7.8,0.4,15.5,0.8,23.4,1.2
	c8.8,0.4,17.6,0.8,26.5,1.1c3.6,0.2,7.1,0.3,10.7,0.4c5.6,0.2,11.2,0.4,16.8,0.6c4.6,0.1,9.2,0.3,13.8,0.4c1.6,0,3.2,0.1,4.8,0.1
	c5.2,0.2,10.4,0.3,15.7,0.4c23.5,0.6,47.4,1,71.7,1.3c7.9,0.1,15.8,0.1,23.8,0.2c6.2,0,12.4,0,18.7,0s12.5,0,18.7,0
	c8,0,15.9-0.1,23.8-0.2c24.3-0.2,48.1-0.7,71.7-1.3c5.2-0.1,10.5-0.3,15.7-0.4c1.6,0,3.2-0.1,4.8-0.1c4.6-0.1,9.2-0.3,13.8-0.4
	c5.6-0.2,11.2-0.4,16.8-0.6c3.6-0.1,7.2-0.3,10.7-0.4c8.9-0.4,17.7-0.7,26.5-1.1c7.8-0.4,15.6-0.8,23.4-1.2
	c13.7-0.7,27.2-1.5,40.6-2.3c8.6-0.5,17.1-1.1,25.5-1.6c24.9-1.7,49.3-3.5,73.1-5.5c5-0.4,9.9-0.8,14.8-1.3c11.4-1,22.7-2,33.8-3.1
	c5.1-0.5,10.2-1,15.3-1.5c1-0.1,2.1-0.2,3.1-0.3c4.9-0.5,9.8-1,14.7-1.5c5.4-0.6,10.9-1.1,16.2-1.7c10.5-1.1,20.8-2.3,31-3.4
	c0.7-0.1,1.3-0.1,2-0.2c4.7-0.5,9.4-1.1,14.1-1.6c10.5-1.2,20.8-2.5,31-3.8c7.6-1,15.1-1.9,22.5-2.9C1175.9,3.3,1188.1,1.7,1200,0z"
	/>
<g>
	<linearGradient id="SVGID_2_" gradientUnits="userSpaceOnUse" x1="1200" y1="50.945" x2="-9.094947e-13" y2="50.945">
		<stop  offset="0" style="stop-color:#3B91CE"/>
		<stop  offset="1" style="stop-color:#2F7ECA;stop-opacity:0.26"/>
	</linearGradient>
	<path class="st1" d="M1200,0v101.9H0V0c0.1,0,0.3,0,0.4,0.1c11.8,1.7,23.8,3.3,36,4.9c7.4,1,14.9,1.9,22.5,2.9
		c10.2,1.3,20.5,2.5,31,3.8c4.7,0.5,9.4,1.1,14.1,1.6c0.7,0.1,1.4,0.2,2,0.2c10.2,1.2,20.6,2.3,31,3.4c5.4,0.6,10.8,1.2,16.2,1.7
		c4.9,0.5,9.8,1,14.7,1.5c1,0.1,2.1,0.2,3.1,0.3c5.1,0.5,10.1,1,15.3,1.5c11.1,1.1,22.4,2.1,33.8,3.1c4.9,0.4,9.8,0.8,14.8,1.3
		c23.8,2,48.2,3.9,73.1,5.5c8.5,0.6,17,1.1,25.5,1.6c13.4,0.8,26.9,1.6,40.6,2.3c7.8,0.4,15.5,0.8,23.4,1.2
		c8.8,0.4,17.6,0.8,26.5,1.1c3.6,0.2,7.1,0.3,10.7,0.4c5.6,0.2,11.2,0.4,16.8,0.6c4.6,0.1,9.2,0.3,13.8,0.4c1.6,0,3.2,0.1,4.8,0.1
		c5.2,0.2,10.4,0.3,15.7,0.4c23.5,0.6,47.4,1,71.7,1.3c7.9,0.1,15.8,0.1,23.8,0.2c6.2,0,12.4,0,18.7,0s12.5,0,18.7,0
		c8,0,15.9-0.1,23.8-0.2c24.3-0.2,48.1-0.7,71.7-1.3c5.2-0.1,10.5-0.3,15.7-0.4c1.6,0,3.2-0.1,4.8-0.1c4.6-0.1,9.2-0.3,13.8-0.4
		c5.6-0.2,11.2-0.4,16.8-0.6c3.6-0.1,7.2-0.3,10.7-0.4c8.9-0.4,17.7-0.7,26.5-1.1c7.8-0.4,15.6-0.8,23.4-1.2
		c13.7-0.7,27.2-1.5,40.6-2.3c8.6-0.5,17.1-1.1,25.5-1.6c24.9-1.7,49.3-3.5,73.1-5.5c5-0.4,9.9-0.8,14.8-1.3c11.4-1,22.7-2,33.8-3.1
		c5.1-0.5,10.2-1,15.3-1.5c1-0.1,2.1-0.2,3.1-0.3c4.9-0.5,9.8-1,14.7-1.5c5.4-0.6,10.9-1.1,16.2-1.7c10.5-1.1,20.8-2.3,31-3.4
		c0.7-0.1,1.3-0.1,2-0.2c4.7-0.5,9.4-1.1,14.1-1.6c10.5-1.2,20.8-2.5,31-3.8c7.6-1,15.1-1.9,22.5-2.9C1175.9,3.3,1188.1,1.7,1200,0z
		"/>
	<linearGradient id="SVGID_3_" gradientUnits="userSpaceOnUse" x1="1200" y1="67.025" x2="-9.094947e-13" y2="67.025">
		<stop  offset="0" style="stop-color:#4475B9;stop-opacity:0"/>
		<stop  offset="0" style="stop-color:#35578D;stop-opacity:0.6526"/>
		<stop  offset="0" style="stop-color:#2F4B7B"/>
		<stop  offset="0.9944" style="stop-color:#152348;stop-opacity:0"/>
	</linearGradient>
	<path class="st2" d="M1200,32.2v69.7H0V32.2c0.1,0,0.3,0,0.4,0.1c11.8,1.7,23.8,3.3,36,4.9c7.4,1,14.9,1.9,22.5,2.9
		c10.2,1.3,20.5,2.6,31,3.8c4.7,0.5,9.4,1.1,14.1,1.6c0.7,0.1,1.4,0.2,2,0.2c10.2,1.2,20.6,2.3,31,3.4c5.4,0.6,10.8,1.1,16.2,1.7
		c4.9,0.5,9.8,1,14.7,1.5c1,0.1,2.1,0.2,3.1,0.3c5.1,0.5,10.1,1,15.3,1.5c11.1,1.1,22.4,2.1,33.8,3.1c4.9,0.4,9.8,0.9,14.8,1.3
		c23.8,2,48.2,3.8,73.1,5.5c8.5,0.6,17,1.1,25.5,1.6c13.4,0.8,26.9,1.6,40.6,2.3c7.8,0.4,15.5,0.8,23.4,1.1
		c8.8,0.4,17.6,0.8,26.5,1.2c3.6,0.1,7.1,0.3,10.7,0.4c5.6,0.2,11.2,0.4,16.8,0.6c4.6,0.2,9.2,0.3,13.8,0.4c1.6,0,3.2,0.1,4.8,0.2
		c5.2,0.1,10.4,0.3,15.7,0.4c23.5,0.6,47.4,1,71.7,1.3c7.9,0.1,15.8,0.1,23.8,0.2c6.2,0,12.4,0,18.7,0s12.5,0,18.7,0
		c8,0,15.9-0.1,23.8-0.2c24.3-0.2,48.1-0.7,71.7-1.3c5.2-0.1,10.5-0.3,15.7-0.4c1.6,0,3.2-0.1,4.8-0.2c4.6-0.1,9.2-0.3,13.8-0.4
		c5.6-0.2,11.2-0.4,16.8-0.6c3.6-0.1,7.2-0.3,10.7-0.4c8.9-0.4,17.7-0.7,26.5-1.2c7.8-0.4,15.6-0.8,23.4-1.1
		c13.7-0.7,27.2-1.5,40.6-2.3c8.6-0.5,17.1-1.1,25.5-1.6c24.9-1.7,49.3-3.5,73.1-5.5c5-0.4,9.9-0.8,14.8-1.3c11.4-1,22.7-2,33.8-3.1
		c5.1-0.5,10.2-1,15.3-1.5c1-0.1,2.1-0.2,3.1-0.3c4.9-0.5,9.8-1,14.7-1.5c5.4-0.6,10.9-1.1,16.2-1.7c10.5-1.1,20.8-2.3,31-3.4
		c0.7-0.1,1.3-0.2,2-0.2c4.7-0.5,9.4-1.1,14.1-1.6c10.5-1.2,20.8-2.5,31-3.8c7.6-0.9,15.1-1.9,22.5-2.9
		C1175.9,35.5,1188.1,33.8,1200,32.2z"/>
</g>
</svg>
