<?xml version="1.0" encoding="utf-8"?>
<!-- Generator: Adobe Illustrator 25.2.3, SVG Export Plug-In . SVG Version: 6.00 Build 0)  -->
<svg version="1.1" id="Layer_1" xmlns="http://www.w3.org/2000/svg" xmlns:xlink="http://www.w3.org/1999/xlink" x="0px" y="0px"
	 viewBox="0 0 50 50" style="enable-background:new 0 0 50 50;" xml:space="preserve">
<style type="text/css">
	.st0{fill:#FFFFFF;}
	.st1{fill:url(#SVGID_1_);}
	.st2{fill:url(#SVGID_2_);}
	.st3{fill:url(#SVGID_3_);}
	.st4{fill:none;stroke:url(#SVGID_4_);stroke-miterlimit:10;}
	.st5{fill:url(#SVGID_5_);}
	.st6{fill:url(#SVGID_6_);}
	.st7{fill:url(#SVGID_7_);}
	.st8{fill:url(#SVGID_8_);}
</style>
<g>
	<path class="st0" d="M49.3,24.6c0,2-0.2,3.9-0.7,5.7C46,40.9,36.4,48.8,25,48.8c-11.5,0-21.1-7.9-23.6-18.6
		c-0.4-1.8-0.7-3.7-0.7-5.6C0.7,11.2,11.6,0.3,25,0.3S49.3,11.2,49.3,24.6z"/>
	<g>
		
			<linearGradient id="SVGID_1_" gradientUnits="userSpaceOnUse" x1="37.0014" y1="15.2986" x2="15.1574" y2="37.1427" gradientTransform="matrix(1 0 0 -1 0 52)">
			<stop  offset="0" style="stop-color:#4475B9"/>
			<stop  offset="1" style="stop-color:#2AC4F3"/>
		</linearGradient>
		<path class="st1" d="M33.1,28.3c-0.2,0-2.2,0.1-3.4,1.3c-0.7,0.7-1.1,1.7-1.1,3.2v11.6c8.1-1.5,14.6-7.9,16.1-16.1
			C44.7,28.3,33.1,28.3,33.1,28.3z"/>
		
			<linearGradient id="SVGID_2_" gradientUnits="userSpaceOnUse" x1="37.3264" y1="15.6236" x2="15.4823" y2="37.4677" gradientTransform="matrix(1 0 0 -1 0 52)">
			<stop  offset="0" style="stop-color:#4475B9"/>
			<stop  offset="1" style="stop-color:#2AC4F3"/>
		</linearGradient>
		<path class="st2" d="M17.7,20.9c0.2,0,2.2-0.1,3.4-1.3c0.7-0.7,1.1-1.7,1.1-3.2V4.6c-8.7,1.3-15.5,7.9-17,16.3H17.7z"/>
		
			<linearGradient id="SVGID_3_" gradientUnits="userSpaceOnUse" x1="37.0655" y1="15.3627" x2="15.2215" y2="37.2068" gradientTransform="matrix(1 0 0 -1 0 52)">
			<stop  offset="0" style="stop-color:#4475B9"/>
			<stop  offset="1" style="stop-color:#2AC4F3"/>
		</linearGradient>
		<path class="st3" d="M23.5,32.7c0-2,0.5-4.8,2.6-6.9c2.7-2.7,6.5-2.8,7.1-2.7h11.9c-0.7-9.6-8.2-17.4-17.7-18.5v12
			c0,2-0.5,4.8-2.6,6.9c-2.7,2.6-6.3,2.7-7,2.7c0,0,0,0-0.1,0H4.9c0.8,9.8,8.7,17.7,18.5,18.4V32.7H23.5z"/>
	</g>
</g>
<radialGradient id="SVGID_4_" cx="25" cy="26.7" r="24.7743" gradientTransform="matrix(1 0 0 -1 0 52)" gradientUnits="userSpaceOnUse">
	<stop  offset="0.7799" style="stop-color:#DAD9D9"/>
	<stop  offset="0.9821" style="stop-color:#D9D8D9;stop-opacity:0"/>
</radialGradient>
<path class="st4" d="M49.3,25.3c0,2-0.2,3.9-0.7,5.7C46.1,41.7,36.5,49.6,25,49.6c-11.4,0-21-8-23.6-18.7c-0.4-1.8-0.7-3.7-0.7-5.6
	C0.8,11.9,11.6,1,25,1S49.3,11.9,49.3,25.3z"/>
<linearGradient id="SVGID_5_" gradientUnits="userSpaceOnUse" x1="25" y1="31.4856" x2="25" y2="46.9916" gradientTransform="matrix(1 0 0 -1 0 52)">
	<stop  offset="0" style="stop-color:#FFFFFF;stop-opacity:0"/>
	<stop  offset="1" style="stop-color:#FFFFFF;stop-opacity:0.3"/>
</linearGradient>
<ellipse class="st5" cx="25" cy="12.8" rx="12.8" ry="7.8"/>
<linearGradient id="SVGID_6_" gradientUnits="userSpaceOnUse" x1="25" y1="37.9379" x2="25" y2="46.6732" gradientTransform="matrix(1 0 0 -1 0 52)">
	<stop  offset="0" style="stop-color:#FFFFFF;stop-opacity:0"/>
	<stop  offset="1" style="stop-color:#FFFFFF;stop-opacity:0.3"/>
</linearGradient>
<ellipse class="st6" cx="25" cy="9.7" rx="7.2" ry="4.4"/>
<linearGradient id="SVGID_7_" gradientUnits="userSpaceOnUse" x1="25" y1="41.1253" x2="25" y2="46.4005" gradientTransform="matrix(1 0 0 -1 0 52)">
	<stop  offset="0" style="stop-color:#FFFFFF;stop-opacity:0"/>
	<stop  offset="1" style="stop-color:#FFFFFF;stop-opacity:0.3"/>
</linearGradient>
<ellipse class="st7" cx="25" cy="8.2" rx="4.4" ry="2.6"/>
<linearGradient id="SVGID_8_" gradientUnits="userSpaceOnUse" x1="25" y1="3.2" x2="25" y2="30.9509" gradientTransform="matrix(1 0 0 -1 0 52)">
	<stop  offset="4.262232e-07" style="stop-color:#231F20;stop-opacity:0.2"/>
	<stop  offset="0.1471" style="stop-color:#231F20;stop-opacity:0.1706"/>
	<stop  offset="1" style="stop-color:#231F20;stop-opacity:0"/>
</linearGradient>
<path class="st8" d="M48.6,30.2C46.1,40.9,36.5,48.8,25,48.8c-11.4,0-21-7.9-23.6-18.6C2.3,29,3.6,27.8,5,26.8
	c0.3-0.2,0.5-0.4,0.8-0.6c4.7-3.1,11.6-5.1,19.2-5.1c0.5,0,0.9,0,1.4,0c4,0.1,7.8,0.8,11.1,1.9C42.4,24.6,46.3,27.2,48.6,30.2z"/>
</svg>
