<?xml version="1.0" encoding="utf-8"?>
<!-- Generator: Adobe Illustrator 25.2.3, SVG Export Plug-In . SVG Version: 6.00 Build 0)  -->
<svg version="1.1" id="Layer_1" xmlns="http://www.w3.org/2000/svg" xmlns:xlink="http://www.w3.org/1999/xlink" x="0px" y="0px"
	 viewBox="0 0 327.8 204.3" style="enable-background:new 0 0 327.8 204.3;" xml:space="preserve">
<style type="text/css">
	.st0{fill:#3A67A5;}
	.st1{fill:url(#SVGID_1_);}
	.st2{fill:url(#SVGID_2_);}
	.st3{fill:url(#SVGID_3_);}
	.st4{fill:url(#SVGID_4_);}
	.st5{fill:url(#SVGID_5_);}
	.st6{fill:url(#SVGID_6_);}
	.st7{fill:url(#SVGID_7_);}
	.st8{fill:url(#SVGID_8_);}
	.st9{fill:url(#SVGID_9_);}
	.st10{fill:url(#SVGID_10_);}
</style>
<g>
	<g>
		<path class="st0" d="M169.9,190.6v2.1h-12.2v-1.7l6.9-6.7c1.8-1.7,2.1-2.8,2.1-3.9c0-1.7-1.2-2.8-3.6-2.8c-1.8,0-3.3,0.6-4.3,1.8
			l-1.7-1.4c1.3-1.6,3.6-2.6,6.2-2.6c3.5,0,5.8,1.8,5.8,4.7c0,1.7-0.5,3.1-2.8,5.3l-5.2,5H169.9z"/>
		<path class="st0" d="M171.2,184.2c0-5.5,3-8.7,6.9-8.7c4,0,6.9,3.2,6.9,8.7c0,5.5-3,8.7-6.9,8.7
			C174.2,192.9,171.2,189.8,171.2,184.2z M182.7,184.2c0-4.3-1.8-6.5-4.5-6.5c-2.7,0-4.5,2.2-4.5,6.5c0,4.3,1.8,6.5,4.5,6.5
			C180.8,190.8,182.7,188.6,182.7,184.2z"/>
		<path class="st0" d="M198.7,190.6v2.1h-12.2v-1.7l6.9-6.7c1.8-1.7,2.1-2.8,2.1-3.9c0-1.7-1.2-2.8-3.6-2.8c-1.8,0-3.3,0.6-4.3,1.8
			l-1.7-1.4c1.3-1.6,3.6-2.6,6.2-2.6c3.5,0,5.8,1.8,5.8,4.7c0,1.7-0.5,3.1-2.8,5.3l-5.2,5H198.7z"/>
		<path class="st0" d="M205.4,175.7v17H203v-14.9h-3.8v-2.1H205.4z"/>
	</g>
	<g>
		<g>
			
				<linearGradient id="SVGID_1_" gradientUnits="userSpaceOnUse" x1="33.797" y1="132.6142" x2="98.8533" y2="132.6142" gradientTransform="matrix(1 -6.006659e-03 6.006659e-03 1 -1.1453 0.9694)">
				<stop  offset="0" style="stop-color:#4475B8"/>
				<stop  offset="1" style="stop-color:#25346E"/>
			</linearGradient>
			<path class="st1" d="M98.4,129.9c0,0.1-0.1,0.1-0.1,0.2c-0.3,0.4-0.7,0.7-0.9,0.6c0,0-0.1,0-0.1,0c-0.2-0.1-0.6,0.1-0.9,0.3
				c-0.7,0.6-0.7,0.6-0.1-0.3c0.4-0.4,0.9-0.7,1-0.6v0c0.1,0.1,0.6,0,0.8-0.3c0.1-0.1,0.2-0.2,0.3-0.2c-0.1-1.7,0-3.2,0-4.4l0,0.6
				l-0.2,0.6c-0.3,0.4-0.6,0.7-0.9,1.1c0,0.1-0.1,0.1-0.2,0.2c-8,10.2-19.3,22.1-25.3,26.4c-6.5,4.8-12.8,7.3-18.1,7.3h-0.4
				c-3.5,0-4.8-0.4-6-2.7c-1.7-3.8-1.5-7.2,0.7-13.7c0.4-1.2,0.8-2.7,2.2-2.7c0.3,0,0.6,0.1,0.9,0.2c0.7,0.3,1.8,0.4,3.1,0.4
				c2.1,0,4.4-0.4,5.8-1.1c5.8-2.5,14-9.8,18.7-16.6c2.4-3.5,4.2-8.5,4.7-13.1c0.3-3.9-0.6-6.2-3.1-8.1c-0.6-0.5-2.2-2-2.9-2.7
				l-0.1-0.1c-1-1.4-3.4-2.2-6.3-2.2c-1.9,0-4.1,0.4-6.1,1.1c-6.9,2.5-15.4,10-21.3,18.5c-10.4,15.3-12.7,27.4-7.1,36.1
				c2.1,3.2,5.2,6.4,7.3,7.4c1.2,0.6,2.8,1.7,3.8,2.4c0.8,0.7,2.5,1.6,3.6,1.9c1.8,0.6,3.5,0.8,5.2,0.8c2.8,0,5.7-0.8,9-2.2
				c8.7-4.1,20.1-15.5,31.5-31.3l0.7-0.9l1-1.3C98.5,131,98.4,130.5,98.4,129.9z M79.4,116.4c0.1-0.6,0.3-0.6,0.4-0.1
				c0,0.4-0.3,1-0.4,1.4C78.8,118.5,78.8,117.6,79.4,116.4z M78.1,121.3c-0.1,0.4,0.1,0.1,0.4-0.6c1.3-2,1.5-1.5,0.3,0.7
				c-1.3,2.5-2.9,4.5-3.2,4.2c-0.1-0.1-0.7,0.1-1.2,0.5c-0.7,0.6-0.6,0.3,0.3-0.8c0.6-0.9,1.9-2.8,2.6-4.4
				C78.7,118.6,78.8,118.6,78.1,121.3z M53.7,120.7c0-0.6,5.7-7.2,6.1-7.2c0,0-1.2,1.7-2.8,3.7C53.5,121.4,53.7,121.2,53.7,120.7z
				 M58.7,125c6.3-8.9,12.5-15.4,16.6-17.4c0.7-0.3,1.2-0.5,1.6-0.5c0.5,0,0.9,0.2,1.2,0.6c0.6,0.8,0.5,1.9-0.3,5.2
				c-2.2,10.4-10.6,20.8-20.4,25.4c-1.8,0.8-3.5,1.3-4.6,1.3c-0.6,0-1.1-0.1-1.4-0.5c-0.2-0.2-0.4-0.6-0.4-0.9
				C51.1,136.9,57.1,127.2,58.7,125z M37.7,144.4c-0.7,0.7,1.8-8.2,2.9-9.8c0.6-0.8,0.4-0.1-1.2,5.4
				C38.6,142.3,37.8,144.3,37.7,144.4z M39.3,147.4l0.3-3.3c0-1.7,0.6-4.3,1.1-5.5c0.9-2.7,1.9-4,1.4-1.8c-0.3,0.7-0.9,3.4-1.6,5.9
				L39.3,147.4z M41.8,145.5c-0.1-1.1,1.5-6.8,2-7.2c0.3-0.3,0.4-0.3,0.4,0.2C44.1,139.4,41.8,146.2,41.8,145.5z M45.4,149.8
				l0.3-1.8c0.2-1,0.6-2.4,0.9-3.1l0.7-1.4l-0.3,1.3c-0.3,0.8-0.6,2.3-1,3.2L45.4,149.8z"/>
			
				<linearGradient id="SVGID_2_" gradientUnits="userSpaceOnUse" x1="97.6522" y1="128.6694" x2="101.4862" y2="128.6694" gradientTransform="matrix(1 -6.006659e-03 6.006659e-03 1 -1.1453 0.9694)">
				<stop  offset="0" style="stop-color:#4475B8"/>
				<stop  offset="1" style="stop-color:#25346E"/>
			</linearGradient>
			<path class="st2" d="M98.4,129.9v-0.3c-0.1-1.7,0-3.2,0-4.4l0,0.6l-0.2,0.6c-0.3,0.4-0.6,0.7-0.9,1.1c0,0.9,0,1.8,0,2.6v0
				c0,0.2,0,0.4,0,0.5c0,0.8,0.1,1.5,0.1,2.2l1-1.3C98.5,131,98.4,130.5,98.4,129.9z M99.8,127.3c0,0.1-0.1,0.1-0.1,0.1
				c0,0.1,0,0.2,0.1,0.2L99.8,127.3z M99.2,126.6c0,0.2,0.2,0.2,0.6-0.2c0-0.2,0-0.3,0-0.4C99.5,126.2,99.2,126.5,99.2,126.6z
				 M100.5,126.6L100.5,126.6c-0.1,0.3-0.1,0.5-0.1,0.6c0.1-0.1,0.2-0.2,0.4-0.3C101.3,126.1,101.2,126.1,100.5,126.6z M100.4,125.5
				c0,0.1,0,0.1,0,0.2C100.7,125.3,100.7,125.3,100.4,125.5z"/>
			
				<linearGradient id="SVGID_3_" gradientUnits="userSpaceOnUse" x1="208.3034" y1="134.5838" x2="262.7448" y2="134.5838" gradientTransform="matrix(1 -6.006659e-03 6.006659e-03 1 -1.1453 0.9694)">
				<stop  offset="0" style="stop-color:#4475B8"/>
				<stop  offset="1" style="stop-color:#25346E"/>
			</linearGradient>
			<path class="st3" d="M261.6,110.6c-0.5-1.6-3-4.4-4.3-5.1c-1-0.7-2.3-1.9-3.1-2.8l-0.1-0.1c-1.4-2.3-3.9-3.4-7.5-3.5l-0.2,0
				c-3.7,0-7.3,1.8-9.4,4.7c-1.3,1.9-1.4,2.2-1.5,5.1c-0.1,3.6,0.5,4.4,1.8,4.9l0.1,0.1c1.1,0.6,1.6,1.3,1.6,2v0.1
				c0,0,0.2,0.2,0.4,0.3c0.2,0.1,0.3,0.1,0.3,0.1c0,0,0.2-0.1,0.6-0.4c0.6-0.6,1.6-1.2,2.4-1.2c0.2,0,1.7-0.6,3.6-1.4l0.6-0.3
				c2.6-1.2,3.6-1.8,4.4-1.8c0.6,0,1,0.3,1.2,0.5c0.6,0.6,0.4,1.5,0.2,3l-0.1,0.5c-0.5,4.8-2.9,13.2-5.2,18.3
				c-3.7,8-11.5,18.4-17,22.6c-2.6,1.8-7.2,4.5-9,4.5c-0.5,0-1-0.2-1.3-0.6c-0.3-0.4-1.4-1.6-0.5-8.4c1.1-9.2,4.2-16.6,12.2-29.4
				c1.1-1.8,1.8-3.3,2.1-4.1c-0.1-0.1-0.2-0.2-0.4-0.3c-0.2-0.2-0.3-0.5-0.4-0.9c-0.4-0.2-1.1-0.7-2.5-2.1c-1.2-1.2-2-1.6-3-1.6
				c-0.7,0-1.5,0.2-2.7,0.7c-3.4,1.4-6.9,5.3-10.9,11.8c-5.7,9.1-7.8,21.6-5.1,28.8c1.4,3.6,4.3,7.4,6.1,8.4l0.1,0
				c0.8,0.6,2.3,1.8,3.2,2.8c0.6,0.9,2.1,2,3,2.5c1.2,0.6,2.4,0.9,3.8,0.9c5,0,11.2-4.1,18-11.7c9.9-11,16.9-25.2,18.7-38
				C262.5,116.3,262.3,112.4,261.6,110.6z M237.9,112.4c-0.4,0-0.1-0.7,0.7-1.8l1-1.3l-0.7,1.6C238.5,111.7,238.1,112.4,237.9,112.4
				z M239.6,112.4c-0.3,0.4-0.7,0.8-0.9,0.8c0,0,0-0.4,0.3-0.9c0.3-0.6,0.7-1,0.7-1C239.9,111.4,239.9,111.8,239.6,112.4z
				 M222.2,139.1c-1.3,3.1-2.1,4.2-1.5,2.3c0.6-1.7,2.4-5.7,2.5-5.4C223.3,136,222.8,137.4,222.2,139.1z M213.4,138.1
				c0.5-2.4,4.1-10.3,4.8-10.3c0.1,0-0.3,0.8-0.9,2c-0.4,1-1.8,3.7-2.6,5.8C213.8,137.9,213.2,139,213.4,138.1z M215.6,138.7
				c-1,2.7-1.6,3.8-1.5,2.8c0.9-5.2,5.3-14.5,9.1-18.8l1.4-1.5l-1.2,1.8c-0.6,1-1.5,2.3-1.9,3c-0.4,0.6-1.6,2.7-2.6,4.5
				C218.2,132.5,216.5,136.2,215.6,138.7z M219.7,132.5c2.1-4.1,5.8-10,7.9-12.2c1.7-1.8,1.7-1.7-0.3,1.1c-1.2,1.7-2.9,4.2-3.8,5.8
				c-0.9,1.4-2.5,4.5-3.7,6.6C217.6,138.2,217.5,137.4,219.7,132.5z M254.1,124.6c0.1,0.4,0.1,0.7,0,1c-0.1,0.2-0.3-0.1-0.3-0.7
				C253.9,124.3,253.9,124.3,254.1,124.6z M253.8,126.4c0,0.3-0.6,2.4-1.5,4.5c-1.2,3.2-1.9,4.5-1.9,3.8
				C250.4,134.3,253.6,126.4,253.8,126.4z M243.1,152.1c-0.6,0.7-0.9,1-0.9,0.6c0,0,0.3-0.4,0.7-0.7
				C243.7,151.4,243.9,151.4,243.1,152.1z M254.5,133.6c-1.6,3.9-4,8.3-6.4,11.8c-2,2.9-4.9,6.4-4.1,5c0.2-0.4,1.4-2.2,2.8-4.1
				c2.5-3.7,5.4-8.9,7.3-13.5C255.7,129.4,255.8,129.8,254.5,133.6z M254.9,127.8c-0.6,2.3-2.7,6.8-4.3,10c-1.8,3.4-3.5,6.5-4.1,7.2
				c-0.7,0.7-0.4,0.1,0.5-1.4c2.6-4.5,4.8-9.3,7-15.5C256.4,121.6,256.8,121.3,254.9,127.8z"/>
		</g>
		<g>
			<g>
				
					<linearGradient id="SVGID_4_" gradientUnits="userSpaceOnUse" x1="33.797" y1="132.6142" x2="146.0173" y2="132.6142" gradientTransform="matrix(1 -6.006659e-03 6.006659e-03 1 -1.1453 0.9694)">
					<stop  offset="0" style="stop-color:#4475B8"/>
					<stop  offset="1" style="stop-color:#25346E"/>
				</linearGradient>
				<path class="st4" d="M142.7,153.3c0.1-0.2,0.2-0.3,0.3-0.5c0.1-0.2,0.2-0.5,0.4-0.7c0.5-1,1.2-2.3,2-3.9
					c0.1-0.2,0.2-0.4,0.3-0.7C144.9,149.1,143.3,152.1,142.7,153.3z M98.4,129.9v-0.3c-0.1-1.7,0-3.2,0-4.4l0,0.6l-0.2,0.6
					c-0.3,0.4-0.6,0.7-0.9,1.1c0,0.1-0.1,0.1-0.2,0.2c-8,10.2-19.3,22.1-25.3,26.4c-6.5,4.8-12.8,7.3-18.1,7.3h-0.4
					c-3.5,0-4.8-0.4-6-2.7c-1.7-3.8-1.5-7.2,0.7-13.7c0.4-1.2,0.8-2.7,2.2-2.7c0.3,0,0.6,0.1,0.9,0.2c0.7,0.3,1.8,0.4,3.1,0.4
					c2.1,0,4.4-0.4,5.8-1.1c5.8-2.5,14-9.8,18.7-16.6c2.4-3.5,4.2-8.5,4.7-13.1c0.3-3.9-0.6-6.2-3.1-8.1c-0.6-0.5-2.2-2-2.9-2.7
					l-0.1-0.1c-1-1.4-3.4-2.2-6.3-2.2c-1.9,0-4.1,0.4-6.1,1.1c-6.9,2.5-15.4,10-21.3,18.5c-10.4,15.3-12.7,27.4-7.1,36.1
					c2.1,3.2,5.2,6.4,7.3,7.4c1.2,0.6,2.8,1.7,3.8,2.4c0.8,0.7,2.5,1.6,3.6,1.9c1.8,0.6,3.5,0.8,5.2,0.8c2.8,0,5.7-0.8,9-2.2
					c8.7-4.1,20.1-15.5,31.5-31.3l0.7-0.9l1-1.3C98.5,131,98.4,130.5,98.4,129.9z M79.4,116.4c0.1-0.6,0.3-0.6,0.4-0.1
					c0,0.4-0.3,1-0.4,1.4C78.8,118.5,78.8,117.6,79.4,116.4z M78.1,121.3c-0.1,0.4,0.1,0.1,0.4-0.6c1.3-2,1.5-1.5,0.3,0.7
					c-1.3,2.5-2.9,4.5-3.2,4.2c-0.1-0.1-0.7,0.1-1.2,0.5c-0.7,0.6-0.6,0.3,0.3-0.8c0.6-0.9,1.9-2.8,2.6-4.4
					C78.7,118.6,78.8,118.6,78.1,121.3z M53.7,120.7c0-0.6,5.7-7.2,6.1-7.2c0,0-1.2,1.7-2.8,3.7C53.5,121.4,53.7,121.2,53.7,120.7z
					 M58.7,125c6.3-8.9,12.5-15.4,16.6-17.4c0.7-0.3,1.2-0.5,1.6-0.5c0.5,0,0.9,0.2,1.2,0.6c0.6,0.8,0.5,1.9-0.3,5.2
					c-2.2,10.4-10.6,20.8-20.4,25.4c-1.8,0.8-3.5,1.3-4.6,1.3c-0.6,0-1.1-0.1-1.4-0.5c-0.2-0.2-0.4-0.6-0.4-0.9
					C51.1,136.9,57.1,127.2,58.7,125z M37.7,144.4c-0.7,0.7,1.8-8.2,2.9-9.8c0.6-0.8,0.4-0.1-1.2,5.4
					C38.6,142.3,37.8,144.3,37.7,144.4z M39.3,147.4l0.3-3.3c0-1.7,0.6-4.3,1.1-5.5c0.9-2.7,1.9-4,1.4-1.8c-0.3,0.7-0.9,3.4-1.6,5.9
					L39.3,147.4z M41.8,145.5c-0.1-1.1,1.5-6.8,2-7.2c0.3-0.3,0.4-0.3,0.4,0.2C44.1,139.4,41.8,146.2,41.8,145.5z M45.4,149.8
					l0.3-1.8c0.2-1,0.6-2.4,0.9-3.1l0.7-1.4l-0.3,1.3c-0.3,0.8-0.6,2.3-1,3.2L45.4,149.8z"/>
				
					<linearGradient id="SVGID_5_" gradientUnits="userSpaceOnUse" x1="98.8478" y1="137.261" x2="158.5962" y2="137.261" gradientTransform="matrix(1 -6.006659e-03 6.006659e-03 1 -1.1453 0.9694)">
					<stop  offset="0" style="stop-color:#4475B8"/>
					<stop  offset="1" style="stop-color:#25346E"/>
				</linearGradient>
				<path class="st5" d="M156.7,126.8C156.7,126.8,156.7,126.8,156.7,126.8c-0.8,1.2-1.5,2.5-2.2,3.8l-0.1,0.2
					c-1.1,1.2-1.8,2.1-2.3,2.7c-0.5,0.6-0.9,1.2-1.4,1.8c-2.2,3.9-4,7.4-5.6,10.6l-0.4,0.3c-0.9,0.7-1.5,1.4-1.5,1.6
					c0,0.3,0.3,0,1.6-1.4l0,0c-0.7,1.3-1.3,2.6-1.9,3.8l3.3-3.6c0,0,0-0.1,0-0.1c0.2-0.3,0.3-0.5,0.4-0.8c1.1-2,2.2-4.2,3.4-6.4v0
					c0-0.1-0.1-0.1-0.1-0.2c-0.1-0.1-0.1-0.2-0.2-0.2c0-0.1,0-0.1,0-0.1c0,0,0,0,0,0c0,0,0.1,0,0.1,0.1c0,0,0.1,0.1,0.1,0.1
					c0,0,0.1,0,0.2,0v0c3.2-6,6.5-12.1,7.9-14.6C157.7,125.2,157.2,126,156.7,126.8z M100.4,125.5c0,0.1,0,0.1,0,0.2
					C100.7,125.3,100.7,125.3,100.4,125.5z M100.5,126.6L100.5,126.6c-0.1,0.3-0.1,0.5-0.1,0.6c0.1-0.1,0.2-0.2,0.4-0.3
					C101.3,126.1,101.2,126.1,100.5,126.6z M99.2,126.6c0,0.2,0.2,0.2,0.6-0.2c0-0.2,0-0.3,0-0.4C99.5,126.2,99.2,126.5,99.2,126.6z
					 M99.8,127.3c0,0.1-0.1,0.1-0.1,0.1c0,0.1,0,0.2,0.1,0.2L99.8,127.3z M98.7,131.3l-0.2,0.2c0,0.6,0.1,1.1,0.2,1.7
					c0-0.1,0-0.3,0-0.4C98.6,131.9,98.7,131.3,98.7,131.3z"/>
				
					<linearGradient id="SVGID_6_" gradientUnits="userSpaceOnUse" x1="85.322" y1="137.4246" x2="158.3944" y2="137.4246" gradientTransform="matrix(1 -6.006659e-03 6.006659e-03 1 -1.1453 0.9694)">
					<stop  offset="0" style="stop-color:#4475B8"/>
					<stop  offset="1" style="stop-color:#25346E"/>
				</linearGradient>
				<path class="st6" d="M157.9,102.6c-1-0.3-2.1-1.5-2.2-1.6c-1-1-1.1-1.1-3.5-1.2h-0.4c-2.8,0-4.6,0.6-9.9,3.9
					c-6.9,4.4-16,12.3-26.5,23l-5.9,6.2l-1.8-0.8l0.3-3.8l0.2-1.6c0.4-2.5,0.9-6.2,1.5-9.3c1.2-6.4,1.1-6.6,0.7-7.3
					c-0.2-0.3-0.5-0.6-0.6-0.7c-1.3-0.4-2.7-2.4-3.2-3.2c-0.3-0.5-1-0.8-1.7-0.8c-0.3,0-0.5,0-0.7,0.1c-0.1,0.1-0.2,0.1-0.3,0.2
					c0,0,0,0,0,0c-0.1,0.1-0.2,0.2-0.3,0.3c-0.3,0.3-0.5,0.7-0.8,1.2c-0.1,0.2-0.2,0.4-0.3,0.6c0,0.1-0.1,0.1-0.1,0.2
					c-0.1,0.2-0.2,0.5-0.3,0.7c0,0.1,0,0.1-0.1,0.2c-0.1,0.3-0.2,0.6-0.4,0.9c-0.1,0.2-0.1,0.4-0.2,0.6c-0.1,0.2-0.1,0.4-0.2,0.6
					c-0.1,0.4-0.3,0.8-0.4,1.2c-0.1,0.4-0.3,0.9-0.4,1.3c-0.1,0.4-0.2,0.8-0.3,1.3c-0.2,0.9-0.4,1.9-0.6,2.9c-0.1,0.5-0.2,1-0.3,1.5
					c-0.1,0.5-0.1,0.9-0.2,1.4c-0.1,0.3-0.1,0.7-0.1,1c0,0.3-0.1,0.5-0.1,0.8c0,0.2,0,0.4-0.1,0.9c0,0.2,0,0.5-0.1,0.7
					c0,0.1,0,0.2,0,0.4c0,0.2,0,0.5-0.1,0.7c-0.1,1.2-0.1,2.7,0,4.4v0.3c0,0.5,0,1.1,0.1,1.7l0.2-0.2c0,0-0.1,0.6-0.1,1.6
					c0,0.1,0,0.3,0,0.4v0.1c0,0.2,0,0.4,0,0.6c0,0.2,0.1,0.4,0.1,0.6c0.2,1.2,0.4,2.2,0.5,2.9c0.1,0.4,0.2,0.6,0.2,0.6
					c0.1,0.4,0.2,0.8,0.4,1.2l1.1,3.5l-0.2,0.9L98,147c-7.9,10-12.7,18.6-12.8,22.9c0,1.6,1.2,3.3,2.6,3.5c1.1,0.1,2.1,0.9,2.6,1.3
					l0.2,0.2c0.1,0.2,0.3,0.5,0.5,0.5c0.1,0,0.6-0.1,1.4-0.9c0.6-0.6,2.8-3.5,5.4-7.3c4.5-6.4,7.8-11,9.1-12.2l0.1,0.1l0.7-0.4
					c0.3,0,1.1,0,4.3,3.1c3.6,3.5,5.9,4.7,9.8,5.2c0.4,0,0.9,0,1.3,0c0.6,0,1.1,0,1.7-0.1c0.4,0,0.7-0.1,1.1-0.2
					c0.2-0.1,0.5-0.1,0.7-0.2c0.1,0,0.2-0.1,0.3-0.1c0.3-0.1,0.6-0.2,0.9-0.3c2-0.7,4.1-1.9,6.4-3.7c0.3-0.2,0.5-0.4,0.8-0.6
					c1.4-1.1,2.9-2.4,4.6-4c0.1-0.1,0.3-0.3,0.4-0.4l0.4-0.4c0.1-0.1,0.2-0.2,0.4-0.4l2.1-2.3c0.6-1.2,1.2-2.5,1.9-3.8l0,0
					c-1.3,1.4-1.6,1.7-1.6,1.4c0-0.1,0.6-0.8,1.5-1.6l0.4-0.3c1.6-3.2,3.4-6.7,5.6-10.6c-2.9,3.8-5.9,7.2-9,10.1
					c-0.9,0.9-1.8,1.7-2.8,2.6c-0.4,0.4-0.8,0.7-1.2,1c-0.6,0.5-1.2,1-1.9,1.5c-0.4,0.3-0.8,0.6-1.2,0.9c-1.3,0.9-2.5,1.7-3.8,2.4
					c-3.4,2-7.1,3.1-10.4,3.1c-3.8,0-6.7-1.4-7.9-4c0,0-1.1-1.8-1.1-2.7c0-1.7,16.3-19.4,19.4-22.6c6-6.1,10.6-10,18.7-16
					c6.9-5.1,7.3-6.5,7.4-6.5c0-0.6,0.5-1.4,1-1.9C157.9,103.2,157.9,102.8,157.9,102.6z M104,112.4c-0.2,0.6-1.1,3-1.2,4.7
					c-0.2,1.9-0.3,3.2-0.3,3.2S101.8,116,104,112.4z M100.7,126.9c-0.2,0.1-0.3,0.2-0.4,0.3c0,0,0,0,0,0c0,1.2-0.1,2.3-0.1,3.3
					c0,3.2,0,4.3-0.4,0.5v0c-0.1-1.2-0.2-2.3-0.1-3.4c0,0-0.1-0.1-0.1-0.2c0,0,0-0.1,0.1-0.1c0,0,0,0,0,0c0-0.3,0-0.6,0-0.9
					c-0.4,0.4-0.6,0.5-0.6,0.2c0-0.1,0.3-0.4,0.6-0.7c0.1-1.1,0.1-2.2,0.2-3.2c0.4-3.6,1.1-6.3,1.4-7.3c-0.4,1.9-0.7,4.3-0.9,6.7
					c-0.1,1.1-0.1,2.2-0.2,3.3c0.3-0.2,0.2-0.2,0,0.2c0,0.4,0,0.7,0,1.1l0.1-0.1C101.2,126.1,101.3,126.1,100.7,126.9z M88.3,172.2
					c0-0.8,1.5-4.1,1.8-4.1c0.1,0-0.2,1-0.6,2.3C88.5,172.8,88.3,173.2,88.3,172.2z M93.5,166.1c-1,1.6-2.3,3.7-2.8,4.9
					c-0.9,2-1.5,2.7-1.5,1.8c0-0.7,6.6-11.7,7-11.7C96.5,161.2,95.6,162.8,93.5,166.1z M99.4,157.1c-0.4,0.7-1.2,1.7-1.6,2
					c-0.3,0.3,0-0.4,0.7-1.4C100,155.4,100.6,155,99.4,157.1z M104.7,143.3c-0.7,0.6-2.4,2.2-2.1,2.9c0.3,0.6-2.2,2-2.5,2.2
					c0.2-0.4,4-6.9,4.7-6.8c0.8,0.1-0.4-0.5,0.9-0.7C107,140.7,105.3,142.7,104.7,143.3z M106.2,111.2c-0.4,0.9-0.7,1.3-0.7,0.9
					c0-0.8,1.3-3.7,1.5-3C107,109.4,106.7,110.4,106.2,111.2z M144.1,145.5c0.6-0.7,1.3-1.1,1.3-1.1c0.1,0-0.1,0.4-0.9,1.1
					c-0.6,0.6-1.2,1.1-1.3,1.1C143.1,146.6,143.5,146,144.1,145.5z M109.7,143.3c1.7-5.4,15.3-19.1,26.7-27.7
					C120.5,128.3,110.4,142.4,109.7,143.3z M112.8,141.5c1.8-3.4,19.6-23.6,34.7-32.3C130.5,120.4,113.8,140.3,112.8,141.5z"/>
				
					<linearGradient id="SVGID_7_" gradientUnits="userSpaceOnUse" x1="135.4183" y1="152.5451" x2="213.3371" y2="152.5451" gradientTransform="matrix(1 -6.006659e-03 6.006659e-03 1 -1.1453 0.9694)">
					<stop  offset="0" style="stop-color:#4475B8"/>
					<stop  offset="1" style="stop-color:#25346E"/>
				</linearGradient>
				<path class="st7" d="M211.8,109.3c-0.2-0.4-0.5-0.9-0.9-1.3c-0.6-0.7-1.2-1.3-1.6-1.6c-0.7-0.5-2.1-1.6-2.6-2.5
					c-7,0.3-12.9,2.3-17.5,4.8c-0.1,0.1-0.2,0.1-0.3,0.2h0l-8.4,5.9c-2.4,2.1-3.7,3.7-3.7,3.7c-0.1-0.2-0.3-0.6,0-1.2
					c2.1-3.2,4.5-8.2,5.5-10.6l-1-0.4l0.3-1.5c0-0.1,0-0.2,0-0.2c-1,0-3.1-2.4-3.5-3.6l-0.1-0.1c-0.1,0-0.2,0-0.3,0
					c-2.6,0-9.5,7.2-19,22.7c0,0,0,0.1,0,0.1c-0.1,0.1-0.1,0.2-0.2,0.4c-0.1,0.1-0.2,0.3-0.3,0.5c-1.5,2.5-4.7,8.6-7.9,14.6v0
					c0.3,0,0.7-0.2,1.1-0.5c0.9-0.8,0.9-0.8,0,0.3c-0.9,1-1,1.1-1.3,0.6c-1.2,2.2-2.3,4.4-3.4,6.4c-0.1,0.3-0.3,0.5-0.4,0.8
					c0,0,0,0,0,0.1c-0.1,0.2-0.2,0.5-0.5,0.9c0,0,0,0,0,0c-0.1,0.2-0.2,0.4-0.3,0.7c-0.8,1.6-1.5,2.9-2,3.9
					c-0.1,0.3-0.3,0.5-0.4,0.7c-0.1,0.2-0.2,0.4-0.3,0.5c-0.1,0.1-0.1,0.2-0.2,0.3c0,0,0,0.1,0,0.1c0,0.1-0.1,0.1-0.1,0.2
					c-1.8,4.3-3.2,8.2-4.2,12.2c-2.5,9.6-2.7,11.4-2.8,19.3c0,9.6,0.5,11.8,3.4,14.6c1.1,1.3,2.7,2.5,3.3,2.7c0.9,0.3,2.3,1.1,3,1.6
					c0,0-4.4-47.9,32.7-78.7c1.6-1.7,3.4-3.6,4.3-4.3c0.8-0.8-0.1,0.4-2.2,2.6c4.1-3.2,8.7-6.2,13.9-8.9c2.4-1.8,4.9-3.4,5.8-3.4
					c0.3,0,0.6,0.1,0.8,0.3c0.7,0.6,1.2,1.1-3.5,9.1c-2.7,4.6-6.1,9.9-9,14c-5.6,8-8.7,11.7-14.4,17.3c-3.9,3.7-5.7,5.3-8.6,6.6
					c-1.7,0.7-3,1.5-3.2,1.8c0,0,0,0,0-0.1l-0.2,0.2c-0.5,0.4-1.4,0.5-1.7,0.5h-0.1c-0.1,0-0.3,0.1-0.4,0.2c0.2,0.2,0.7,0.7,2.3,1.6
					c2.8,1.6,3.3,1.9,6.6,2.9c1.7,0.6,3.3,0.8,4.9,0.8c1.9,0,3.9-0.5,5.9-1.3c0.6-0.3,1.3-0.6,1.9-1c8-4.8,19.6-18.5,26.3-31.6
					c0.4-0.8,0.8-1.5,1.1-2.2C212.8,121.1,214,113.8,211.8,109.3z M174.9,109c0,0.1-1.3,2.1-2.9,4.5c-1.8,2.7-4.4,6.6-5.7,8.9
					c-1.3,2.1-2.6,3.9-2.8,3.9C162.8,126.3,173.7,109.7,174.9,109z M161.5,129.5c0.3-0.4,0.6-0.8,0.7-0.8c0.1,0,0,0.4-0.3,0.9
					c-0.3,0.6-0.6,1-0.7,1C161.1,130.5,161.2,130.1,161.5,129.5z M160.4,125.7c0.4,0,0.6,0.2,0.4,0.3c-0.1,0.3-0.3,0.4-0.4,0.4
					c-0.1,0-0.3-0.1-0.4-0.4C159.9,125.8,160.1,125.7,160.4,125.7z M159.7,133.5c-0.3,0.7-0.7,0.9-0.7,0.3c0-0.3,0.3-0.6,0.6-0.7
					C159.9,132.9,159.9,133.1,159.7,133.5z M158.6,127.4c0.9-1,1.3-1,1.1-0.3c0,0.3-0.1,0.4-0.3,0.4c-0.3,0-0.7,0.3-1.2,0.4
					C157.8,128.2,158,127.9,158.6,127.4z M152.5,135.5c0.2-0.4,1.1-0.1,1.1,0.3c0,0-0.4,0.1-0.7,0.1
					C152.5,135.9,152.3,135.6,152.5,135.5z M141.4,170.9c0-0.6,0-0.7,0.3-0.3c0,0.3,0,0.7-0.2,0.8
					C141.4,171.6,141.3,171.3,141.4,170.9z M139.4,181.8c-0.1-2,1.3-8.8,1.7-9.2c0.1-0.2,0.1,0.6,0,1.5c-0.3,1-0.8,3.5-1.1,5.5
					C139.5,182.1,139.4,182.8,139.4,181.8z M141.4,182.9c-0.6,5.4-0.9,5.7-0.7,1c0.2-5,3.6-19.7,5-22.1c0.4-0.4,0.4-0.4,0.3,0.3
					c-0.9,2.8-2.9,10.6-3.3,12.9C142.3,176.5,141.7,180.1,141.4,182.9z M150.6,156.2c-1.2,2.8-2.9,8-3.9,11.7
					c-1,3.7-2.2,8.8-2.7,11.3c-0.5,2.7-0.9,4-0.9,3c-0.1-2,1.6-9.9,2.9-14.9c1.1-3.8,3.1-9.2,5.2-13.7
					C153.3,149,152.9,150.6,150.6,156.2z M154,148.4c-0.6,1.1-1.2,2-1.2,1.7c0-0.3,0.6-1.4,1.2-2.6c0.6-1.1,1.2-1.8,1.2-1.7
					C155.1,146.2,154.5,147.3,154,148.4z M154.5,133.3c-0.6,0.7-1.2,1.4-1.3,1.4c0-0.1,0.3-0.7,0.9-1.4c0.6-0.7,1.2-1.4,1.2-1.4
					C155.4,131.9,155.1,132.6,154.5,133.3z M156.5,130.6c-0.7,0.8-1,1-1,0.7c0-0.1,0.3-0.6,0.7-0.8
					C157.1,129.9,157.1,129.9,156.5,130.6z M157.3,129c0.1-0.3,0.3-0.3,0.4-0.1c0.1,0.1,0.6,0,1-0.3c0.4-0.4,0.6-0.4,0.3,0.1
					c-0.2,0.4-0.7,0.7-1.2,0.7C157.4,129.5,157.1,129.2,157.3,129z M158.1,140.3c-0.5,0.4-0.5,0.4-0.3-0.3c0.3-0.4,0.6-0.7,0.7-0.5
					C158.7,139.6,158.5,140,158.1,140.3z M161.1,134.8c-1.2,2.3-2.3,4.1-2.5,4.1c-0.3,0,4.1-7.9,7.9-14.2c3.5-6.1,12.4-19.3,13.2-20
					c0.4-0.4-1,2.1-3.2,5.3C172.1,116.8,164.6,128.7,161.1,134.8z M179.4,123c-0.4,0.4-0.7,0.8-0.9,0.8c-0.4,0-0.1-0.4,0.6-1
					C179.9,122.3,179.9,122.3,179.4,123z M187.7,116.3c-0.6,0.6-1.1,1.1-1.3,1.1c-0.1,0,0.3-0.6,0.9-1.1c0.6-0.7,1.1-1.2,1.3-1.2
					C188.7,115,188.3,115.6,187.7,116.3z M184,117.3c-2.4,2.1-3.7,3.7-3.7,3.7l0-1.2L184,117.3c2-1.8,4.9-3.9,8.5-5.8L184,117.3z
					 M192.8,111.4c-0.1,0-0.2,0.1-0.3,0.1l0.5-0.3C192.9,111.2,192.8,111.3,192.8,111.4z M196.2,131.4c0.9-1.6,3.2-5.8,5-9.3
					c1.9-3.5,3.3-5.9,3.1-5.1c-0.3,1.6-3.8,8.3-6.7,13.3C194.8,134.6,193.8,135.4,196.2,131.4z M193.5,138.4
					c4.8-7,10.9-18.1,12.4-22.2c0.7-2.1,1.2-2.3,0.7-0.3c-1.1,4.2-7,15.4-12,22.1C189.5,144.7,189,145,193.5,138.4z M189.4,148.3
					c-1,1.1,0.1-0.4,2.3-3.4c4.9-6.6,9-12.9,11.6-17.9c2-4,3.1-5.1,1.7-2.1c-2.4,5.4-6.3,11.7-11.5,18.3
					C192.1,145.1,190.2,147.3,189.4,148.3z M206.8,131.1c-0.8,1.8-1.7,3.4-2.3,4.5c-0.6,1-1,1.6-1,1.6c-0.1,0-0.1,0-0.1-0.1
					c-0.1-0.1-0.1-0.1,0-0.2c0.1-0.3,1.6-3.2,3.4-6.6c1.7-3.4,3.2-6.1,3.2-5.8C209.9,124.8,208.6,127.7,206.8,131.1z"/>
			</g>
		</g>
		
			<linearGradient id="SVGID_8_" gradientUnits="userSpaceOnUse" x1="150.1437" y1="139.0199" x2="150.5998" y2="139.0199" gradientTransform="matrix(1 -6.006659e-03 6.006659e-03 1 -1.1453 0.9694)">
			<stop  offset="0" style="stop-color:#4475B8"/>
			<stop  offset="1" style="stop-color:#25346E"/>
		</linearGradient>
		<path class="st8" d="M150.3,139c-0.1,0.1-0.1,0.2-0.2,0.4c0-0.1-0.1-0.1-0.1-0.2c-0.3-0.3-0.1-0.4,0-0.3
			C150.1,139,150.2,139,150.3,139z"/>
	</g>
	<linearGradient id="SVGID_9_" gradientUnits="userSpaceOnUse" x1="0" y1="47.6034" x2="290.5777" y2="47.6034">
		<stop  offset="0" style="stop-color:#4475B8"/>
		<stop  offset="1" style="stop-color:#2CC4F2"/>
	</linearGradient>
	<path class="st9" d="M62.7,0v42.4h-9.8V25H33.7v17.4h-9.8V0h9.8v16.7h19.3V0H62.7z M105.6,34.5v7.9H72.8V0h32v7.9H82.5v9.2h19.7
		v7.6H82.5v9.8H105.6z M141.3,33.3h-19.7l-3.8,9.1h-10.1L126.7,0h9.7l19,42.4h-10.3L141.3,33.3z M138.3,25.9l-6.7-16.2l-6.7,16.2
		H138.3z M159.8,0h9.8v34.4h21.3v8h-31.1V0z M201.2,8h-13.6V0h36.9v8h-13.6v34.4h-9.8V8z M268.8,0v42.4H259V25h-19.3v17.4h-9.8V0
		h9.8v16.7H259V0H268.8z M73.2,49.4l-15,45.8H46.8l-10.1-31l-10.4,31H15L0,49.4h11l10.3,32.2l10.8-32.2h9.8l10.5,32.4L63,49.4H73.2z
		 M114.5,86.7v8.5H79V49.4h34.6v8.5H89.6v9.9h21.2v8.2H89.6v10.6H114.5z M153,85.4h-21.2l-4.1,9.8h-10.9l20.4-45.8h10.5l20.5,45.8
		h-11.1L153,85.4z M149.7,77.4l-7.3-17.5l-7.3,17.5H149.7z M173,49.4h10.6v37.1h22.9v8.6H173V49.4z M217.7,58.1H203v-8.6h39.9v8.6
		h-14.6v37.1h-10.6V58.1z M290.6,49.4v45.8H280V76.4h-20.8v18.8h-10.6V49.4h10.6v18H280v-18H290.6z"/>
	<g>
		<g>
			<linearGradient id="SVGID_10_" gradientUnits="userSpaceOnUse" x1="274.7695" y1="39.2952" x2="327.7548" y2="39.2952">
				<stop  offset="0" style="stop-color:#4475B8"/>
				<stop  offset="1" style="stop-color:#25346E"/>
			</linearGradient>
			<path class="st10" d="M300.1,37.8c-3.8,3.8-9,4-10.1,4h-11.5c-2.1,0-3.8-1.7-3.8-3.8c0-2.1,1.7-3.8,3.8-3.8h0v0H290
				c0.3,0,3.1-0.1,4.9-1.8c1-1,1.5-2.5,1.5-4.5V16.8h0c0.1-2,1.7-3.6,3.8-3.6c2,0,3.6,1.6,3.8,3.6h0v11.1
				C304,30.7,303.3,34.7,300.1,37.8z M324,37.2h-11.6c-0.8,0-6.3,0.1-10.2,4c-3.2,3.1-3.8,7.1-3.8,10v11h0.1
				c0.3,1.8,1.8,3.2,3.7,3.2c1.9,0,3.5-1.4,3.7-3.2h0V62c0-0.1,0-0.3,0-0.4c0-0.1,0-0.3,0-0.4V51.1c0-2,0.5-3.5,1.6-4.5
				c1.7-1.7,4.5-1.8,4.9-1.8h11.5c0.1,0,0.1,0,0.2,0c2.1,0,3.8-1.7,3.8-3.8C327.8,38.9,326.1,37.2,324,37.2z"/>
		</g>
	</g>
</g>
</svg>
