<?xml version="1.0" encoding="utf-8"?>
<!-- Generator: Adobe Illustrator 25.2.3, SVG Export Plug-In . SVG Version: 6.00 Build 0)  -->
<svg version="1.1" id="Layer_1" xmlns="http://www.w3.org/2000/svg" xmlns:xlink="http://www.w3.org/1999/xlink" x="0px" y="0px"
	 viewBox="0 0 447.1 219.7" style="enable-background:new 0 0 447.1 219.7;" xml:space="preserve">
<style type="text/css">
	.st0{fill:url(#SVGID_1_);}
	.st1{fill:url(#SVGID_2_);}
	.st2{fill:url(#SVGID_3_);}
	.st3{fill:#FFFFFF;}
	.st4{fill:#3A67A5;}
	.st5{fill:url(#SVGID_4_);}
	.st6{fill:url(#SVGID_5_);}
	.st7{fill:url(#SVGID_6_);}
	.st8{fill:url(#SVGID_7_);}
	.st9{fill:url(#SVGID_8_);}
	.st10{fill:url(#SVGID_9_);}
	.st11{fill:url(#SVGID_10_);}
	.st12{fill:url(#SVGID_11_);}
</style>
<g>
	<g>
		
			<linearGradient id="SVGID_1_" gradientUnits="userSpaceOnUse" x1="175.0522" y1="64.2892" x2="56.132" y2="183.2092" gradientTransform="matrix(1 0 0 -1 0 239.019)">
			<stop  offset="0" style="stop-color:#4475B9"/>
			<stop  offset="1" style="stop-color:#2AC4F3"/>
		</linearGradient>
		<path class="st0" d="M153.5,129.1c-1.1,0-11.8,0.3-18.4,6.9c-3.9,3.9-5.8,9.5-5.8,17.1v63.4c44.3-8.2,79.3-43.2,87.5-87.5h-63.4
			V129.1z"/>
		
			<linearGradient id="SVGID_2_" gradientUnits="userSpaceOnUse" x1="176.1404" y1="65.3775" x2="57.2204" y2="184.2975" gradientTransform="matrix(1 0 0 -1 0 239.019)">
			<stop  offset="0" style="stop-color:#4475B9"/>
			<stop  offset="1" style="stop-color:#2AC4F3"/>
		</linearGradient>
		<path class="st1" d="M69.3,89.5c1.1,0,11.8-0.3,18.4-6.9c3.9-3.9,5.8-9.5,5.8-17.1v-65C46.8,7.3,9.7,43.2,1.5,89.5H69.3z"/>
		
			<linearGradient id="SVGID_3_" gradientUnits="userSpaceOnUse" x1="175.0746" y1="64.3116" x2="56.1546" y2="183.2318" gradientTransform="matrix(1 0 0 -1 0 239.019)">
			<stop  offset="0" style="stop-color:#4475B9"/>
			<stop  offset="1" style="stop-color:#2AC4F3"/>
		</linearGradient>
		<path class="st2" d="M100.9,153.2c0-10.6,2.6-26,14.3-37.6c15-14.7,35.5-15,38.5-15h64.6C214.6,48.2,173.8,6,121.9,0v65.3
			c0,10.6-2.6,26-14.3,37.6c-14.5,14.2-34.2,15-38.2,15c-0.2,0-0.2,0-0.3,0H0c4.4,53.5,47.2,96.2,100.9,100.3V153.2z"/>
	</g>
	<g>
		<g>
			<g>
				<path class="st3" d="M361,56.2c-0.3-0.6-0.8-1.5-1.5-2.1c-1-1.1-1.9-2.1-2.6-2.6c-1.1-0.8-3.4-2.6-4.2-4
					c-11.3,0.5-20.8,3.7-28.2,7.7c-0.2,0.2-0.3,0.2-0.5,0.3l-13.5,9.5c-3.9,3.4-6,6-6,6c-0.2-0.3-0.5-1,0-1.9
					c3.4-5.2,7.3-13.2,8.9-17.1l-1.6-0.6l0.5-2.4c0-0.2,0-0.3,0-0.3c-1.6,0-5-3.9-5.6-5.8l-0.2-0.2h-0.5c-3.9,0-13.9,10.2-27.7,31.9
					l0,0c0,0.1-0.1,0.1-0.1,0.2c-0.4,0.7-0.9,1.4-1.4,2.2c-0.1,0.1-0.1,0.2-0.2,0.3c-0.5,0.7-1,1.5-1.5,2.3
					c-8.1,12.3-21.3,30.5-28.5,36.5c-0.6,0.5-1,0.9-1.3,1.1l0,0c-0.6,0.5-1.2,1.1-1.8,1.7c-0.6,0.6-1.3,1.1-1.9,1.6
					c-1,0.8-1.9,1.6-3.1,2.4c-0.6,0.5-1.3,1-1.9,1.5c-2.1,1.5-4,2.7-6.1,3.9c-5.5,3.2-11.4,5-16.8,5c-6.1,0-10.8-2.3-12.7-6.4
					c0,0-1.8-2.9-1.8-4.4c0-2.7,26.3-31.3,31.3-36.4c9.7-9.8,17.1-16.1,30.1-25.8c11.1-8.2,11.8-10.5,11.9-10.5c0-1,0.8-2.3,1.6-3.1
					c-0.2-0.2-0.2-0.8-0.2-1.1c-1.6-0.5-3.4-2.4-3.5-2.6c-1.6-1.6-1.8-1.8-5.6-1.9h-0.6c-4.5,0-7.4,1-16,6.3
					c-11.1,7.1-25.8,19.8-42.7,37.1l-9.5,10l-2.9-1.3l0.5-6.1l0.3-2.6c0.6-4,1.5-10,2.4-15c1.9-10.3,1.8-10.6,1.1-11.8
					c-0.3-0.5-0.8-1-1-1.1c-2.1-0.6-4.4-3.9-5.2-5.2c-0.5-0.8-1.6-1.3-2.7-1.3c-0.5,0-0.8,0-1.1,0.2c-0.2,0.2-0.3,0.2-0.5,0.3
					c-0.2,0.2-0.3,0.3-0.5,0.5c-0.5,0.5-0.8,1.1-1.3,1.9c-0.2,0.3-0.3,0.6-0.5,1c0,0.2-0.2,0.2-0.2,0.3c-0.2,0.3-0.3,0.8-0.5,1.1
					c0,0.2,0,0.2-0.2,0.3c-0.2,0.5-0.3,1-0.6,1.5c-0.2,0.3-0.2,0.6-0.3,1c-0.2,0.3-0.2,0.6-0.3,1c-0.2,0.6-0.5,1.3-0.6,1.9
					c-0.2,0.6-0.5,1.5-0.6,2.1c-0.2,0.6-0.3,1.3-0.5,2.1c-0.3,1.5-0.6,3.1-1,4.7c-0.2,0.8-0.3,1.6-0.5,2.4s-0.2,1.5-0.3,2.3
					c-0.2,0.5-0.2,1.1-0.2,1.6s-0.2,0.8-0.2,1.3c0,0.3,0,0.6-0.2,1.5c0,0.3,0,0.8-0.2,1.1v0.6c0,0.3,0,0.8-0.2,1.1
					c0,0.1,0,0.2,0,0.4h-0.1c0,0.3,0,0.5,0,0.8l-0.3,0.9c-0.2,0.2-0.4,0.5-0.5,0.6c-0.3,0.4-0.6,0.7-0.9,1.1c0,0.2-0.2,0.2-0.3,0.3
					c-4.8,6.2-10.4,12.7-16,18.9c-9.3,10.2-18.7,19.4-24.8,23.7c-10.5,7.7-20.6,11.8-29.2,11.8h-0.6c-5.6,0-7.7-0.6-9.7-4.4
					c-2.7-6.1-2.4-11.6,1.1-22.1c0.2-0.7,0.5-1.5,0.8-2.2c0.1-0.2,0.2-0.5,0.4-0.7c0.5-0.9,1.2-1.5,2.4-1.5c0.5,0,1,0.2,1.5,0.3
					c1.1,0.5,2.9,0.6,5,0.6c0.4,0,0.9,0,1.3,0c2.1-0.1,4.3-0.5,6.1-1c0.4-0.1,0.7-0.2,1-0.4c0.3-0.1,0.6-0.3,0.9-0.4
					c3.5-1.5,7.6-4.1,11.7-7.4c6.8-5.4,13.8-12.6,18.5-19.4c3.9-5.6,6.8-13.7,7.6-21.1c0.1-0.8,0.1-1.5,0.1-2.2
					c0-2.1-0.3-3.9-0.9-5.5c-0.2-0.5-0.4-1-0.7-1.5c-0.8-1.4-2-2.7-3.5-3.8c-0.1-0.1-0.3-0.2-0.4-0.4c-1.1-1-3.3-3-4.2-4l-0.2-0.2
					c-1.2-1.7-3.7-2.9-6.8-3.3c-1-0.1-2.2-0.2-3.3-0.2c-3.1,0-6.6,0.6-9.8,1.8c-11.1,4-24.8,16.1-34.3,29.8
					c-8.4,12.3-13.5,23.4-15.4,33.1c-1.9,9.7-0.6,18.1,3.9,25.1c1.3,1.9,2.8,3.9,4.3,5.6c1,1.2,2.1,2.2,3.1,3.2
					c1.6,1.4,3,2.5,4.3,3.1c0.5,0.2,1,0.5,1.5,0.9c1.6,1,3.4,2.2,4.6,3c1.3,1.1,4,2.6,5.8,3.1c2.9,1,5.6,1.3,8.4,1.3
					c4.5,0,9.2-1.3,14.5-3.5c14-6.6,32.4-25,50.8-50.5l1.1-1.5l0.4-0.6l1-1.3c0,0.8,0.1,1.6,0.3,2.4c0,0,0,0.1,0,0.1V96
					c0,0.3,0.2,0.6,0.2,1c0.3,1.9,0.6,3.5,0.8,4.7c0.2,0.6,0.3,1,0.3,1c0.2,0.6,0.3,1.3,0.6,1.9l1.8,5.6l-0.3,1.5l-4.5,5.3
					c-12.7,16.1-20.5,30-20.6,36.9c0,2.6,1.9,5.3,4.2,5.6c1.8,0.2,3.4,1.5,4.2,2.1l0.3,0.3c0.2,0.3,0.5,0.8,0.8,0.8
					c0.2,0,1-0.2,2.3-1.5c1-1,4.5-5.6,8.7-11.8c7.3-10.3,12.6-17.7,14.7-19.7l0.2,0.2l1.1-0.6c0.5,0,1.8,0,6.9,5
					c5.8,5.6,9.5,7.6,15.8,8.4h2.1c1,0,1.8,0,2.7-0.2c0.6,0,1.1-0.2,1.8-0.3c0.3-0.2,0.8-0.2,1.1-0.3c0.2,0,0.3-0.2,0.5-0.2
					c0.5-0.2,1-0.3,1.5-0.5c3.2-1.1,6.6-3.1,10.3-6c0.5-0.3,0.8-0.6,1.3-1c1.5-1.1,3-2.4,4.6-3.9c0.9-0.8,1.8-1.7,2.8-2.6l2-2v-0.3
					c4.2-4.4,9.5-10.1,10.9-11.5c-0.7,0.8-2.6,3.2-4.8,6.9c0.4-0.7,0.7-1.4,1.1-2.2c0.2-0.3,0.3-0.6,0.5-1.1
					c-1.1,2.3-3.2,6.2-4.4,8.5c-0.1,0.2-0.2,0.5-0.3,0.7c0.1-0.2,0.3-0.4,0.4-0.6c0,0,0,0,0-0.1h0.1c-0.9,2-1.8,4.2-2.7,6.7
					c0,0.1,0,0.1,0,0.2c-2,5.2-3.7,10.1-5,15.2c-4,15.5-4.4,18.4-4.5,31.1c0,15.5,0.8,19,5.5,23.5c1.8,2.1,4.4,4,5.3,4.4
					c1.5,0.5,3.7,1.8,4.8,2.6c0,0-3.8-41.7,17.9-83.6c1.9-3.7,4-7.4,6.4-11c7.2-11.3,16.5-22.3,28.5-32.3c2.6-2.7,5.5-5.8,6.9-6.9
					c1.3-1.3-0.2,0.6-3.5,4.2c6.6-5.2,14-10,22.4-14.3c3.9-2.9,7.9-5.5,9.4-5.5c0.5,0,1,0.2,1.3,0.5c1.1,1,1.9,1.8-5.6,14.7
					c-4.4,7.4-9.8,16-14.5,22.6c-9,12.9-14,18.9-23.2,27.9c-6.3,6-9.2,8.5-13.9,10.6c-2.7,1.1-4.8,2.4-5.2,2.9c0,0,0,0,0-0.2
					l-0.3,0.3c-0.8,0.6-2.3,0.8-2.7,0.8h-0.2c-0.2,0-0.5,0.2-0.6,0.3c0.3,0.3,1.1,1.1,3.7,2.6c4.5,2.6,5.3,3.1,10.6,4.7
					c2.7,1,5.3,1.3,7.9,1.3c3.1,0,6.3-0.8,9.5-2.1c1-0.5,2.1-1,3.1-1.6c12.9-7.7,31.6-29.8,42.4-50.9c0.6-1.3,1.3-2.4,1.8-3.5
					C362.6,75.2,364.6,63.5,361,56.2z M114.2,81.5c10.2-14.3,20.2-24.8,26.8-28.1c1.1-0.5,1.9-0.8,2.6-0.8c0.8,0,1.5,0.3,1.9,1
					c1,1.3,0.8,3.1-0.5,8.4c-3.5,16.8-17.1,33.5-32.9,40.9c-2.9,1.3-5.6,2.1-7.4,2.1c-1,0-1.8-0.2-2.3-0.8c-0.3-0.3-0.6-1-0.6-1.5
					C102,100.7,111.6,85.1,114.2,81.5z"/>
				<path class="st3" d="M255.5,213l-2.7-1.9c-1.1-0.8-3.2-2-4.4-2.4c-1.4-0.5-4.2-2.7-5.9-4.7c-5.2-5-5.9-9.5-5.9-24.6
					c0.2-12.8,0.5-15.7,4.6-31.5c1.2-4.8,2.8-9.7,5-15.3c0.7-2.2,1.6-4.3,2.4-6.2l-0.1-0.1c0-0.1,0.1-0.2,0.1-0.2
					c-0.1,0.1-0.2,0.2-0.2,0.2v0.3l-2.4,2.4c-1,1-2,1.8-2.9,2.6c-1.5,1.3-3,2.6-4.7,3.9l-0.1,0.1c-0.2,0.1-0.4,0.3-0.5,0.4
					c-0.2,0.2-0.4,0.4-0.7,0.5c-3.8,3-7.3,5-10.7,6.2l-1.6,0.5c-0.1,0-0.2,0.1-0.4,0.1c-0.3,0.1-0.5,0.1-0.7,0.2
					c-0.1,0-0.2,0-0.2,0.1l-0.3,0.1l-0.3,0.1c-0.5,0.1-1,0.3-1.7,0.3c-1,0.2-1.9,0.2-2.9,0.2l-2.3,0c-6.6-0.9-10.7-3-16.7-8.8
					c-3.5-3.4-5.1-4.3-5.6-4.5l-1.2,0.7c-2.5,2.8-8.2,10.8-13.8,18.8c-4.2,6.1-7.8,10.9-8.9,12c-1.7,1.7-2.9,1.9-3.3,1.9
					c-0.8,0-1.5-0.5-2-1.4l-0.1-0.1c-0.7-0.6-2-1.6-3.3-1.7c-3-0.4-5.6-3.8-5.6-7.1c0.2-7.3,8-21.5,21-37.8l4.3-5.1l0.2-0.7
					l-1.6-5.2c-0.3-0.7-0.5-1.4-0.7-2c-0.1-0.2-0.2-0.6-0.4-1.1l0-0.2c-0.1-0.6-0.2-1.4-0.4-2.3c-0.1-0.7-0.3-1.5-0.4-2.4l0-0.2
					c0,0,0-0.1,0-0.1c0-0.2-0.1-0.4-0.1-0.7l-0.2,0.3c-18.5,25.7-37.3,44.3-51.3,50.9c-5.9,2.5-10.7,3.7-15.1,3.7
					c-3.2,0-6.1-0.4-8.9-1.4c-1.9-0.5-4.8-2-6.3-3.3c-1.7-1.2-3.2-2.2-4.4-2.9c-0.5-0.3-1-0.6-1.5-0.8c-1.3-0.6-2.9-1.8-4.7-3.4
					c-1.1-1-2.2-2.1-3.2-3.3c-1.6-1.8-3.2-3.8-4.5-5.8c-4.7-7.3-6.1-16.2-4.2-26.2c1.9-9.9,7.2-21.2,15.6-33.6
					C98.4,56.2,112.5,44,123.7,40c3.4-1.2,7.1-1.9,10.3-1.9c1.2,0,2.4,0.1,3.5,0.2c3.6,0.5,6.3,1.9,7.8,3.8l0.1,0.1
					c1,1,3.1,3,4.2,3.9l0,0c0.1,0.1,0.3,0.2,0.4,0.3c1.7,1.3,2.9,2.6,3.8,4.2c0.3,0.6,0.6,1.1,0.8,1.7c0.7,1.7,1,3.7,1,6
					c0,0.8,0,1.5-0.1,2.4c-0.8,7.7-3.8,16-7.8,21.8c-4.6,6.7-11.7,14.1-18.8,19.7c-4.3,3.4-8.5,6-12,7.6c-0.3,0.1-0.6,0.3-1,0.4
					c-0.4,0.2-0.8,0.3-1.1,0.4c-1.9,0.6-4.2,0.9-6.5,1.1c-0.5,0-0.9,0-1.4,0c-2.5,0-4.3-0.2-5.5-0.7c-0.3-0.1-0.7-0.2-0.9-0.2
					c-0.4,0-0.7,0.1-1.1,0.7c-0.1,0.2-0.2,0.3-0.3,0.5c-0.3,0.6-0.5,1.2-0.7,1.7l-0.1,0.4c-3.4,10.2-3.7,15.3-1.2,21
					c1.5,2.9,2.9,3.5,8.3,3.5h0.6c8.3,0,18.1-4,28.3-11.5c5.6-4,14.8-12.8,24.5-23.5c5.6-6.2,11.1-12.7,16-18.8l0.1-0.1
					c0.1-0.1,0.1-0.1,0.2-0.2c0.2-0.3,0.5-0.6,0.7-0.9l0.3-0.3c0.1-0.1,0.2-0.3,0.3-0.4l0.2-0.5c0-0.1,0-0.1,0-0.2
					c0-0.1,0-0.2,0-0.4v-1.5h0.3v-1l0.2-0.3c0,0,0-0.3,0-0.5l0-0.3c0.1-0.7,0.1-0.9,0.1-1.2c0-0.4,0.1-0.7,0.1-0.9
					c0-0.1,0.1-0.2,0.1-0.4c0-0.6,0-1.3,0.2-2c0.1-0.3,0.1-0.6,0.1-0.9c0-0.4,0.1-0.8,0.2-1.3l0.5-2.4c0.3-1.6,0.6-3.2,1-4.7
					c0.2-0.8,0.3-1.5,0.5-2.1c0.1-0.4,0.2-0.8,0.4-1.2c0.1-0.3,0.2-0.7,0.3-0.9c0.1-0.4,0.2-0.8,0.4-1.1c0.1-0.3,0.2-0.5,0.3-0.8
					l0.1-0.3c0-0.1,0-0.1,0-0.2c0.1-0.2,0.1-0.5,0.3-0.8c0-0.1,0-0.1,0-0.2c0.1-0.2,0.1-0.5,0.3-0.8l0.1-0.2
					c0.2-0.3,0.3-0.7,0.5-1.1l0.1-0.3l0.1-0.2c0.1-0.1,0.1-0.3,0.2-0.5c0.1-0.2,0.1-0.3,0.2-0.5c0-0.2,0.1-0.3,0.2-0.5l0.8-1.6
					c0.4-0.6,0.7-1.2,1.2-1.8l0.5-0.5c0.2-0.2,0.4-0.3,0.6-0.4l0.1-0.1l0.2-0.1c0.6-0.3,1.2-0.3,1.8-0.3c1.7,0,3.3,0.8,4,2
					c1.2,1.9,3,4.1,4.3,4.5l0.4,0.1l0.3,0.3c0.3,0.3,0.8,0.8,1.2,1.4l0.1,0.1c0.9,1.6,1,2.2-1,12.8c-0.7,3.5-1.3,7.4-1.8,10.9
					c-0.2,1.5-0.4,2.8-0.6,4l-0.3,2.5l-0.4,5l1,0.4l8.8-9.2c17-17.3,31.8-30.2,43-37.3c8.4-5.2,11.7-6.5,16.8-6.5h0.6
					c4.1,0.2,4.7,0.4,6.7,2.4l0.1,0.1c1.1,1.1,2.1,1.9,2.8,2.1l1.1,0.3v1.1c0,0.1,0,0.2,0,0.4l0.8,0.8l-1.1,1.1
					c-0.7,0.7-1.2,1.7-1.2,2v1.5h-0.8c-1.9,2.4-5.8,5.8-11.8,10.2c-13.2,9.8-20.5,16-30,25.6c-6.8,7-29.5,32-30.8,35.5
					c0.1,0.7,0.8,2.3,1.5,3.5l0.1,0.2c1.6,3.5,5.8,5.6,11.4,5.6c5.1,0,10.8-1.7,16-4.8c2-1.1,3.8-2.3,6-3.8l1.9-1.4
					c1.1-0.8,2-1.5,3-2.4l0.1-0.1c0.6-0.5,1.2-0.9,1.8-1.5c0.3-0.3,0.6-0.5,0.9-0.8c0.3-0.3,0.7-0.6,1-0.9c0.3-0.3,0.7-0.7,1.4-1.2
					c6.6-5.6,19.1-22.4,28.2-36.2c0.5-0.8,1-1.5,1.4-2.2c0.1-0.1,0.1-0.3,0.2-0.4c0.5-0.7,0.9-1.4,1.3-2.1l0.1-0.1l1.1-2.1l0.1,0.2
					c12.4-19.3,22.7-30.7,27.8-30.7h1.1L308,42l0.1,0.3c0.5,1.6,3.3,4.6,4.3,4.8h1.5l-0.1,2.1l-0.2,1.2l1.9,0.7l-0.6,1.4
					c-1.2,2.8-3.3,7.4-5.7,11.7c0.1-0.1,0.3-0.2,0.4-0.4l0.1-0.1l13.5-9.5c0.2-0.2,0.3-0.2,0.5-0.3l0.1-0.1l0.2-0.1
					c8.9-4.8,18.6-7.5,28.9-7.9l0.9,0l0.4,0.8c0.5,1,2.3,2.5,3.8,3.5c0.8,0.6,1.8,1.6,2.8,2.8c0.6,0.6,1.2,1.5,1.7,2.4l0,0
					c3.8,7.7,2,19.5-5.5,36.3c-0.3,0.8-0.7,1.5-1.2,2.4c-0.2,0.4-0.4,0.8-0.6,1.2c-10.7,20.9-29.5,43.5-43,51.6
					c-0.8,0.5-1.7,0.9-2.5,1.3c-0.2,0.1-0.5,0.2-0.7,0.3l-0.1,0.1c-3.7,1.5-7,2.2-10.1,2.2c-3.1,0-5.7-0.4-8.4-1.4
					c-5.3-1.6-6.3-2.1-10.7-4.7l-0.2-0.1c-0.2-0.1-0.4-0.2-0.5-0.3l-0.1,0.1v-0.1c-2.3-1.3-3.1-2.1-3.4-2.5l-1.1-1.1l1.1-1.1
					c0.4-0.4,1.1-0.8,1.7-0.8h0.2c0.5,0,1.4-0.2,1.8-0.4l2.8-2.8v0.9c1.1-0.6,2.2-1.1,3.1-1.5c4.4-2,7-4.3,13.4-10.3
					c9.2-9,14.1-15,23-27.7c4.6-6.5,10-14.9,14.4-22.5c5.7-9.7,6.3-12.1,6.2-12.6c0,0-0.1-0.1-0.2-0.2l-0.1-0.1c0,0-0.1,0-0.2,0
					c-0.7,0-3.5,1.5-8.5,5.2l-0.2,0.1c-7.9,4.1-15.4,8.9-22.2,14.2l-0.4-0.4c-1,1-2,2.1-2.8,3l-0.1,0.1c-11,9.1-20.5,19.9-28.1,31.9
					c-2.3,3.6-4.4,7.2-6.3,10.9c-21.3,41-17.8,82.3-17.7,82.8L255.5,213z M249,133.4c0,0.1,0,0.1-0.1,0.2
					c-2.2,5.6-3.8,10.4-4.9,15.1c-4,15.4-4.3,18.3-4.5,30.8c0,15.1,0.7,18.3,5,22.4l0.1,0.1c1.7,2,4.1,3.7,4.6,3.9
					c0.8,0.3,1.8,0.7,2.7,1.2c-0.4-10.3-0.2-46.1,18.2-81.5c2-3.8,4.1-7.5,6.4-11.1c7.8-12.3,17.5-23.2,28.7-32.6c2.8-3,5.5-5.8,7-7
					c1-0.9,1.8-1,2.5-0.3c0,0,0,0,0,0c5.2-3.7,10.8-7,16.5-10c5.1-3.8,8.5-5.7,10.2-5.7c0.9,0,1.7,0.3,2.3,0.9
					c2.1,1.9,2.2,3.7-5.4,16.5c-4.5,7.6-9.9,16.1-14.6,22.7c-9,12.9-14,18.9-23.4,28.1c-6.1,5.8-9.3,8.7-14.3,10.9
					c-2.5,1-4.2,2.1-4.6,2.4l-1,1.5c0.1,0.1,0.2,0.1,0.3,0.2l0.2,0.1c4.3,2.4,5,2.9,10.1,4.4c2.4,0.8,4.7,1.2,7.5,1.2
					c2.6,0,5.6-0.7,8.9-2c0.2-0.1,0.5-0.2,0.7-0.3c0.7-0.4,1.5-0.7,2.1-1.1c13.1-7.8,31.5-30,41.9-50.4c0.2-0.4,0.4-0.9,0.7-1.3
					c0.4-0.8,0.8-1.5,1.1-2.2c7-15.6,8.8-27,5.5-33.7c-0.3-0.7-0.8-1.3-1.2-1.7l-0.1-0.1c-1.1-1.2-1.9-2-2.3-2.4
					c-0.9-0.6-2.9-2.1-4.1-3.7c-9.5,0.5-18.4,3-26.6,7.4c-0.1,0.1-0.3,0.2-0.4,0.2l0,0l-13.6,9.5c-3.7,3.2-5.7,5.7-5.7,5.7l-1.5,1.8
					l-1-2.1c-0.2-0.4-0.8-1.6,0-3.3l0.1-0.2c2.9-4.4,6.3-11.2,8.1-15.4l-1.3-0.5l0.5-2.7c-2-1.1-4.1-3.7-5-5.4
					c-3.1,0.7-12.1,9.2-26,31.1c0,0.1-0.1,0.1-0.1,0.2l-0.1,0.2c-0.4,0.6-0.8,1.3-1.2,1.9L278,78c-0.5,0.7-1,1.5-1.5,2.3
					c-7.4,11.3-21.2,30.4-28.7,36.8c-0.5,0.4-0.9,0.8-1.1,1l-0.1,0.1c-0.4,0.4-0.7,0.7-1.1,1c-0.3,0.2-0.5,0.5-0.8,0.7
					c-0.7,0.7-1.4,1.2-2,1.7c-0.9,0.8-1.9,1.6-3.1,2.4l-1.9,1.4c-2.3,1.6-4.2,2.9-6.3,4c-5.7,3.3-11.9,5.2-17.5,5.2
					c-6.8,0-11.9-2.6-14.1-7.2c-0.5-0.8-1.9-3.4-1.9-5.1c0-4,31.4-37.2,31.7-37.5c9.6-9.7,16.9-16,30.3-26c5.9-4.3,9.9-7.8,11.4-9.9
					c0.2-1,0.7-1.9,1.3-2.7c-1.1-0.6-2.2-1.6-2.9-2.4c-1.4-1.4-1.4-1.4-4.7-1.5l-0.6,0c-4.1,0-6.8,0.8-15.2,6.1
					c-11,7-25.6,19.7-42.4,36.9l-10.2,10.7l-4.8-2.1l0.6-7.2l0.3-2.6c0.2-1.2,0.4-2.6,0.6-4.1c0.5-3.5,1.1-7.5,1.8-11
					c1.8-9.5,1.7-10.1,1.3-10.7c-0.2-0.2-0.4-0.5-0.5-0.6c-2.5-1-4.7-4.3-5.6-5.7c-0.2-0.3-0.8-0.6-1.5-0.6c-0.1,0-0.3,0-0.4,0
					c-0.1,0.1-0.2,0.1-0.2,0.1l-0.4,0.4c-0.2,0.2-0.5,0.6-0.8,1.1l-0.3,0.4l-0.4,0.8c0,0.1-0.1,0.3-0.2,0.5l0,0
					c-0.1,0.1-0.1,0.3-0.2,0.4c-0.1,0.1-0.1,0.3-0.2,0.4c-0.1,0.3-0.2,0.5-0.3,0.7c-0.1,0.4-0.3,0.9-0.6,1.4c0,0,0,0.1,0,0.1
					c-0.1,0.2-0.1,0.5-0.3,0.8c0,0.1,0,0.1,0,0.2c0,0.2-0.1,0.4-0.2,0.6c-0.1,0.4-0.2,0.7-0.3,1c-0.1,0.3-0.2,0.5-0.3,0.8
					c-0.1,0.4-0.2,0.8-0.4,1.2c-0.1,0.3-0.2,0.6-0.3,0.9c-0.2,0.6-0.3,1.2-0.5,2c-0.3,1.5-0.6,3.1-1,4.7l-0.5,2.4
					c-0.1,0.4-0.1,0.7-0.1,1c0,0.4-0.1,0.8-0.2,1.3l0,0.2c-0.1,0.3-0.1,0.8-0.1,1.1c0,0.4-0.1,0.7-0.1,0.9c0,0.1-0.1,0.2-0.1,0.4
					c0,0.4,0,0.8-0.2,1.6c0,0.3,0,0.8-0.2,1.3v0.4c0,0.4,0,0.9-0.2,1.5c0,0,0,0,0,0v1.5h-0.3l-0.3,0.9l-0.2,0.2
					c-0.2,0.3-0.4,0.5-0.6,0.7l-0.2,0.3c-0.1,0.2-0.3,0.4-0.5,0.5c-0.1,0.2-0.3,0.5-0.6,0.7c-4.8,6.1-10.3,12.6-16,18.8
					c-10,11-19.1,19.7-25,23.9c-10.7,7.9-21.1,12.1-30.1,12.1h-0.6c-5.9,0-8.7-0.7-11-5.2c-2.9-6.5-2.6-12.4,1-23.3l0.1-0.4
					c0.2-0.6,0.4-1.4,0.8-2c0.1-0.3,0.3-0.6,0.4-0.8c1.1-1.8,2.6-2.2,3.6-2.2c0.7,0,1.4,0.2,1.9,0.4l0.1,0c0.8,0.3,2.3,0.5,4.4,0.5
					c0.4,0,0.8,0,1.2,0c2-0.1,4.1-0.4,5.7-0.9c0.3-0.1,0.6-0.2,0.9-0.3c0.3-0.1,0.6-0.2,0.8-0.3c3.3-1.4,7.3-3.9,11.4-7.2
					c6.9-5.5,13.7-12.6,18.2-19.1c3.7-5.4,6.5-13.3,7.3-20.4c0.1-0.7,0.1-1.4,0.1-2.1c0-2-0.3-3.6-0.8-5c-0.2-0.5-0.4-0.9-0.6-1.3
					c-0.7-1.2-1.7-2.3-3.1-3.4l-0.2-0.1c-0.1-0.1-0.1-0.1-0.2-0.2l-0.1-0.1c-1.2-1-3.3-3.1-4.4-4.1L143,44c-0.9-1.3-3.1-2.3-5.8-2.7
					c-1-0.1-2.1-0.2-3.1-0.2c-2.9,0-6.3,0.6-9.3,1.7c-10.6,3.8-24.1,15.6-33.6,29.3c-8.2,12-13.3,23-15.2,32.5
					c-1.8,9.3-0.5,17.4,3.7,24c1.2,1.8,2.6,3.7,4.2,5.4c1,1.1,2,2.1,3,3.1c1.5,1.4,2.9,2.4,4,2.9c0.6,0.3,1.1,0.6,1.7,0.9
					c1.3,0.8,2.9,1.8,4.7,3.1l0.1,0.1c1.1,1,3.7,2.3,5.2,2.7c2.6,0.9,5.1,1.2,8,1.2c4,0,8.4-1.1,13.9-3.4
					c13.6-6.4,31.9-24.6,50.2-50l5.2-6.8l0.1,4.3c0,0.7,0.1,1.3,0.3,2.1l0,0.4V96c0,0,0,0.1,0,0.1c0,0.2,0.1,0.4,0.1,0.7
					c0.1,0.8,0.3,1.6,0.4,2.2c0.2,0.9,0.3,1.7,0.4,2.3c0.1,0.4,0.2,0.6,0.2,0.6l0.1,0.3c0.2,0.6,0.3,1.1,0.5,1.6l0.1,0.2l1.9,6
					l-0.5,2.2l-4.8,5.6c-12.3,15.6-20.1,29.4-20.3,36c0,1.9,1.4,3.9,2.9,4.1c2.1,0.2,4,1.7,4.9,2.4l0.1,0.1l0.4,0.4
					c0.2-0.2,0.5-0.4,0.9-0.7c0.8-0.8,4.2-5.3,8.5-11.6c8-11.4,12.8-18,14.9-19.9l1.1-1l0.4,0.4l0.5-0.3h0.4c1.2,0,2.8,0.4,8,5.4
					c5.5,5.4,8.9,7.2,14.9,8h2c0.9,0,1.6,0,2.5-0.1l0.2,0c0.3,0,0.6-0.1,1.1-0.2l0.2-0.1c0.3-0.1,0.5-0.2,0.8-0.2
					c0.1,0,0.2,0,0.2-0.1l0.3-0.2l0.1,0c0.1,0,0.2-0.1,0.4-0.1l1.3-0.4c3.1-1.1,6.3-3,9.9-5.7l0.1-0.1c0.2-0.1,0.4-0.3,0.5-0.4
					c0.2-0.2,0.4-0.3,0.7-0.5c1.6-1.3,3.1-2.5,4.5-3.8c0.9-0.8,1.8-1.7,2.8-2.6l1.5-1.5V125l0.4-0.4c3.1-3.2,6.8-7.2,9.1-9.6
					c0.8-0.8,1.4-1.5,1.8-1.9l2.2,2c-0.9,1-2.6,3.3-4.6,6.7l-0.1,0c-0.2,0.5-0.5,0.9-0.7,1.4c-0.4,0.7-0.7,1.4-1.1,2.1l-0.7,1.7
					C250.6,128.9,249.8,131.1,249,133.4z M281.7,140.4L281.7,140.4C281.7,140.4,281.7,140.4,281.7,140.4z M180.2,94.5l0,0.1
					C180.2,94.6,180.2,94.5,180.2,94.5z M104.7,106.6c-1,0-2.4-0.1-3.4-1.3c-0.5-0.5-1-1.5-1-2.4l0-0.1c0.2-2.8,10.8-19.5,12.7-22
					c10.3-14.5,20.5-25.2,27.3-28.5c1.4-0.6,2.3-1,3.2-1c1.3,0,2.4,0.5,3.1,1.6c1.4,1.9,1,4.4-0.2,9.6c-3.6,17.1-17.5,34.3-33.7,42
					C110.9,105.2,107.3,106.6,104.7,106.6z M103.3,102.9c0,0.1,0.1,0.3,0.2,0.3l0.1,0.2c0,0.1,0.2,0.2,1.1,0.2c1.5,0,4-0.7,6.8-2
					c15.4-7.2,28.6-23.6,32-39.9c1.1-4.7,1.3-6.4,0.8-7.2c-0.2-0.3-0.4-0.4-0.7-0.4c-0.4,0-1.3,0.4-2,0.7
					c-6.3,3.1-16.1,13.4-26.1,27.5l0,0C112.5,86.4,103.9,100.6,103.3,102.9z"/>
			</g>
			<g>
				<path class="st3" d="M257.5,216.6l-5.7-4.1c-1-0.7-2.9-1.8-4-2.1c-1.9-0.6-4.9-3.2-6.7-5.2c-5.6-5.5-6.4-10.2-6.4-25.7
					c0.2-12.9,0.5-16.1,4.6-31.9c1.1-4.5,2.6-9.2,4.7-14.5c-1.5,1.3-3,2.6-4.7,4l-0.2,0.1c-0.2,0.1-0.3,0.2-0.4,0.3
					c-0.2,0.2-0.5,0.4-0.8,0.6c-3.9,3-7.6,5.1-11.2,6.4l-1.6,0.5c-0.1,0.1-0.3,0.1-0.5,0.2c-0.3,0.1-0.6,0.2-0.8,0.2l-0.7,0.2
					c-0.5,0.1-1.2,0.3-2,0.3c-1.1,0.2-2.1,0.2-3,0.2l-2.5,0c-7.1-0.9-11.4-3.2-17.6-9.3c-2.3-2.3-3.7-3.3-4.4-3.8l-0.1,0.1
					c-2.8,3.2-9.4,12.6-13.5,18.4c-3.9,5.6-7.8,10.9-9.1,12.2c-2,2-3.6,2.4-4.5,2.4c-1.3,0-2.5-0.7-3.4-2c-0.6-0.4-1.5-1.2-2.3-1.2
					l-0.2,0c-3.8-0.5-7-4.6-7-8.8c0.3-11.1,15-30.9,21.3-38.9l4-4.7l-1.4-4.5c-0.3-0.8-0.5-1.5-0.7-2.1c-0.1-0.3-0.3-0.7-0.4-1.2
					l-0.1-0.3c-0.1-0.5-0.2-1-0.3-1.7c-18.2,24.7-35.8,41.9-49.8,48.5c-6.2,2.6-11.2,3.9-15.9,3.9c-3.4,0-6.4-0.5-9.3-1.4
					c-2.2-0.6-5.2-2.2-6.8-3.6c-1.7-1.2-3.1-2.1-4.2-2.8c-0.5-0.3-0.9-0.5-1.4-0.7c-1.5-0.7-3.2-1.9-5-3.6c-1.2-1.1-2.3-2.2-3.4-3.4
					c-1.7-1.9-3.3-4-4.6-6c-5-7.7-6.5-17-4.4-27.5c2-10.2,7.3-21.7,15.9-34.3c10.2-14.6,24.3-26.8,35.9-31c3.6-1.3,7.5-2,10.9-2
					c1.3,0,2.5,0.1,3.8,0.3c4,0.6,7.1,2.1,8.8,4.4c0.9,0.9,2.9,2.8,4.1,3.9c0.1,0.1,0.2,0.2,0.4,0.3c1.8,1.4,3.2,2.9,4.2,4.7
					c0.4,0.6,0.7,1.3,0.9,2c0.7,1.9,1.1,4,1.1,6.6c0,0.8,0,1.6-0.1,2.5c-0.9,8-4,16.6-8.1,22.7c-4.8,7-11.8,14.3-19.1,20.1
					c-4.4,3.5-8.7,6.2-12.4,7.8c-0.3,0.1-0.7,0.3-1.1,0.5c-0.3,0.1-0.8,0.3-1.2,0.4c-1.9,0.6-4.4,1-6.8,1.1c-0.5,0-1,0-1.4,0
					c-2.8,0-4.7-0.3-6.1-0.9c0,0,0,0,0,0c0,0,0,0,0,0.1c-0.2,0.5-0.4,1.1-0.6,1.6l-0.1,0.4c-3.3,9.7-3.6,14.5-1.3,19.7
					c1,1.9,1.4,2.5,6.8,2.5h0.6c7.9,0,17.5-4,27.3-11.1c5.6-4,14.6-12.7,24.3-23.3c5.6-6.1,11.1-12.6,15.9-18.7l0.3-0.3
					c0,0,0.1-0.1,0.1-0.1c0.2-0.3,0.4-0.5,0.7-0.8l0.3-0.4c0,0,0,0,0,0l0-3.4l0.5,0c0,0,0,0,0,0l0.1-0.6c0.1-0.5,0.1-0.6,0.1-0.8
					c0-0.6,0.1-1,0.1-1.3c0-0.6,0-1.5,0.3-2.4c0-0.3,0.1-0.5,0.1-0.7c0.1-0.5,0.1-0.9,0.2-1.4l0.5-2.4c0.3-1.6,0.7-3.3,1-4.7
					c0.2-0.8,0.3-1.5,0.5-2.2c0.1-0.4,0.2-0.9,0.4-1.3c0.1-0.3,0.2-0.6,0.3-0.8c0.1-0.4,0.3-0.9,0.4-1.3c0.1-0.2,0.2-0.4,0.2-0.6
					l0.2-0.5c0.1-0.3,0.2-0.6,0.3-0.9c0.1-0.3,0.2-0.7,0.4-1.1l0.2-0.3c0.1-0.1,0.2-0.4,0.3-0.7l0.1-0.2l0.2-0.6l0.2-0.2
					c0-0.1,0.1-0.1,0.1-0.2c0.1-0.1,0.1-0.3,0.2-0.4l0-0.1c0.1-0.2,0.2-0.5,0.3-0.7l0.8-1.5c0.4-0.7,0.8-1.4,1.5-2.1l0.5-0.5
					c0.3-0.3,0.5-0.4,0.7-0.6l0.1-0.1l0.5-0.2c1-0.5,1.9-0.5,2.6-0.5c2.3,0,4.4,1.1,5.5,2.9c1.3,2.1,2.8,3.5,3.3,3.7l0.7,0.2
					l0.6,0.6c0.6,0.6,1,1.1,1.4,1.6l0.1,0.2c1.3,2.2,1.2,3.4-0.8,14c-0.7,3.5-1.3,7.4-1.8,10.9c-0.2,1.5-0.4,2.9-0.6,4.1l-0.4,4.1
					l6.5-6.9c17.1-17.4,32-30.4,43.3-37.6c8.8-5.5,12.2-6.8,17.7-6.8h0.6c4.6,0.2,5.6,0.6,7.9,2.9c1.5,1.5,2.2,1.8,2.2,1.8l2.3,0.7
					l0,2l1.5,1.5l-2.3,2.3c-0.3,0.3-0.6,0.8-0.7,1v3.1h-1.7c-2.1,2.4-6,5.7-11.6,9.8c-13.2,9.8-20.4,15.9-29.8,25.5
					c-6.2,6.4-27.3,29.6-30.2,34.5c0.2,0.6,0.7,1.6,1.2,2.3l0.2,0.3c1.3,2.9,4.9,4.6,9.8,4.6c4.8,0,10.1-1.6,15.1-4.6
					c2-1.1,3.7-2.2,5.9-3.7l1.8-1.4c1.1-0.8,2-1.5,2.9-2.3l0.1-0.1c0.6-0.4,1.1-0.8,1.6-1.3l0.9-0.8c0.3-0.3,0.7-0.6,1-0.9
					c0.2-0.3,0.7-0.7,1.4-1.3c6.4-5.4,19.1-22.5,27.9-35.8c0.5-0.7,1-1.4,1.4-2.1c0.1-0.2,0.2-0.3,0.3-0.5c0.5-0.7,0.9-1.4,1.3-2
					l0.1-0.2c7.9-12.5,22.4-33.4,30.4-33.4h1.8l1.6,1.6l0.2,0.7c0.3,0.9,2.1,3,3,3.6h2.8l0,4l2.2,0.9l-1.3,3
					c-0.6,1.4-1.5,3.3-2.5,5.5l8.2-5.7c0.2-0.1,0.3-0.2,0.5-0.3l0.1-0.1l0.4-0.2c9.1-4.9,19.1-7.7,29.6-8.1l2-0.1l1,1.7
					c0.3,0.5,1.6,1.8,3.2,3c1.2,0.9,2.4,2.2,3.1,3c0.7,0.8,1.4,1.7,2,2.8l0,0c4,8.2,2.2,20.5-5.4,37.7c-0.3,0.8-0.8,1.6-1.2,2.5
					c-0.2,0.4-0.4,0.8-0.6,1.2c-10.8,21.1-30,44.1-43.6,52.3c-0.8,0.5-1.7,1-2.6,1.4l-0.9,0.4c-3.9,1.5-7.5,2.3-10.7,2.3
					c-3.3,0-6.1-0.5-9-1.5c-5.2-1.6-6.4-2.2-10.3-4.4l-2.3,3.5v-4.9c-1.6-1-2.4-1.7-2.9-2.2l-2.3-2.3l2.3-2.3
					c0.6-0.6,1.7-1.3,2.9-1.3h0.2c0.2,0,0.5-0.1,0.7-0.1l5.6-5.6v2.4c0.3-0.1,0.5-0.2,0.7-0.3c4.1-1.8,6.6-4.1,12.9-10
					c9.1-8.9,14-14.8,22.8-27.4c4.6-6.5,10-14.9,14.4-22.4c2.7-4.5,4.1-7.3,4.9-9.1c-1.2,0.8-3,1.9-5.2,3.6l-0.4,0.3
					c-7.8,4.1-15.2,8.8-21.9,14l-0.4-0.4c-1,1-1.9,2-2.7,2.8l-0.3,0.3c-10.9,9-20.2,19.6-27.8,31.5c-2.2,3.5-4.3,7.1-6.2,10.8
					c-21,40.5-17.6,81.4-17.6,81.8L257.5,216.6z M250.6,133.9l-0.1,0.3c-2.2,5.6-3.7,10.3-4.9,14.9c-4,15.3-4.3,18.1-4.4,30.4
					c0,15.3,0.9,17.7,4.5,21.2l0.2,0.2c1.5,1.7,3.4,3.2,4,3.4c0.1,0,0.2,0.1,0.2,0.1c-0.3-13.1,1.1-46.1,18.5-79.6
					c2-3.8,4.2-7.6,6.5-11.3c7.9-12.4,17.7-23.5,29-32.9c2.9-3.1,5.4-5.7,7-7c1.4-1.3,2.7-1.3,3.6-1c5-3.4,10.2-6.6,15.7-9.4
					c8-6,10.1-6,11.1-6c1.3,0,2.6,0.5,3.5,1.3c3.4,3,2,6.7-5,18.7c-4.5,7.6-10,16.2-14.7,22.8c-9.1,13-14.1,19-23.6,28.3
					c-6.3,6-9.5,8.9-14.8,11.3c-1.8,0.7-3,1.4-3.7,1.8c3.2,1.8,4.2,2.3,8.6,3.6c2.3,0.8,4.4,1.2,7,1.2c2.4,0,5.2-0.6,8.2-1.8
					l0.6-0.3c0.7-0.3,1.4-0.7,1.9-1c12.9-7.8,31-29.6,41.3-49.7c0.2-0.4,0.4-0.9,0.7-1.3c0.4-0.7,0.7-1.4,1-2
					c6.6-15,8.6-26.1,5.6-32.3c-0.3-0.5-0.6-1-0.8-1.2l-0.2-0.2c-0.9-1.1-1.7-1.8-2.1-2.1c-1-0.7-2.6-1.9-3.8-3.3
					c-8.9,0.6-17.2,3-24.9,7.1c-0.1,0.1-0.3,0.2-0.4,0.2l-13.4,9.4c-3.5,3.1-5.4,5.4-5.5,5.5l-3.1,3.9l-2.2-4.4
					c-0.8-1.6-0.8-3.2,0-4.8l0.2-0.3c2.5-3.8,5.4-9.4,7.3-13.6l-1-0.4l0.6-2.9c-1.5-1.1-2.8-2.6-3.8-4c-3,1.9-10.8,9.3-23.9,29.8
					c-0.1,0.1-0.1,0.2-0.2,0.3c-0.4,0.7-0.8,1.4-1.3,2.1l-0.2,0.3c-0.5,0.7-1,1.5-1.5,2.3c-7.4,11.3-21.3,30.6-29.1,37.2
					c-0.4,0.4-0.8,0.7-1,0.9l-0.2,0.2c-0.3,0.3-0.7,0.7-1.1,1l-0.8,0.7c-0.7,0.7-1.4,1.3-2.1,1.8c-1,0.8-2,1.7-3.2,2.5l-1.9,1.4
					c-2,1.4-4.2,2.9-6.5,4.1c-5.9,3.4-12.4,5.4-18.3,5.4c-3.1,0-5.9-0.5-8.3-1.5c3.6,3,6.4,4.1,10.7,4.7h1.9c0.9,0,1.5,0,2.2-0.1
					l0.5,0c0.1,0,0.3,0,0.6-0.1l0.1,0c0.4-0.1,0.7-0.2,0.9-0.3l0.5-0.2h0.2c0.1,0,0.2,0,0.2-0.1l1.2-0.4c2.9-1,6-2.8,9.4-5.4
					l0.2-0.1c0.2-0.1,0.3-0.2,0.4-0.3c0.2-0.2,0.5-0.4,0.7-0.6c1.5-1.2,3-2.4,4.3-3.7c0.9-0.8,1.8-1.6,2.8-2.5l1-1v-0.3l0.9-0.9
					c3.1-3.2,6.8-7.2,9.1-9.6l1.8-1.9l4.8,4.3c-0.8,1-2.5,3.1-4.4,6.5l-0.1,0c-0.2,0.4-0.5,0.9-0.7,1.3c-0.3,0.6-0.6,1.1-0.9,1.6
					l-0.9,2C252.2,129.6,251.4,131.7,250.6,133.9z M161.6,156.4c2.2,0.2,4.1,1.5,5.2,2.3c1.1-1.3,4-5.1,8-10.9
					c8.3-11.8,12.9-18.1,15.1-20.2l2.3-2.1l0.8,0.8h0.4c1.3,0,2.7,0.4,5,2.2c0-0.1-0.1-0.1-0.1-0.2c-0.8-1.4-2.2-3.9-2.2-5.9
					c0-1.5,0-3,14.6-19.4c7-7.9,14.9-16.4,17.6-19.2c9.7-9.8,17.1-16.2,30.5-26.1c7.3-5.4,9.9-8.1,10.8-9.2c0.1-0.5,0.3-1,0.5-1.5
					c-0.6-0.5-1.2-1-1.9-1.7c-0.3-0.3-0.7-0.7-0.8-0.8c-0.3-0.1-2-0.2-2.7-0.2l-0.5,0c-3.5,0-5.8,0.5-14.3,5.8
					c-10.8,6.9-25.4,19.6-42.1,36.6l-11,11.6l-7.1-3.1l0.7-8.4l0.3-2.7c0.2-1.3,0.4-2.7,0.6-4.1c0.5-3.5,1.1-7.5,1.8-11.1
					c0.5-2.7,1.5-8.2,1.5-9.5c0,0,0,0-0.1-0.1c-2.5-1.2-4.7-4.1-5.9-5.9c-0.1,0.1-0.3,0.5-0.5,0.8l-0.5,1c-0.1,0.2-0.2,0.4-0.3,0.7
					c0,0.1-0.1,0.2-0.1,0.3c0,0.1-0.1,0.2-0.1,0.3c-0.1,0.4-0.2,0.7-0.4,0.9c-0.1,0.4-0.3,0.8-0.6,1.3c-0.1,0.3-0.2,0.5-0.3,0.9
					c-0.1,0.2-0.1,0.5-0.2,0.8c-0.1,0.3-0.2,0.7-0.4,1c-0.1,0.2-0.2,0.4-0.2,0.6c-0.1,0.4-0.2,0.8-0.4,1.3c-0.1,0.3-0.2,0.6-0.3,0.8
					c-0.2,0.6-0.3,1.2-0.5,1.9c-0.3,1.5-0.6,3.1-1,4.7l-0.5,2.4c-0.1,0.3-0.1,0.6-0.1,0.9c-0.1,0.5-0.1,0.9-0.2,1.4l-0.1,0.4
					c0,0,0,0.4,0,0.6c0,0.6-0.1,1-0.1,1.3c0,0.5,0,0.9-0.2,1.8c0,0.4,0,0.8-0.2,1.3v0.1c0,0.4,0,1-0.2,1.7v3l-0.1,0l0.1,6.8
					c0,0.6,0.1,1.1,0.2,1.9l0,0.3c0,0.1,0,0.3,0,0.4v1.1c0.1,0.2,0.1,0.5,0.1,0.8c0.1,0.8,0.3,1.5,0.4,2.1c0.2,0.9,0.3,1.6,0.4,2.2
					c0,0.1,0.1,0.2,0.1,0.3l0.2,0.6c0.1,0.5,0.2,0.9,0.4,1.3l0.2,0.5l2,6.5l-0.7,3.1l-5,5.9c-14.5,18.3-19.8,30.3-19.9,34.9
					C160.2,155.1,161.1,156.3,161.6,156.4z M97.8,142.3c0.1,0.1,0.3,0.2,0.4,0.3l0.3,0.2c0.9,0.8,3.3,2,4.5,2.4l0.2,0.1
					c2.3,0.8,4.6,1.1,7.4,1.1c3.7,0,8-1,13.3-3.3c11.9-5.6,27.6-20.7,43.9-41.9c-1.7,1.9-3.4,3.9-5.1,5.7
					c-10.1,11.1-19.3,19.9-25.3,24.1c-10.9,8.1-21.7,12.4-31.1,12.4h-0.6C102.5,143.4,100,143.3,97.8,142.3z M134,42.8
					c-2.7,0-5.9,0.6-8.8,1.6C115,48.2,101.8,59.7,92.5,73c-8,11.8-13.1,22.6-14.9,31.9c-1.7,8.8-0.5,16.5,3.5,22.8
					c1.1,1.7,2.5,3.5,4,5.2c0.9,1.1,1.9,2,2.9,3c1.7,1.6,2.9,2.3,3.5,2.6c0.6,0.3,1.2,0.6,1.8,1c0.6,0.4,1.3,0.8,2,1.2
					c-0.9-0.8-1.7-1.9-2.4-3.3l-0.1-0.2c-3.1-6.9-2.8-13.1,1-24.4l0.1-0.4c0.2-0.7,0.5-1.5,0.8-2.2c0.1-0.3,0.3-0.6,0.5-1
					c1-1.7,2.6-2.8,4.5-3c-0.7-0.8-1.3-2-1.3-3.4l0-0.2c0.3-3.7,12.1-21.6,13-22.9l0,0c10.6-15,20.8-25.6,28-29.1
					c1.6-0.7,2.7-1.1,4-1.1c1.8,0,3.4,0.8,4.5,2.3c2,2.6,1.4,5.8,0.1,11.1c-3.7,17.5-18,35.3-34.7,43.1c-0.6,0.3-1.3,0.6-2.1,0.9
					c0.7-0.1,1.4-0.3,2.1-0.5c0.3-0.1,0.6-0.2,0.8-0.3c0.3-0.1,0.5-0.2,0.7-0.3c3.3-1.4,7-3.8,11-7c6.8-5.4,13.4-12.4,17.8-18.7
					c3.6-5.2,6.3-12.8,7-19.6c0-0.6,0.1-1.3,0.1-1.9c0-1.7-0.2-3.2-0.7-4.3c-0.1-0.4-0.3-0.7-0.5-1c-0.6-1.1-1.5-2-2.6-2.9l-0.6-0.5
					c-1.1-1-3.3-3-4.4-4.1l-0.5-0.6c-0.5-0.7-2-1.6-4.7-2C136,42.9,135,42.8,134,42.8z M202.4,123.1L202.4,123.1L202.4,123.1z
					 M105,103.4C105,103.4,105,103.4,105,103.4S105,103.4,105,103.4z M104.3,101.8L104.3,101.8L104.3,101.8z M142.9,56.2
					c-0.2,0.1-0.5,0.2-0.6,0.3c-5.9,2.9-15.7,13.2-25.4,27l0,0c-2.3,3.2-8.9,13.9-11.1,18.3c1.1-0.2,2.9-0.7,5.1-1.7
					c14.9-7,27.7-22.9,31-38.7C142.1,60.3,142.8,57.6,142.9,56.2z M185.9,59.4C185.9,59.4,185.9,59.4,185.9,59.4
					C185.9,59.4,185.9,59.4,185.9,59.4z M188.7,52.9C188.7,52.9,188.7,52.9,188.7,52.9C188.7,52.9,188.7,52.9,188.7,52.9z"/>
				<path class="st3" d="M259.3,219.7l-8.4-6c-1-0.7-2.8-1.7-3.6-1.9c-2.2-0.7-5.4-3.4-7.3-5.6c-5.9-5.8-6.8-10.9-6.8-26.8
					c0.2-13,0.5-16.3,4.7-32.3c0.8-3,1.7-6.1,2.8-9.3c-0.1,0.1-0.3,0.2-0.4,0.3l-0.3,0.2c-0.1,0.1-0.2,0.2-0.3,0.2
					c-0.3,0.3-0.6,0.5-0.9,0.7c-4,3.1-7.8,5.3-11.5,6.6l-1.5,0.5c-0.2,0.1-0.4,0.1-0.6,0.2c-0.4,0.1-0.7,0.2-0.9,0.2l-0.7,0.2
					c-0.6,0.2-1.3,0.3-2.2,0.4c-1.2,0.2-2.2,0.2-3.2,0.2l-2.7,0c-7.4-1-11.9-3.3-18.5-9.7c-1.4-1.4-2.4-2.3-3.1-2.8
					c-3.1,3.8-8.9,12.1-12.6,17.3c-3.4,5-7.7,10.8-9.2,12.4c-2.3,2.3-4.3,2.8-5.6,2.8c-1.7,0-3.4-0.9-4.5-2.5
					c-0.9-0.7-1.3-0.8-1.3-0.8l-0.2,0c-4.6-0.7-8.3-5.3-8.3-10.3c0.3-11.2,13.7-29.8,21.7-39.8l3.5-4.1l-1.1-3.6
					c-0.3-0.8-0.6-1.5-0.7-2.2c0,0,0-0.1-0.1-0.1c-17.6,23.5-34.8,39.9-48.4,46.3c-6.4,2.7-11.7,4-16.5,4c-3.6,0-6.7-0.5-9.8-1.5
					c-2.3-0.6-5.4-2.3-7.3-3.8c-1.6-1.1-3-2-4.1-2.7c-0.5-0.3-0.9-0.5-1.3-0.7c-1.6-0.8-3.4-2.1-5.4-3.9c-1.2-1.1-2.4-2.3-3.5-3.6
					c-1.7-2-3.4-4.1-4.7-6.1c-5.2-8.1-6.8-17.7-4.6-28.6c2-10.4,7.5-22.1,16.1-34.8c10.3-14.9,24.7-27.3,36.6-31.6
					c3.8-1.3,7.9-2.1,11.4-2.1c1.3,0,2.7,0.1,4,0.3c4.3,0.6,7.8,2.4,9.7,4.9c0.9,0.9,2.9,2.7,4,3.7c0.1,0,0.2,0.1,0.3,0.2
					c2,1.5,3.5,3.2,4.6,5.1c0.4,0.7,0.8,1.5,1.1,2.2c0.8,2,1.2,4.4,1.2,7.1c0,0.8,0,1.7-0.1,2.6c-0.9,8.2-4.1,17.2-8.4,23.4
					c-4.9,7.1-12,14.5-19.5,20.4c-4.5,3.6-8.9,6.4-12.7,8c-0.4,0.2-0.8,0.4-1.2,0.5c-0.3,0.1-0.9,0.3-1.3,0.5
					c-2.1,0.6-4.6,1-7.2,1.2c-0.6,0-1,0-1.5,0c-2.2,0-3.9-0.2-5.3-0.5c0,0.1-0.1,0.2-0.1,0.3l-0.1,0.4c-3.1,9.3-3.5,13.8-1.3,18.6
					c0.7,1.3,0.9,1.6,5.4,1.6h0.6c7.5,0,16.9-3.9,26.4-10.8c5.5-3.9,14.5-12.6,24.1-23.1c5.6-6.1,11-12.5,15.8-18.6l0.3-0.4
					c0.1-0.1,0.1-0.1,0.1-0.1c0.2-0.3,0.4-0.5,0.6-0.8l0-4.3l0.6,0c0,0,0,0,0,0c0-0.6,0.1-1.1,0.1-1.4l0,0c0-0.6,0-1.5,0.3-2.5
					c0-0.2,0-0.3,0.1-0.5c0.1-0.6,0.1-1.1,0.2-1.6l0.5-2.4c0.3-1.6,0.7-3.3,1-4.8c0.2-0.8,0.3-1.5,0.5-2.2c0.1-0.5,0.3-0.9,0.4-1.4
					l0-0.1c0.1-0.2,0.1-0.4,0.2-0.6c0.1-0.5,0.3-1,0.5-1.5l0-0.1c0-0.1,0.1-0.2,0.1-0.3l0.2-0.6c0.1-0.3,0.2-0.6,0.3-1
					c0.1-0.4,0.2-0.8,0.5-1.3l0.2-0.4c0-0.1,0.1-0.2,0.1-0.4l0.4-1.1l0.2-0.2c0.1-0.1,0.1-0.3,0.1-0.4l0,0c0.1-0.3,0.3-0.6,0.5-0.9
					l0.8-1.5c0.5-0.8,1-1.7,1.8-2.5l0.5-0.5c0.3-0.3,0.5-0.5,0.9-0.7l0.2-0.2l0.7-0.3c1.3-0.7,2.5-0.7,3.2-0.7
					c2.9,0,5.5,1.4,6.8,3.6c1.2,1.9,2.4,3,2.6,3.1l0.9,0.3l0.9,0.7c0.7,0.7,1.2,1.3,1.6,1.9l0.1,0.2c1.6,2.8,1.4,4.3-0.6,15
					c-0.7,3.4-1.3,7.4-1.8,10.8c-0.2,1.3-0.4,2.6-0.6,3.7l3.5-3.6c17.2-17.5,32.2-30.6,43.6-37.8c9.1-5.7,12.7-7,18.5-7h0.6
					c5,0.2,6.4,0.7,9,3.3c1,1,1.5,1.4,1.7,1.4l3.2,1l0,2.5l2.1,2.1l-3.3,3.3c-0.1,0.1-0.2,0.2-0.2,0.3v4.2h-2.5
					c-2.3,2.5-6.1,5.7-11.3,9.6c-13.1,9.7-20.3,15.8-29.6,25.3c-6.6,6.8-25.7,27.8-29.6,33.6c0.2,0.5,0.5,1,0.8,1.4l0.2,0.4
					c1.1,2.4,4.2,3.8,8.5,3.8c4.5,0,9.6-1.5,14.4-4.3c2-1.1,3.7-2.2,5.8-3.7l1.8-1.3c1.1-0.8,1.9-1.5,2.9-2.3l0.2-0.1
					c0.6-0.5,1-0.8,1.5-1.2l1-0.9c0.3-0.3,0.6-0.6,0.9-0.8c0.3-0.3,0.8-0.7,1.5-1.4c6.3-5.3,18.9-22.3,27.6-35.5
					c0.5-0.7,0.9-1.4,1.4-2.1c0.1-0.2,0.2-0.4,0.4-0.6c0.4-0.6,0.8-1.3,1.2-1.9l0.1-0.2c9.9-15.5,23.4-34.1,31.7-34.1h2.4l2.3,2.3
					l0.4,1.1c0.2,0.5,1.3,1.9,2.1,2.6h3.8l0,4.5l2.6,1l-1.8,4.4c-0.1,0.2-0.1,0.3-0.2,0.5l3.6-2.5c0.1-0.1,0.3-0.2,0.4-0.3l0.1-0.1
					l0.6-0.3c9.3-5,19.5-7.8,30.3-8.3l2.9-0.1l1.4,2.6c0.2,0.3,1.2,1.3,2.8,2.5c1.2,0.9,2.5,2.3,3.3,3.3c0.8,0.8,1.5,1.9,2.2,3.1
					c4.2,8.6,2.5,21.4-5.4,39c-0.3,0.8-0.7,1.6-1.2,2.5c-0.2,0.4-0.4,0.8-0.6,1.2c-10.9,21.3-30.3,44.6-44.2,52.9
					c-0.8,0.5-1.8,1-2.7,1.5l-1,0.5c-4.1,1.7-7.9,2.5-11.4,2.5c-3.4,0-6.5-0.5-9.5-1.6c-4.7-1.4-6.3-2.1-9.3-3.8l-4.3,6.5v-9
					c-1.3-0.9-2-1.5-2.5-2L270,141c-14.4,35.5-11.7,68.1-11.6,68.5L259.3,219.7z M247.7,127.7l-2.2,5.8c-2,5.2-3.5,9.8-4.6,14.3
					c-4.1,15.7-4.4,18.9-4.6,31.6c0,15.1,0.7,19.6,5.9,24.7l0.1,0.1c1.8,2.1,4.6,4.3,6,4.8c1.2,0.4,3.3,1.6,4.4,2.3l3.1,2.2
					l-0.3-3.7c0-0.4-3.5-41.8,17.7-82.6c1.9-3.7,4-7.3,6.3-10.9c7.7-12,17.1-22.7,28.1-31.9l0.2-0.2c0.7-0.7,1.6-1.8,2.6-2.8
					l1.1-1.2l0.5,0.6c6.5-5,13.5-9.4,21-13.3l0.3-0.2c2-1.5,3.8-2.7,5.3-3.6l4.2-2.6l-2.1,4.5c-1,2.1-2.7,5.2-5,9.2
					c-4.4,7.5-9.8,15.9-14.4,22.5c-8.9,12.7-13.8,18.6-23,27.6c-6.4,6.1-9,8.4-13.3,10.3c-0.2,0.1-0.5,0.2-0.7,0.3l-2.1,0.9v-1
					l-3.2,3.2l-0.3,0.1c-0.3,0.1-0.8,0.2-1.2,0.2l-0.2,0c-0.7,0-1.5,0.4-1.9,0.8l-1.2,1.2l1.2,1.2c0.4,0.5,1.2,1.1,2.7,2l0.7,0.4
					v0.7l0.4-0.5l1.2,0.7c3.8,2.2,4.9,2.8,10,4.3c2.7,1,5.4,1.4,8.5,1.4c3.1,0,6.5-0.7,10.2-2.2l0.8-0.4c0.8-0.4,1.7-0.8,2.4-1.3
					c13.5-8.1,32.4-30.8,43.1-51.7c0.2-0.4,0.4-0.8,0.6-1.2c0.5-0.9,0.9-1.6,1.2-2.3c7.5-16.8,9.2-28.7,5.5-36.5
					c-0.5-1-1.1-1.8-1.7-2.5c-1.1-1.3-2.1-2.3-2.9-2.9c-1.4-1-3.1-2.5-3.7-3.4l-0.5-0.9l-1.1,0c-10.3,0.4-20.1,3.1-29,7.9l-0.4,0.3
					c-0.1,0.1-0.2,0.1-0.3,0.2l-0.1,0.1l-12.9,9l2.5-5.2c1-2,1.8-3.9,2.5-5.4l0.7-1.6l-1.7-0.7l0-3.5h-1.7l-0.4-0.2
					c-1.1-0.7-3.2-3.1-3.6-4.4l-0.1-0.4l-1-1h-1.2c-5.3,0-16.2,12.2-29.2,32.7l-0.1,0.2c-0.4,0.6-0.8,1.3-1.3,2
					c-0.1,0.2-0.2,0.3-0.2,0.4l-0.1,0.1c-0.4,0.7-0.9,1.4-1.4,2.1c-8.8,13.4-21.7,30.6-28.1,36.1c-0.8,0.7-1.2,1-1.3,1.2l-0.1,0.1
					c-0.3,0.3-0.7,0.6-1,0.9l-0.9,0.8c-0.5,0.5-1.1,0.9-1.7,1.4l-0.1,0.1c-0.9,0.8-1.9,1.5-3,2.4l-1.8,1.4c-2.3,1.6-4.1,2.8-6.1,3.9
					c-5.2,3-10.8,4.7-15.8,4.7c-5.5,0-9.6-2-11.2-5.4l-0.1-0.3c-0.5-0.8-1-1.9-1.3-2.5l-0.3-0.7l0.4-0.6c3-5.1,24.3-28.5,30.4-34.8
					c9.4-9.6,16.7-15.8,30-25.6c5.5-4,9.3-7.3,11.3-9.6l0.4-0.5h0.9v-1.9l0.1-0.3c0.1-0.4,0.5-0.9,1-1.4l1.2-1.2l-0.9-0.9l0-1.5
					l-1.2-0.4c-0.4-0.1-1.3-0.5-2.8-2.2c-1.9-1.9-2.5-2.2-6.9-2.4l-0.6,0c-5.1,0-8.4,1.3-16.9,6.6c-11.2,7.1-26.1,20-43,37.4
					l-9.6,10l0.9-8.5c0.2-1.3,0.4-2.7,0.6-4.1c0.5-3.5,1.1-7.4,1.8-10.9c1.9-10.4,1.9-11.2,0.9-12.9l-0.1-0.1
					c-0.3-0.4-0.6-0.8-1.2-1.4l-0.3-0.3l-0.4-0.1c-1.2-0.4-3-2.6-4.1-4.4c-0.8-1.3-2.4-2.2-4.2-2.2c-0.6,0-1.2,0-1.9,0.3l-0.5,0.3
					c-0.2,0.1-0.3,0.2-0.5,0.4l-0.5,0.5c-0.5,0.5-0.9,1.1-1.3,1.8l-0.9,1.6c-0.1,0.1-0.1,0.2-0.2,0.4l0,0.1
					c-0.1,0.2-0.1,0.3-0.2,0.5l-0.2,0.5l-0.1,0.1l-0.1,0.4c-0.1,0.4-0.2,0.7-0.4,1l-0.2,0.3c-0.1,0.2-0.2,0.5-0.2,0.8l-0.1,0.2
					c-0.1,0.3-0.2,0.5-0.2,0.7l-0.2,0.6c-0.1,0.2-0.1,0.4-0.2,0.6l0,0.1c-0.1,0.4-0.3,0.8-0.4,1.2c-0.1,0.2-0.2,0.5-0.2,0.8l0,0.1
					c-0.1,0.4-0.3,0.8-0.4,1.2c-0.2,0.7-0.3,1.3-0.5,2.1c-0.3,1.5-0.7,3.1-1,4.7l-0.5,2.4c-0.1,0.5-0.1,0.9-0.2,1.3
					c0,0.3-0.1,0.6-0.1,0.8l0,0.1c-0.2,0.6-0.2,1.3-0.2,1.9l0,0.4c0,0.2-0.1,0.6-0.1,1c0,0.3,0,0.5-0.1,1l0,0.5v1.4l-0.5,0l0,2.5
					l-0.7,0.8c-0.2,0.2-0.4,0.5-0.6,0.7l-0.5,0.5c-4.8,6.1-10.3,12.5-15.9,18.7c-9.7,10.7-18.9,19.4-24.5,23.5
					c-10,7.4-20,11.4-28.1,11.4h-0.6c-5.6,0-6.7-0.7-8.1-3.3c-2.5-5.7-2.2-10.7,1.2-20.8l0.1-0.4c0.2-0.5,0.4-1.2,0.7-1.8l0.1-0.2
					l0.6-1.1l1.2,0.4c1.3,0.5,3.1,0.8,5.7,0.8c0.4,0,0.9,0,1.4,0c2.3-0.1,4.6-0.5,6.4-1c0.5-0.1,0.9-0.3,1.1-0.4
					c0.4-0.1,0.7-0.3,1-0.4c3.6-1.5,7.8-4.2,12.1-7.6c7.2-5.7,14.1-13,18.8-19.8c4-5.9,7-14.3,7.9-22c0.1-0.8,0.1-1.6,0.1-2.3
					c0-2.4-0.3-4.3-1-6.1c-0.2-0.6-0.5-1.2-0.8-1.8c-0.9-1.6-2.2-3-3.8-4.3l-0.1-0.1c-0.1-0.1-0.2-0.2-0.3-0.2
					c-1.3-1.1-3.3-3.1-4.2-4l-0.1-0.1c-1.5-1.9-4.3-3.3-7.9-3.8c-1.1-0.2-2.3-0.2-3.6-0.2c-3.3,0-7,0.7-10.4,1.9
					c-11.4,4.1-25.2,16.1-35.2,30.5C80,82.7,74.7,94,72.8,104c-2,10.1-0.5,19,4.2,26.4c1.3,1.9,2.8,3.9,4.5,5.8
					c1,1.2,2.1,2.3,3.3,3.3c1.7,1.6,3.3,2.7,4.7,3.4c0.5,0.3,1,0.5,1.5,0.8c1.2,0.7,2.6,1.7,4.3,2.8l0.1,0.1
					c1.5,1.3,4.3,2.8,6.3,3.3c2.9,0.9,5.7,1.4,8.9,1.4c4.4,0,9.3-1.2,15.3-3.7c13.7-6.4,31.1-23.5,49.2-48l2.1-2.8l0.6,3.4
					c0.1,0.7,0.2,1.2,0.3,1.7l0.1,0.2c0.1,0.4,0.2,0.7,0.3,0.9l0.1,0.2c0.1,0.5,0.3,1.2,0.6,1.8l0.1,0.2l1.7,5.3l-4.5,5.4
					c-6.2,7.9-20.7,27.4-21,38c0,3.4,2.7,6.9,5.7,7.3l0.1,0c0.8,0.1,1.8,0.6,3,1.5l0.2,0.2l0.1,0.2c0.4,0.6,1.1,1.3,2.1,1.3
					c0.6,0,1.8-0.3,3.5-2c1.1-1.1,4.7-5.8,8.9-12c4.3-6.1,10.8-15.3,13.6-18.5l0.2-0.2l1.2-0.6l0.8,0.5c0.8,0.5,2.2,1.6,4.6,3.9
					c6.1,5.9,10,8,16.7,8.8l2.4,0c0.9,0,1.8,0,2.8-0.2l0.2,0c0.6,0,1.2-0.2,1.7-0.3l0.8-0.2c0.2,0,0.4-0.1,0.6-0.2l0.1,0
					c0.1,0,0.2-0.1,0.3-0.1l0.1,0l1.6-0.5c3.4-1.2,6.9-3.2,10.7-6.2c0.3-0.2,0.5-0.4,0.7-0.6c0.2-0.2,0.3-0.3,0.5-0.4l0.2-0.1
					c1.6-1.3,3.1-2.5,4.6-3.9L247.7,127.7z M311.4,84.6c-0.6,0.6-1.1,1.1-1.5,1.6l-0.4,0.3c-10.8,9-20.1,19.5-27.6,31.2
					c-2.2,3.5-4.3,7.1-6.1,10.7c-2.1,4-4,8.1-5.6,12.1l3-3c0.4-0.4,1.9-1.7,4-1.7h0.1l7.8-7.8v3.6c3.1-1.6,5.7-4,11-9
					c9-8.8,13.9-14.7,22.6-27.2c4.6-6.5,9.9-14.8,14.3-22.3c0.8-1.3,1.5-2.5,2.1-3.6c-0.1,0-0.1,0.1-0.2,0.1l-0.7,0.4
					c-7.7,4-15,8.7-21.7,13.9l-1.1,0.9L311.4,84.6z M251.7,206.5l-2.4-0.9c-0.8-0.4-3-2.1-4.5-3.8l-0.2-0.2c-4.2-4-4.9-7.3-4.9-22.2
					c0.2-12.5,0.4-15.3,4.5-30.8c1.2-4.6,2.7-9.4,4.9-15.1l0.1-0.2c0.8-2.3,1.6-4.4,2.6-6.4l1.3-2.7l1.9-3.7l0.2,0.1
					c1.1-1.8,2.1-3.3,2.9-4.3l-2.7-2.4l-0.8,0.8c-2.2,2.4-6,6.4-9.1,9.6l-0.5,0.5v0.3l-1.4,1.4c-1,0.9-1.9,1.8-2.9,2.6
					c-1.4,1.3-2.9,2.5-4.4,3.7c-0.3,0.2-0.5,0.4-0.7,0.6c-0.2,0.2-0.4,0.3-0.5,0.4l-0.1,0.1c-3.5,2.7-6.7,4.6-9.7,5.6l-1.4,0.5
					c-0.1,0-0.1,0-0.2,0l-0.8,0.3c-0.2,0-0.4,0.1-0.7,0.2l-0.3,0.1c-0.4,0.1-0.6,0.2-0.9,0.2l-0.4,0c-0.8,0.1-1.5,0.1-2.4,0.1
					l-2.1,0c-4.7-0.6-7.8-2-11.5-5l-7.5-6.2l1.3,0.5l-0.9-0.7c-2.2-1.7-3.2-1.9-4.1-1.9h-1.1l-0.2-0.2l-1.2,1.1
					c-2.1,2-6.9,8.5-14.9,20c-3.7,5.4-6.8,9.5-8.1,11l-0.9,1.1l-1.1-0.9c-1.6-1.2-3-1.9-4.5-2l-0.2,0c-1.1-0.3-2.5-2.1-2.5-3.8
					c0.1-5.1,5.5-17.2,20.2-35.8l4.8-5.7l0.5-2.3l-2-6.4c-0.2-0.4-0.3-0.9-0.5-1.5l-0.2-0.5c0-0.1-0.1-0.2-0.1-0.4l0-0.2
					c-0.1-0.6-0.2-1.4-0.4-2.2l0-0.2c-0.1-0.6-0.2-1.3-0.4-2l0-0.1c0-0.2-0.1-0.4-0.1-0.6l0-0.4v-1.1c0-0.1,0-0.2,0-0.2l0-0.3
					c-0.1-0.7-0.2-1.4-0.3-2.1l-0.2-8.4l0.1,0l0-1.9c0.1-0.5,0.1-1,0.1-1.3l0-0.5c0.1-0.4,0.1-0.8,0.1-1l0-0.2
					c0.1-0.7,0.1-1.1,0.2-1.5l0-0.3c0-0.2,0.1-0.6,0.1-1c0-0.2,0-0.4,0-0.5l0-0.3l0.1-0.2l0.1-0.4c0.1-0.4,0.1-0.8,0.2-1.2l0-0.1
					c0-0.3,0.1-0.6,0.1-0.9l0.5-2.6c0.3-1.5,0.6-3.1,0.9-4.6c0.1-0.7,0.3-1.3,0.5-2c0.1-0.3,0.2-0.6,0.3-0.9
					c0.2-0.5,0.3-0.9,0.4-1.3c0.1-0.2,0.1-0.5,0.2-0.7l0-0.1c0.1-0.3,0.2-0.6,0.3-0.9l0-0.1c0.1-0.2,0.1-0.4,0.2-0.6l0-0.1l0,0
					l0.1-0.1c0.1-0.2,0.2-0.4,0.2-0.6l0.1-0.2l0.1-0.2c0.2-0.3,0.3-0.6,0.5-1l0.1-0.3c0.1-0.2,0.2-0.3,0.2-0.5l0.4-1
					c0.1-0.1,0.1-0.2,0.2-0.4l0.1-0.2l0.5-1c0.3-0.6,0.5-0.9,0.7-1.1l1.3-1.5l0.9,1.4l0,0l0,0l0,0l0.1,0.2c1,1.5,3,4.3,5.2,5.4
					l0.3,0.1l0.6,0.7l0,0.5c0,1.2-0.6,4.8-1.5,9.8c-0.7,3.6-1.3,7.6-1.8,11.1l0,0.2c-0.2,1.4-0.4,2.7-0.6,3.9l-0.3,2.7l-0.6,7.3
					l5.1,2.3l10.3-10.8c16.8-17.1,31.5-29.9,42.4-36.8c8.4-5.2,11-6,15.1-6l0.5,0c2.3,0.1,2.8,0.2,3.2,0.3l0.3,0.1
					c0.2,0.1,0.5,0.4,1.1,1c0.6,0.6,1.2,1.1,1.7,1.6l1,0.8l-0.5,1.1c-0.2,0.4-0.3,0.8-0.4,1.2L271,49l-0.2,0.3
					c-1.2,1.5-4,4.3-11.1,9.5c-13.4,9.9-20.8,16.2-30.4,26c-2.7,2.8-10.6,11.3-17.6,19.2c-14.2,16-14.2,17.4-14.2,18.5
					c0,1.2,0.7,3.1,1.9,5.1l0.1,0.3l1.9,3.9l4.5,1.9c2.2,0.9,4.8,1.4,7.7,1.4c5.6,0,11.9-1.8,17.5-5.2c2.4-1.3,4.6-2.8,6.4-4.1
					l1.8-1.4c1.2-0.9,2.2-1.7,3.1-2.5c0.7-0.5,1.4-1,2-1.7l0.8-0.8c0.4-0.4,0.7-0.7,1.1-1l0.1-0.1c0.2-0.3,0.6-0.6,1.1-1
					c7.6-6.5,21.4-25.6,28.8-36.9c0.5-0.8,1-1.6,1.5-2.3l0.2-0.3c0.5-0.7,0.9-1.4,1.3-2.1c0.1-0.1,0.1-0.2,0.2-0.3
					c14.7-23.2,22.4-29.1,24.4-30.3l1.2-0.8l0.8,1.2c1,1.5,2.2,2.8,3.4,3.7l0.8,0.6l-0.5,2.6l1.3,0.5l-0.7,1.4
					c-1.9,4.1-4.8,9.8-7.4,13.8l-0.1,0.3c-0.5,1.1-0.5,2.2,0,3.4l1.2,2.4l1.7-2.1c0,0,2-2.5,5.6-5.6l0.1-0.1l13.6-9.5
					c0.1,0,0.2-0.1,0.2-0.1l0.2-0.1c7.9-4.2,16.4-6.7,25.5-7.3l0.7,0l0.5,0.5c1.2,1.3,2.7,2.5,3.5,3.1c0.6,0.4,1.5,1.3,2.3,2.3
					l0.1,0.1c0.5,0.5,0.8,1.1,1.1,1.6c3.3,6.7,1.4,18-5.5,33.6c-0.3,0.7-0.6,1.3-1,2.1c-0.3,0.5-0.5,0.9-0.7,1.4
					c-10.4,20.4-28.8,42.5-41.9,50.3c-0.6,0.4-1.3,0.7-2.1,1.1l-0.7,0.4c-3.2,1.3-6.2,1.9-8.8,1.9c-2.7,0-5-0.4-7.5-1.2
					c-4.5-1.4-5.6-1.9-8.8-3.7l-2.2-1.2l2.1-1.3c0.5-0.3,1.8-1.1,3.9-1.9c5-2.3,8.2-5.2,14.3-11c9.4-9.2,14.4-15.2,23.4-28.1
					c4.7-6.6,10.1-15.1,14.6-22.7c7.2-12.3,7.7-14.8,5.3-16.8c-0.7-0.6-1.5-1-2.5-1c-0.6,0-2.6,0-10.2,5.7l-0.2,0.1
					c-5.4,2.8-10.6,5.9-15.5,9.3l-0.6,0.4l-0.7-0.2c-0.2-0.1-1-0.3-2.1,0.7l-0.1,0.1c-1.5,1.2-4.1,3.9-6.9,6.9l-0.1,0.1
					c-11.2,9.3-20.8,20.3-28.7,32.5c-2.3,3.6-4.5,7.4-6.4,11.2c-17.3,33.3-18.6,66.2-18.4,78.8L251.7,206.5z M252.1,134.4l-0.1,0.3
					c-2.2,5.6-3.7,10.3-4.8,14.8c-3.9,15.1-4.2,17.9-4.4,30c0,15.4,1,17.1,4,20.1l0.3,0.3c0.5,0.6,1.1,1.1,1.6,1.6
					c0-14.5,2.3-45.8,18.7-77.3c2-3.8,4.2-7.7,6.6-11.4c8-12.5,17.8-23.7,29.2-33.2c0.1-0.1,0.2-0.2,0.3-0.3l-3-6.1
					c-1-2-1-4.1,0-6.2l0.2-0.4c2.2-3.4,4.7-8.2,6.5-12l-0.7-0.3l0.6-3.3c-1-0.8-1.8-1.8-2.4-2.6c-2.8,2.2-9.9,9.1-22.3,28.5
					c-0.1,0.1-0.1,0.2-0.2,0.4c-0.4,0.6-0.8,1.3-1.3,2l-0.2,0.3c-0.5,0.8-1,1.5-1.5,2.3c-5.5,8.3-14.4,20.9-21.9,29.7l4.9,4.4
					l-0.9,1.1c-0.8,0.9-2.4,3-4.3,6.2l-0.7,1.3l0,0l-0.8,1.6l-0.9,2C253.6,130.1,252.8,132.2,252.1,134.4z M162.1,154.9
					c1.5,0.2,2.9,0.8,4.4,1.7c1.4-1.8,3.9-5.2,7-9.8c8.5-12.1,13-18.3,15.4-20.5l3.3-3.1l1.3,1.3c0.5,0,1,0.1,1.5,0.2
					c-0.3-0.9-0.5-1.8-0.5-2.6c0-2.1,0-3.6,15-20.4c7-7.9,14.9-16.4,17.7-19.3c9.7-9.9,17.2-16.3,30.7-26.3
					c6.8-5.1,9.4-7.7,10.3-8.7c0-0.1,0.1-0.2,0.1-0.3c-0.4-0.3-0.8-0.7-1.1-1.1c-0.1-0.1-0.3-0.3-0.4-0.4c-0.3,0-0.9-0.1-2.1-0.1
					l-0.5,0c-3,0-4.9,0.2-13.5,5.6c-10.7,6.9-25.2,19.4-41.8,36.4l-11.8,12.4l-9-4l0.7-9.5l0.3-2.8c0.2-1.3,0.4-2.6,0.6-3.9l0-0.2
					c0.5-3.5,1.1-7.5,1.8-11.2c0.4-1.9,1.2-6.4,1.4-8.4c-1.6-1-3.1-2.5-4.2-4c-0.1,0.1-0.1,0.2-0.2,0.3l-0.1,0.3
					c-0.1,0.4-0.3,0.8-0.5,1.1c-0.2,0.4-0.3,0.8-0.5,1.2c-0.1,0.2-0.1,0.5-0.3,0.8c-0.1,0.2-0.1,0.5-0.2,0.8
					c-0.1,0.4-0.2,0.7-0.4,1.1l0,0.1c0,0.1-0.1,0.2-0.1,0.3c-0.1,0.4-0.3,0.9-0.4,1.4c-0.1,0.3-0.2,0.5-0.2,0.7
					c-0.2,0.6-0.3,1.2-0.4,1.9c-0.3,1.5-0.6,3-0.9,4.5l-0.5,2.6c0,0.2-0.1,0.4-0.1,0.6l0,0.1c-0.1,0.5-0.1,1-0.2,1.5l-0.1,0.3
					c0,0.1,0,0.3,0,0.4c0,0.6-0.1,1.1-0.1,1.5c0,0.5,0,1-0.2,1.8c0,0.3,0,0.8-0.2,1.3c0,0.4,0,1.1-0.2,1.9v4.4l-0.1,0l0.1,5.3
					c0,0.5,0.1,1,0.2,1.7l0.1,0.4c0,0.2,0,0.4,0,0.6v0.9c0.1,0.2,0.1,0.5,0.1,0.8c0.1,0.7,0.2,1.3,0.3,1.9l0,0.2
					c0.1,0.8,0.3,1.6,0.4,2.2l0.3,0.8c0.1,0.4,0.2,0.8,0.3,1l0.3,0.7l2.2,6.8l-0.8,3.8l-5.3,6.2c-15.2,19.3-19.4,30.4-19.5,34
					C161.7,154.3,161.9,154.7,162.1,154.9z M286.4,141.4c1.5,0.8,2.9,1.2,5.8,2.1c2.2,0.8,4.2,1.1,6.5,1.1c2.2,0,4.7-0.6,7.6-1.7
					l0.6-0.3c0.6-0.3,1.3-0.6,1.8-0.9c12.7-7.6,30.6-29.2,40.8-49.2c0.2-0.4,0.4-0.9,0.7-1.3c0.4-0.7,0.7-1.4,1-1.9
					c6.4-14.3,8.4-25.4,5.6-31c-0.2-0.4-0.4-0.7-0.6-0.8l-0.2-0.2c-0.9-1.1-1.6-1.7-1.9-1.9c-0.8-0.6-2.2-1.6-3.5-2.9
					c-8.4,0.7-16.3,3-23.5,6.9c-0.1,0.1-0.2,0.2-0.4,0.2l-13.3,9.3c-3.4,3-5.2,5.2-5.2,5.2l-0.8,1c1.1-1.1,2-2,2.8-2.6
					c1.6-1.5,3.2-1.7,4.3-1.5c4.8-3.3,9.9-6.3,15.2-9.1c8.3-6.2,10.6-6.2,11.9-6.2c1.7,0,3.3,0.6,4.5,1.7c4.4,3.9,2.2,8.7-4.8,20.5
					c-4.5,7.7-10,16.2-14.7,22.9c-9.1,13-14.2,19.2-23.8,28.5c-6.4,6.1-9.7,9.1-15.2,11.6C287.1,141.1,286.8,141.3,286.4,141.4z
					 M216.4,138.1h1.8c0.8,0,1.4,0,2-0.1l0.7-0.1c0.1,0,0.2,0,0.4-0.1l0,0c0.3-0.1,0.6-0.2,0.9-0.2l0.6-0.3h0.3c0,0,0,0,0,0l1.2-0.4
					c2-0.7,4.2-1.8,6.5-3.4c-5.2,2.7-10.7,4.2-15.8,4.4C215.4,137.9,215.9,138,216.4,138.1z M220.9,137.9L220.9,137.9
					C220.9,137.9,220.9,137.9,220.9,137.9z M110.5,147.8c-2.9,0-5.4-0.4-7.8-1.2l-0.1,0c-1.5-0.4-4-1.7-5.1-2.7l-0.5-0.4l1.5-2.6
					c1.8,0.8,4,1,7.1,1h0.6c9,0,19.5-4.2,30.2-12.1c5.9-4.2,15-13,25-23.9c1.7-1.9,3.4-3.8,5.1-5.7l2.3,1.9
					c-16.5,21.6-32.3,36.6-44.4,42.3C118.9,146.8,114.5,147.8,110.5,147.8z M109.1,144.8c0.5,0,0.9,0,1.4,0c3.5,0,7.6-1,12.7-3.2
					c2.3-1.1,4.8-2.6,7.4-4.4C123.1,141.6,115.8,144.2,109.1,144.8z M94.6,141.9c-0.7-0.5-1.4-0.9-1.9-1.2c-0.6-0.3-1.1-0.6-1.7-1
					c-1-0.5-2.4-1.5-3.9-2.8c-1-1-2.1-2-3-3.1c-1.5-1.7-3-3.6-4.2-5.4c-4.3-6.6-5.5-14.6-3.7-23.9c1.9-9.5,6.9-20.4,15.1-32.4
					c9.5-13.6,22.9-25.4,33.5-29.2c3.1-1.1,6.4-1.7,9.3-1.7c1,0,2.1,0.1,3.1,0.2c2.7,0.4,4.7,1.3,5.6,2.5l0.5,0.5c1,1,3.2,3,4.2,4
					l0.6,0.5c1.3,1,2.3,2.1,3,3.3c0.2,0.4,0.4,0.8,0.6,1.3c0.5,1.3,0.8,2.9,0.8,4.8c0,0.6,0,1.3-0.1,2c-0.8,7.2-3.6,14.9-7.3,20.4
					c-4.5,6.5-11.3,13.6-18.1,19c-4.1,3.2-8,5.7-11.4,7.2c-0.2,0.1-0.4,0.2-0.8,0.3c-0.2,0.1-0.5,0.2-0.9,0.3
					c-0.6,0.2-1.4,0.4-2.2,0.5l-0.8-2.9c0.8-0.3,1.5-0.6,2-0.8c16.3-7.6,30.2-24.9,33.8-42c1.3-5.5,1.7-7.9,0.2-9.9
					c-0.8-1.1-2-1.7-3.3-1.7c-1,0-1.9,0.4-3.4,1c-6.9,3.4-16.9,13.8-27.3,28.6c-1.9,2.6-12.5,19.2-12.7,22.1l0,0.2
					c0,0.9,0.5,1.8,1,2.4l1.8,2.2l-2.8,0.3c-1.4,0.1-2.6,0.9-3.4,2.2c-0.2,0.4-0.4,0.6-0.4,0.8c-0.4,0.8-0.6,1.5-0.8,2.1l-0.1,0.4
					c-3.7,11-4,16.9-1.1,23.4l0.1,0.1c0.6,1.2,1.3,2.1,2.1,2.9L94.6,141.9z M134,44.3c-2.5,0-5.5,0.5-8.3,1.5
					c-10,3.6-22.9,14.9-32,28.1c-7.9,11.7-12.9,22.2-14.6,31.3c-1.6,8.4-0.5,15.7,3.3,21.7c1.1,1.7,2.4,3.4,3.9,5
					c0.9,1,1.8,2,2.8,2.9c0.7,0.6,1.3,1.1,1.8,1.5c-2.6-6.7-2.1-13,1.6-24l0.1-0.3c0.2-0.7,0.5-1.5,0.9-2.4c0.1-0.3,0.4-0.8,0.6-1.1
					c0.9-1.4,2.1-2.5,3.5-3.1c-0.3-0.7-0.5-1.5-0.5-2.5l0-0.3c0.3-4.5,13.1-23.5,13.3-23.7c10.7-15.2,21.2-26,28.5-29.6
					c1.3-0.6,2.4-1,3.5-1.2c-0.5-0.5-1-1-1.4-1.4l-0.7-0.8c-0.2-0.2-1.2-1-3.7-1.4C135.9,44.4,134.9,44.3,134,44.3z M103,103.7
					l1.4-2.7c2.3-4.5,8.9-15.2,11.3-18.5c9.9-13.9,19.8-24.4,26-27.4l3-1.3l-0.2,2.5c-0.1,1.3-0.6,3.4-1.1,5.4
					c-3.4,16.2-16.5,32.5-31.9,39.7c-2.1,0.9-4,1.6-5.5,1.8L103,103.7z M140.9,59c-5.7,3.9-14.4,13.4-22.8,25.3
					c-1.9,2.6-6.5,10-9.3,15c0.4-0.2,0.9-0.4,1.5-0.6c14.5-6.8,26.9-22.3,30.2-37.6C140.5,60.6,140.7,59.8,140.9,59z"/>
			</g>
		</g>
		<g>
			<g>
				<path class="st3" d="M441.3,58.3c-0.8-2.6-4.8-7.1-6.9-8.2c-1.6-1.1-3.7-3.1-5-4.5l-0.2-0.2c-2.3-3.7-6.3-5.5-12.1-5.6h-0.3
					c-6,0-11.8,2.9-15.2,7.6c-2.1,3.1-2.3,3.5-2.4,8.2c-0.2,5.8,0.8,7.1,2.9,7.9l0.2,0.2c1.8,1,2.6,2.1,2.6,3.2V67
					c0,0,0.3,0.3,0.6,0.5c0.3,0.2,0.5,0.2,0.5,0.2s0.3-0.2,1-0.6c1-1,2.6-1.9,3.9-1.9c0.3,0,2.7-1,5.8-2.3l1-0.5
					c4.2-1.9,5.8-2.9,7.1-2.9c1,0,1.6,0.5,1.9,0.8c1,1,0.6,2.4,0.3,4.8l-0.2,0.8c-0.8,7.7-4.7,21.3-8.4,29.5
					c-6,12.9-18.5,29.7-27.4,36.4c-4.2,2.9-11.6,7.3-14.5,7.3c-0.8,0-1.6-0.3-2.1-1c-0.5-0.6-2.3-2.6-0.8-13.5
					c1.8-14.8,6.8-26.8,19.7-47.4c1.8-2.9,2.9-5.3,3.4-6.6c-0.2-0.2-0.3-0.3-0.6-0.5c-0.3-0.3-0.5-0.8-0.6-1.5
					c-0.6-0.3-1.8-1.1-4-3.4c-1.9-1.9-3.2-2.6-4.8-2.6c-1.1,0-2.4,0.3-4.4,1.1c-5.5,2.3-11.1,8.5-17.6,19
					c-9.2,14.7-12.6,34.8-8.2,46.4c2.3,5.8,6.9,11.9,9.8,13.5h0.2c1.3,1,3.7,2.9,5.2,4.5c1,1.5,3.4,3.2,4.8,4c1.9,1,3.9,1.5,6.1,1.5
					c8.1,0,18.1-6.6,29-18.9c16-17.7,27.2-40.6,30.1-61.3C442.8,67.5,442.4,61.2,441.3,58.3z"/>
				<path class="st3" d="M382.5,154.3c-2.4,0-4.6-0.5-6.8-1.6c-1.5-0.8-4.1-2.7-5.3-4.4c-1.1-1.3-3-2.8-4.5-3.9h0l-0.3-0.2
					c-3.4-1.9-8.2-8.5-10.5-14.3c-4.6-12.3-1-32.8,8.3-47.8c6.8-11,12.6-17.3,18.3-19.6c2.1-0.9,3.6-1.2,4.9-1.2
					c2.1,0,3.7,0.8,5.9,3c2.1,2.1,3.2,2.9,3.6,3.1l0.6,0.3l0.2,0.7c0.1,0.4,0.2,0.6,0.2,0.7c0.3,0.2,0.5,0.4,0.7,0.6l0.7,0.7
					l-0.3,0.9c-0.3,0.7-1.3,3.2-3.5,6.9c-12.8,20.5-17.7,32.3-19.5,46.8c-0.6,4.6-1,10.5,0.5,12.4c0.2,0.3,0.6,0.4,0.9,0.4
					c2.1,0,8.8-3.6,13.7-7c8.6-6.6,21-23,26.9-35.8c3.7-8.2,7.5-21.5,8.3-29l0-0.1l0.2-1.4c0.2-1.6,0.3-2.6,0-2.9
					c-0.2-0.2-0.5-0.4-0.9-0.4c-0.6,0-1.8,0.6-3.8,1.5c-0.8,0.4-1.6,0.8-2.7,1.3l-0.9,0.5c-5.7,2.4-6.1,2.4-6.5,2.4
					c-0.7,0-2,0.7-2.8,1.5l-0.2,0.1c-0.7,0.5-1.1,0.7-1.2,0.8l-0.3,0.2H406c-0.2,0-0.6-0.1-1.2-0.3c-0.5-0.3-0.9-0.6-1-0.8l-0.4-0.4
					v-0.8c0-0.6-0.7-1.3-1.8-1.9l-0.3-0.2c-2.8-1.2-3.7-3.5-3.6-9.2c0.2-4.9,0.4-5.7,2.7-9c3.7-5.1,10-8.2,16.4-8.2h0.3
					c6.4,0.2,10.8,2.2,13.3,6.2l0,0c1.3,1.5,3.3,3.3,4.7,4.3c2.4,1.4,6.6,6.1,7.6,9c1.3,3.4,1.5,10,0.4,15.1
					c-3,20.9-14.4,44-30.5,62C401.1,147.8,391,154.3,382.5,154.3z M366.6,141.3h0.2l0.4,0.3c0.6,0.4,3.6,2.7,5.4,4.7l0.1,0.2
					c0.7,1.1,2.8,2.7,4.3,3.6c1.7,0.9,3.4,1.3,5.4,1.3c7.5,0,17.2-6.3,27.9-18.4c15.8-17.5,26.9-40.2,29.8-60.5l0-0.1
					c1.1-4.9,0.7-10.9-0.3-13.5l0-0.1c-0.7-2.1-4.4-6.4-6.2-7.3l-0.1-0.1c-1.8-1.3-4-3.3-5.3-4.7l-0.3-0.4
					c-1.9-3.2-5.5-4.8-10.9-4.9l-0.3,0c-5.5,0-10.8,2.7-13.9,7c-1.9,2.7-2,2.9-2.1,7.4c-0.2,5.6,0.8,6,1.9,6.4l0.3,0.1l0.2,0.2
					c1.8,1.1,2.7,2.2,3,3.3c1.2-1.1,2.9-2,4.5-2.1c0.3-0.1,1.3-0.4,5.4-2.1l0.9-0.4c1.1-0.5,1.9-0.9,2.7-1.3
					c2.5-1.2,3.8-1.8,5.1-1.8c1.5,0,2.5,0.8,3,1.2c1.4,1.4,1.2,3.2,0.8,5.4l-0.3,1.5c-0.8,7.8-4.7,21.5-8.5,29.9
					c-6.1,13.2-18.9,30.1-27.9,37c-0.2,0.1-11,7.6-15.4,7.6c-1.3,0-2.6-0.6-3.3-1.6c-1.2-1.6-2.4-4.7-1.1-14.6
					c1.8-15,6.8-27.1,19.9-48c1.3-2.1,2.3-4,2.8-5.4c-0.4-0.4-0.6-0.9-0.8-1.4c-0.7-0.5-1.9-1.4-3.8-3.3c-1.8-1.8-2.7-2.1-3.8-2.1
					c-0.9,0-2.1,0.3-3.8,1c-5.1,2.1-10.4,7.9-16.9,18.4c-8.8,14-12.3,33.8-8.1,45.1C359.8,134.1,364,139.6,366.6,141.3z M410.8,63.6
					C410.8,63.6,410.8,63.6,410.8,63.6C410.8,63.6,410.8,63.6,410.8,63.6z"/>
			</g>
			<g>
				<path class="st3" d="M382.5,156c-2.7,0-5.1-0.6-7.6-1.8c-1.5-0.8-4.4-2.8-5.9-4.9c-1-1.1-2.7-2.5-4-3.5l-0.4-0.2
					c-3.8-2.1-8.8-8.9-11.3-15.2c-4.8-12.8-1.1-33.9,8.5-49.3c7-11.4,13.1-17.8,19.1-20.3c2.3-1,4-1.4,5.6-1.4
					c3.2,0,5.3,1.7,7.1,3.5c2.3,2.3,3.1,2.7,3.2,2.8l1.3,0.7l0.4,1.4c0,0,0,0,0,0c0.2,0.2,0.3,0.3,0.4,0.4l1.5,1.5l-0.7,1.9
					c-0.3,0.7-1.3,3.4-3.7,7.2c-12.7,20.3-17.5,31.9-19.2,46.1c-1,7.5-0.4,10.1,0,10.9c1.8-0.3,7.3-3.1,12.4-6.7
					c8.2-6.3,20.6-22.8,26.3-35.1c3.6-7.9,7.3-21.2,8.1-28.5l0.3-1.6c0-0.3,0.1-0.7,0.1-1c-0.6,0.3-1.5,0.7-2.4,1.1
					c-0.8,0.4-1.6,0.8-2.7,1.3l-1.1,0.5c-6,2.5-6.3,2.5-7.1,2.5c-0.2,0-1,0.4-1.6,1l-0.3,0.3c-0.8,0.6-1.3,0.9-1.5,1l-0.7,0.3H406
					c-0.6,0-1.3-0.2-1.9-0.5c-0.7-0.4-1.3-0.9-1.5-1.1l-0.9-0.9v-1.3c-0.1-0.1-0.4-0.3-0.9-0.6l-0.5-0.3c-3.8-1.8-4.4-5.3-4.3-10.7
					c0.2-5.2,0.5-6.3,3-10c4-5.6,10.8-9,17.8-9h0.3c6.9,0.2,11.8,2.5,14.6,6.9l0,0c1.2,1.3,3,3,4.3,3.9c2.8,1.6,7.1,6.5,8.2,9.9
					c1.4,3.8,1.6,10.6,0.5,16c-3,21.2-14.6,44.7-30.9,62.9C402.1,149.3,391.5,156,382.5,156z M367.2,139.6h0.3l0.9,0.6
					c0.8,0.6,3.8,2.9,5.6,4.9l0.3,0.4c0.5,0.8,2.3,2.2,3.7,3c1.4,0.7,2.9,1,4.6,1c6.9,0,16.4-6.3,26.6-17.8
					c15.6-17.3,26.5-39.6,29.4-59.6l0-0.2c1-4.5,0.7-10.2-0.2-12.5l-0.1-0.2c-0.5-1.7-3.9-5.6-5.4-6.3l-0.3-0.2
					c-1.7-1.2-3.9-3.2-5.5-4.9l-0.4-0.4l-0.2-0.3c-1-1.7-3.1-3.9-9.4-4.1l-0.2,0c-4.9,0-9.8,2.4-12.5,6.2c-1.7,2.4-1.7,2.4-1.8,6.4
					c-0.1,3.8,0.4,4.5,0.4,4.6l0,0c0,0,0.1,0.1,0.4,0.2l0.6,0.2l0.3,0.3c1.1,0.7,1.9,1.4,2.5,2.1c1.1-0.6,2.3-1.2,3.6-1.3
					c0.4-0.1,1.6-0.6,4.9-2l0.9-0.4c1.1-0.5,2-0.9,2.7-1.3c2.7-1.3,4.1-2,5.8-2c1.6,0,3.1,0.6,4.2,1.8c2,2,1.7,4.5,1.3,6.9l-0.3,1.5
					c-0.9,8-4.8,21.8-8.6,30.3c-6.2,13.4-19.2,30.7-28.4,37.7c-1.3,0.9-11.6,7.9-16.5,7.9c-1.9,0-3.6-0.8-4.7-2.3
					c-1.5-2-2.8-5.4-1.4-15.9c1.8-15.2,6.9-27.5,20.1-48.7c1-1.6,1.8-3.1,2.3-4.3c-0.1-0.2-0.1-0.3-0.2-0.5
					c-0.8-0.6-1.9-1.5-3.6-3.2c-1.6-1.6-2.2-1.6-2.6-1.6c-0.7,0-1.7,0.3-3.1,0.9c-4.6,1.9-9.9,7.7-16.1,17.7
					c-8.5,13.6-12,32.8-7.9,43.6C361.3,133.1,365.1,137.9,367.2,139.6z M376.9,136.1C376.9,136.1,376.9,136.1,376.9,136.1z"/>
				<path class="st3" d="M382.5,157.5c-3,0-5.6-0.6-8.2-1.9c-0.5-0.3-4.3-2.4-6.4-5.3c-0.8-0.9-2.2-2-3.6-3.2l-0.3-0.2
					c-4.1-2.3-9.3-9.3-11.9-16c-4.9-13.2-1.2-34.9,8.6-50.7c7.2-11.6,13.4-18.3,19.8-20.9c2.5-1,4.3-1.5,6.2-1.5c3.7,0,6.2,2,8.2,4
					c0.2,0.2,0.4,0.4,0.5,0.5c-0.7-2.2-0.7-4.6-0.7-7c0.2-5.5,0.6-6.9,3.2-10.8c4.3-6,11.6-9.6,19.1-9.6h0.3
					c7.4,0.2,12.7,2.7,15.8,7.4c1.1,1.2,2.8,2.8,4,3.6c3,1.8,7.6,6.9,8.8,10.7c1.5,4,1.7,11,0.5,16.7c-3.1,21.5-14.8,45.2-31.3,63.6
					C402.9,150.6,391.9,157.5,382.5,157.5z M386.5,60.9c-1.4,0-2.9,0.4-5,1.3c-5.7,2.4-11.6,8.6-18.4,19.7c-9.4,15-13,35.6-8.4,48
					c2.3,5.9,7.1,12.5,10.6,14.4l0.6,0.3c0.8,0.6,2.8,2.2,4.2,3.7l0.1,0.1c1.4,1.9,4.2,3.8,5.4,4.5c2.2,1.1,4.4,1.6,6.8,1.6
					c8.6,0,18.8-6.5,30.3-19.4c16.2-18,27.6-41.2,30.6-62.1l0-0.1c1.1-5.1,0.9-11.6-0.4-15.1c-1-3-5.1-7.7-7.6-9.1l-0.1-0.1
					c-1.4-1-3.3-2.8-4.6-4.2l-0.2-0.2c-2.5-3.9-7.1-6-13.4-6.2l-0.3,0c-6.5,0-12.9,3.2-16.6,8.4c-2.3,3.3-2.5,4.2-2.7,9.1
					c-0.2,5.7,0.7,8,3.4,9.3l0.6,0.3c0.5,0.3,0.9,0.6,1.2,0.9l0.4,0.4v1.2l0.5,0.5c0.1,0.1,0.6,0.5,1.1,0.8c0.5,0.2,0.9,0.3,1.3,0.3
					h0.4l0.4-0.2c0.1,0,0.5-0.2,1.2-0.8l0.3-0.2c0.6-0.6,1.7-1.3,2.4-1.4l0.2,0c0.4,0,0.8,0,6.5-2.4l1-0.5c1.1-0.5,1.9-0.9,2.7-1.3
					c0.9-0.4,1.8-0.9,2.4-1.1l2.4-1l-0.3,2.6c0,0.3-0.1,0.7-0.1,1.1l-0.3,1.6c-0.8,7.3-4.6,20.8-8.2,28.9
					c-5.8,12.6-18.3,29.3-26.8,35.7c-4.9,3.4-10.8,6.5-13,6.9l-1.2,0.2l-0.5-1.1c-0.6-1.3-1-4.4-0.1-11.7
					c1.7-14.4,6.6-26.2,19.4-46.7c2.2-3.7,3.3-6.2,3.5-6.9l0.4-1l-0.8-0.8c-0.1-0.1-0.2-0.2-0.3-0.3l-0.4-0.3l-0.3-1.3l-0.7-0.4
					c-0.5-0.2-1.5-1-3.6-3.1C390.7,62.2,389,60.9,386.5,60.9z M401.7,70.5l-0.6,1.7c-0.3,0.8-1.4,3.5-3.8,7.4
					c-12.5,20.1-17.3,31.6-19,45.5c-0.6,4.8-0.6,7.4-0.4,8.8c2.3-0.9,6.4-3.1,10.5-6c8.1-6.2,20.2-22.3,25.8-34.5
					c3.5-7.7,7.2-20.8,8-28c-0.7,0.4-1.6,0.7-2.5,1.2l-1,0.5c-5.5,2.3-6.5,2.6-7.5,2.7c-0.2,0.1-0.5,0.3-0.8,0.6l-0.5,0.4
					c-0.9,0.7-1.4,1-1.7,1.1l-1,0.5H406c-0.8,0-1.7-0.2-2.6-0.7C402.7,71.3,402.1,70.8,401.7,70.5z M382.5,151.1
					c-1.9,0-3.6-0.4-5.2-1.2c-1.5-0.8-3.5-2.4-4.3-3.5l-0.2-0.3c-1.8-2-4.6-4.1-5.4-4.7l-0.5-0.3h-0.3l-0.4-0.3
					c-2.5-1.9-6.3-7.1-8.3-12.1c-4.2-11.3-0.7-31,8.1-44.9c6.3-10.3,11.8-16.3,16.8-18.3c1.6-0.7,2.8-1,3.7-1c1,0,1.9,0.3,3.6,2.1
					c1.4,1.4,2.5,2.4,3.4,3.1l0.3,0.2l0.2,0.4c0,0.1,0.1,0.2,0.2,0.3l0.3,0.7l-0.3,0.7c-0.5,1-1.3,2.5-2.4,4.4
					c-13.1,21-18.1,33.1-19.9,48.1c-1.3,10.1-0.1,13.2,1.1,14.8c0.8,1,2.1,1.7,3.5,1.7c3.7,0,11.8-5,15.6-7.6
					c9-6.9,21.8-23.8,27.9-37.1c3.8-8.3,7.7-22,8.5-29.9l0.3-1.6c0.4-2.5,0.5-4.2-0.9-5.6c-0.8-0.8-2-1.3-3.2-1.3
					c-1.4,0-2.6,0.6-5.2,1.8c-0.8,0.4-1.6,0.8-2.7,1.3l-0.8,0.4c-3.4,1.4-4.7,1.9-5.1,2.1l-0.4,0.1c-0.9,0.1-1.9,0.4-3,1.1l-1.1,0.7
					l-0.8-1c-0.5-0.6-1.2-1.2-2.1-1.7l-0.4-0.3l-0.3-0.1c-0.1,0-0.2-0.1-0.2-0.1h-0.4l-0.5-0.6c-0.4-0.5-0.8-1.6-0.7-5.5
					c0.1-4.3,0.2-4.5,2.1-7.2c3.1-4.3,8.4-6.9,13.8-6.9l0.2,0c7.1,0.2,9.5,2.8,10.7,4.8l0.1,0.2l0.2,0.2c1.5,1.7,3.7,3.7,5.3,4.8
					l0.2,0.2c1.7,0.9,5.4,5.1,6,7.2l0.1,0.2c1,2.5,1.3,8.4,0.2,13.3l0,0.2c-2.8,20.2-14,42.8-29.7,60.3
					C399.7,144.6,389.8,151.1,382.5,151.1z M374.4,143.5c0.2,0.2,0.4,0.4,0.6,0.6l0.4,0.5c0.3,0.5,1.9,1.8,3.2,2.5
					c1.2,0.6,2.4,0.9,3.8,0.9c6.4,0,15.7-6.3,25.5-17.3c15.4-17.1,26.2-39.1,29-58.8l0.1-0.3c1-4.6,0.6-9.9-0.1-11.7l-0.1-0.3
					c-0.4-1.4-3.5-4.9-4.7-5.5l-0.4-0.2c-1.9-1.3-4.2-3.4-5.8-5.2l-0.5-0.6l-0.2-0.3c-0.5-0.9-1.9-3.2-8.2-3.4l-0.2,0
					c-4.5,0-8.8,2.2-11.3,5.6c-1.4,2-1.4,2-1.5,5.6c-0.1,1.9,0.1,2.9,0.1,3.4l0.7,0.3l0.4,0.4c0.7,0.4,1.3,0.9,1.9,1.4
					c1-0.5,2-0.8,3-0.9c0.5-0.2,1.8-0.7,4.7-1.9l0.8-0.4c1.1-0.5,1.9-0.9,2.6-1.2c2.9-1.4,4.5-2.2,6.6-2.2c2,0,3.9,0.8,5.3,2.2
					c2.5,2.5,2.1,5.6,1.8,8.1l-0.3,1.6c-0.9,8-4.9,22.1-8.7,30.7c-6.3,13.6-19.5,31.1-28.8,38.2c-2,1.4-12.1,8.2-17.4,8.2
					C375.8,143.8,375.1,143.7,374.4,143.5z M367.7,138.1h0.2l1.3,0.9c0.1,0.1,0.3,0.2,0.5,0.3c-1.2-2.5-1.9-6.6-0.7-15.4
					c1.8-15.5,7-27.9,20.3-49.3c0.8-1.3,1.4-2.4,1.8-3.3c-0.9-0.7-1.9-1.6-3.1-2.8c-1.1-1.1-1.4-1.2-1.5-1.2c-0.4,0-1.1,0.1-2.6,0.8
					c-4.3,1.8-9.4,7.4-15.4,17.1c-8.3,13.3-11.7,31.8-7.8,42.3C362.5,132,365.8,136.3,367.7,138.1z M404.2,59.5L404.2,59.5
					L404.2,59.5z"/>
			</g>
		</g>
	</g>
	<g>
		<path class="st4" d="M293.5,187.3v3.4h-19.7v-2.7l11.1-10.8c2.9-2.7,3.4-4.5,3.4-6.3c0-2.7-1.9-4.5-5.8-4.5c-2.9,0-5.3,1-6.9,2.9
			l-2.7-2.3c2.1-2.6,5.8-4.2,10-4.2c5.6,0,9.4,2.9,9.4,7.6c0,2.7-0.8,5-4.5,8.5l-8.4,8.1h14.2V187.3z"/>
		<path class="st4" d="M295.6,177c0-8.9,4.8-14,11.1-14c6.4,0,11.1,5.2,11.1,14c0,8.9-4.8,14-11.1,14C300.4,191,295.6,186,295.6,177
			z M314.1,177c0-6.9-2.9-10.5-7.3-10.5c-4.4,0-7.3,3.5-7.3,10.5s2.9,10.5,7.3,10.5C311.1,187.6,314.1,184.1,314.1,177z"/>
		<path class="st4" d="M339.9,187.3v3.4h-19.7v-2.7l11.1-10.8c2.9-2.7,3.4-4.5,3.4-6.3c0-2.7-1.9-4.5-5.8-4.5c-2.9,0-5.3,1-6.9,2.9
			l-2.7-2.3c2.1-2.6,5.8-4.2,10-4.2c5.6,0,9.4,2.9,9.4,7.6c0,2.7-0.8,5-4.5,8.5l-8.4,8.1h14.2V187.3z"/>
		<path class="st4" d="M350.7,163.3v27.4h-3.9v-24h-6.1v-3.4H350.7z"/>
	</g>
	<g>
		<g>
			
				<linearGradient id="SVGID_4_" gradientUnits="userSpaceOnUse" x1="73.8647" y1="144.1931" x2="178.7473" y2="144.1931" gradientTransform="matrix(1 -6.006659e-03 -6.006659e-03 -1 0.5306 239.5151)">
				<stop  offset="0" style="stop-color:#4475B8"/>
				<stop  offset="1" style="stop-color:#25346E"/>
			</linearGradient>
			<path class="st5" d="M178.2,89.4c0,0.2-0.2,0.2-0.2,0.3c-0.5,0.6-1.1,1.1-1.5,1h-0.2c-0.3-0.2-1,0.2-1.5,0.5
				c-1.1,1-1.1,1-0.2-0.5c0.6-0.6,1.5-1.1,1.6-1l0,0c0.2,0.2,1,0,1.3-0.5c0.2-0.2,0.3-0.3,0.5-0.3c-0.2-2.7,0-5.2,0-7.1v1l-0.3,1
				c-0.5,0.6-1,1.1-1.5,1.8c0,0.2-0.2,0.2-0.3,0.3c-12.9,16.4-31.1,35.6-40.8,42.6c-10.5,7.7-20.6,11.8-29.2,11.8h-0.6
				c-5.6,0-7.7-0.6-9.7-4.4c-2.7-6.1-2.4-11.6,1.1-22.1c0.6-1.9,1.3-4.4,3.5-4.4c0.5,0,1,0.2,1.5,0.3c1.1,0.5,2.9,0.6,5,0.6
				c3.4,0,7.1-0.6,9.4-1.8c9.4-4,22.6-15.8,30.1-26.8c3.9-5.6,6.8-13.7,7.6-21.1c0.5-6.3-1-10-5-13.1c-1-0.8-3.5-3.2-4.7-4.4
				l-0.2-0.2c-1.6-2.3-5.5-3.5-10.2-3.5c-3.1,0-6.6,0.6-9.8,1.8c-11.1,4-24.8,16.1-34.3,29.8c-16.8,24.7-20.5,44.2-11.4,58.2
				c3.4,5.2,8.4,10.3,11.8,11.9c1.9,1,4.5,2.7,6.1,3.9c1.3,1.1,4,2.6,5.8,3.1c2.9,1,5.6,1.3,8.4,1.3c4.5,0,9.2-1.3,14.5-3.5
				c14-6.6,32.4-25,50.8-50.5l1.1-1.5l1.6-2.1C178.4,91.2,178.2,90.4,178.2,89.4z M147.6,67.7c0.2-1,0.5-1,0.6-0.2
				c0,0.6-0.5,1.6-0.6,2.3C146.6,71,146.6,69.6,147.6,67.7z M145.5,75.6c-0.2,0.6,0.2,0.2,0.6-1c2.1-3.2,2.4-2.4,0.5,1.1
				c-2.1,4-4.7,7.3-5.2,6.8c-0.2-0.2-1.1,0.2-1.9,0.8c-1.1,1-1,0.5,0.5-1.3c1-1.5,3.1-4.5,4.2-7.1C146.5,71.2,146.6,71.2,145.5,75.6
				z M106.2,74.6c0-1,9.2-11.6,9.8-11.6c0,0-1.9,2.7-4.5,6C105.8,75.7,106.2,75.4,106.2,74.6z M114.2,81.5
				c10.2-14.3,20.2-24.8,26.8-28.1c1.1-0.5,1.9-0.8,2.6-0.8c0.8,0,1.5,0.3,1.9,1c1,1.3,0.8,3.1-0.5,8.4
				c-3.5,16.8-17.1,33.5-32.9,40.9c-2.9,1.3-5.6,2.1-7.4,2.1c-1,0-1.8-0.2-2.3-0.8c-0.3-0.3-0.6-1-0.6-1.5
				C102,100.7,111.6,85.1,114.2,81.5z M80.4,112.8c-1.1,1.1,2.9-13.2,4.7-15.8c1-1.3,0.6-0.2-1.9,8.7
				C81.8,109.4,80.5,112.6,80.4,112.8z M82.9,117.6l0.5-5.3c0-2.7,1-6.9,1.8-8.9c1.5-4.4,3.1-6.4,2.3-2.9c-0.5,1.1-1.5,5.5-2.6,9.5
				L82.9,117.6z M87,114.6c-0.2-1.8,2.4-11,3.2-11.6c0.5-0.5,0.6-0.5,0.6,0.3C90.7,104.7,87,115.7,87,114.6z M92.8,121.5l0.5-2.9
				c0.3-1.6,1-3.9,1.5-5l1.1-2.3l-0.5,2.1c-0.5,1.3-1,3.7-1.6,5.2L92.8,121.5z"/>
			
				<linearGradient id="SVGID_5_" gradientUnits="userSpaceOnUse" x1="176.7822" y1="150.4716" x2="182.9633" y2="150.4716" gradientTransform="matrix(1 -6.006659e-03 -6.006659e-03 -1 0.5306 239.5151)">
				<stop  offset="0" style="stop-color:#4475B8"/>
				<stop  offset="1" style="stop-color:#25346E"/>
			</linearGradient>
			<path class="st6" d="M178.2,89.4v-0.5c-0.2-2.7,0-5.2,0-7.1v1l-0.3,1c-0.5,0.6-1,1.1-1.5,1.8c0,1.5,0,2.9,0,4.2l0,0
				c0,0.3,0,0.6,0,0.8c0,1.3,0.2,2.4,0.2,3.5l1.6-2.1C178.4,91.2,178.2,90.4,178.2,89.4z M180.5,85.2c0,0.2-0.2,0.2-0.2,0.2
				c0,0.2,0,0.3,0.2,0.3V85.2z M179.5,84.1c0,0.3,0.3,0.3,1-0.3c0-0.3,0-0.5,0-0.6C180,83.5,179.5,83.9,179.5,84.1z M181.6,84.1
				L181.6,84.1c-0.2,0.5-0.2,0.8-0.2,1c0.2-0.2,0.3-0.3,0.6-0.5C182.9,83.3,182.7,83.3,181.6,84.1z M181.4,82.3c0,0.2,0,0.2,0,0.3
				C181.9,82,181.9,82,181.4,82.3z"/>
			
				<linearGradient id="SVGID_6_" gradientUnits="userSpaceOnUse" x1="355.172" y1="140.8343" x2="442.9415" y2="140.8343" gradientTransform="matrix(1 -6.006659e-03 -6.006659e-03 -1 0.5306 239.5151)">
				<stop  offset="0" style="stop-color:#4475B8"/>
				<stop  offset="1" style="stop-color:#25346E"/>
			</linearGradient>
			<path class="st7" d="M441.3,58.3c-0.8-2.6-4.8-7.1-6.9-8.2c-1.6-1.1-3.7-3.1-5-4.5l-0.2-0.2c-2.3-3.7-6.3-5.5-12.1-5.6h-0.3
				c-6,0-11.8,2.9-15.2,7.6c-2.1,3.1-2.3,3.5-2.4,8.2c-0.2,5.8,0.8,7.1,2.9,7.9l0.2,0.2c1.8,1,2.6,2.1,2.6,3.2V67
				c0,0,0.3,0.3,0.6,0.5c0.3,0.2,0.5,0.2,0.5,0.2s0.3-0.2,1-0.6c1-1,2.6-1.9,3.9-1.9c0.3,0,2.7-1,5.8-2.3l1-0.5
				c4.2-1.9,5.8-2.9,7.1-2.9c1,0,1.6,0.5,1.9,0.8c1,1,0.6,2.4,0.3,4.8l-0.2,0.8c-0.8,7.7-4.7,21.3-8.4,29.5
				c-6,12.9-18.5,29.7-27.4,36.4c-4.2,2.9-11.6,7.3-14.5,7.3c-0.8,0-1.6-0.3-2.1-1c-0.5-0.6-2.3-2.6-0.8-13.5
				c1.8-14.8,6.8-26.8,19.7-47.4c1.8-2.9,2.9-5.3,3.4-6.6c-0.2-0.2-0.3-0.3-0.6-0.5c-0.3-0.3-0.5-0.8-0.6-1.5
				c-0.6-0.3-1.8-1.1-4-3.4c-1.9-1.9-3.2-2.6-4.8-2.6c-1.1,0-2.4,0.3-4.4,1.1c-5.5,2.3-11.1,8.5-17.6,19
				c-9.2,14.7-12.6,34.8-8.2,46.4c2.3,5.8,6.9,11.9,9.8,13.5h0.2c1.3,1,3.7,2.9,5.2,4.5c1,1.5,3.4,3.2,4.8,4c1.9,1,3.9,1.5,6.1,1.5
				c8.1,0,18.1-6.6,29-18.9c16-17.7,27.2-40.6,30.1-61.3C442.8,67.5,442.5,61.2,441.3,58.3z M403.1,61.2c-0.6,0-0.2-1.1,1.1-2.9
				l1.6-2.1l-1.1,2.6C404.1,60.1,403.4,61.2,403.1,61.2z M405.9,61.2c-0.5,0.6-1.1,1.3-1.5,1.3c0,0,0-0.6,0.5-1.5
				c0.5-1,1.1-1.6,1.1-1.6C406.3,59.6,406.3,60.2,405.9,61.2z M377.8,104.3c-2.1,5-3.4,6.8-2.4,3.7c1-2.7,3.9-9.2,4-8.7
				C379.6,99.3,378.8,101.5,377.8,104.3z M363.6,102.6c0.8-3.9,6.6-16.6,7.7-16.6c0.2,0-0.5,1.3-1.5,3.2c-0.6,1.6-2.9,6-4.2,9.4
				C364.3,102.3,363.3,104.1,363.6,102.6z M367.2,103.6c-1.6,4.4-2.6,6.1-2.4,4.5c1.5-8.4,8.5-23.4,14.7-30.3l2.3-2.4l-1.9,2.9
				c-1,1.6-2.4,3.7-3.1,4.8c-0.6,1-2.6,4.4-4.2,7.3C371.4,93.6,368.6,99.6,367.2,103.6z M373.8,93.6c3.4-6.6,9.4-16.1,12.7-19.7
				c2.7-2.9,2.7-2.7-0.5,1.8c-1.9,2.7-4.7,6.8-6.1,9.4c-1.5,2.3-4,7.3-6,10.6C370.4,102.8,370.2,101.5,373.8,93.6z M429.2,80.9
				c0.2,0.6,0.2,1.1,0,1.6c-0.2,0.3-0.5-0.2-0.5-1.1C428.9,80.4,428.9,80.4,429.2,80.9z M428.7,83.8c0,0.5-1,3.9-2.4,7.3
				c-1.9,5.2-3.1,7.3-3.1,6.1C423.3,96.5,428.4,83.8,428.7,83.8z M411.5,125.2c-1,1.1-1.5,1.6-1.5,1c0,0,0.5-0.6,1.1-1.1
				C412.5,124.1,412.8,124.1,411.5,125.2z M429.9,95.4c-2.6,6.3-6.4,13.4-10.3,19c-3.2,4.7-7.9,10.3-6.6,8.1
				c0.3-0.6,2.3-3.5,4.5-6.6c4-6,8.7-14.3,11.8-21.8C431.8,88.6,432,89.3,429.9,95.4z M430.5,86c-1,3.7-4.4,11-6.9,16.1
				c-2.9,5.5-5.6,10.5-6.6,11.6c-1.1,1.1-0.6,0.2,0.8-2.3c4.2-7.3,7.7-15,11.3-25C432.9,76,433.6,75.6,430.5,86z"/>
		</g>
		<g>
			<g>
				
					<linearGradient id="SVGID_7_" gradientUnits="userSpaceOnUse" x1="73.8647" y1="144.1931" x2="254.6629" y2="144.1931" gradientTransform="matrix(1 -6.006659e-03 -6.006659e-03 -1 0.5306 239.5151)">
					<stop  offset="0" style="stop-color:#4475B8"/>
					<stop  offset="1" style="stop-color:#25346E"/>
				</linearGradient>
				<path class="st8" d="M249.6,127.2c0.2-0.3,0.3-0.5,0.5-0.8c0.2-0.3,0.3-0.8,0.6-1.1c0.8-1.6,1.9-3.7,3.2-6.3
					c0.2-0.3,0.3-0.6,0.5-1.1C253.2,120.4,250.6,125.2,249.6,127.2z M178.2,89.4v-0.5c-0.2-2.7,0-5.2,0-7.1v1l-0.3,1
					c-0.5,0.6-1,1.1-1.5,1.8c0,0.2-0.2,0.2-0.3,0.3c-12.9,16.4-31.1,35.6-40.8,42.6c-10.5,7.7-20.6,11.8-29.2,11.8h-0.6
					c-5.6,0-7.7-0.6-9.7-4.4c-2.7-6.1-2.4-11.6,1.1-22.1c0.6-1.9,1.3-4.4,3.5-4.4c0.5,0,1,0.2,1.5,0.3c1.1,0.5,2.9,0.6,5,0.6
					c3.4,0,7.1-0.6,9.4-1.8c9.4-4,22.6-15.8,30.1-26.8c3.9-5.6,6.8-13.7,7.6-21.1c0.5-6.3-1-10-5-13.1c-1-0.8-3.5-3.2-4.7-4.4
					l-0.2-0.2c-1.6-2.3-5.5-3.5-10.2-3.5c-3.1,0-6.6,0.6-9.8,1.8c-11.1,4-24.8,16.1-34.3,29.8c-16.8,24.7-20.5,44.2-11.4,58.2
					c3.4,5.2,8.4,10.3,11.8,11.9c1.9,1,4.5,2.7,6.1,3.9c1.3,1.1,4,2.6,5.8,3.1c2.9,1,5.6,1.3,8.4,1.3c4.5,0,9.2-1.3,14.5-3.5
					c14-6.6,32.4-25,50.8-50.5l1.1-1.5l1.6-2.1C178.4,91.2,178.2,90.4,178.2,89.4z M147.6,67.7c0.2-1,0.5-1,0.6-0.2
					c0,0.6-0.5,1.6-0.6,2.3C146.6,71,146.6,69.6,147.6,67.7z M145.5,75.6c-0.2,0.6,0.2,0.2,0.6-1c2.1-3.2,2.4-2.4,0.5,1.1
					c-2.1,4-4.7,7.3-5.2,6.8c-0.2-0.2-1.1,0.2-1.9,0.8c-1.1,1-1,0.5,0.5-1.3c1-1.5,3.1-4.5,4.2-7.1
					C146.5,71.2,146.6,71.2,145.5,75.6z M106.2,74.6c0-1,9.2-11.6,9.8-11.6c0,0-1.9,2.7-4.5,6C105.8,75.7,106.2,75.4,106.2,74.6z
					 M114.2,81.5c10.2-14.3,20.2-24.8,26.8-28.1c1.1-0.5,1.9-0.8,2.6-0.8c0.8,0,1.5,0.3,1.9,1c1,1.3,0.8,3.1-0.5,8.4
					c-3.5,16.8-17.1,33.5-32.9,40.9c-2.9,1.3-5.6,2.1-7.4,2.1c-1,0-1.8-0.2-2.3-0.8c-0.3-0.3-0.6-1-0.6-1.5
					C102,100.7,111.6,85.1,114.2,81.5z M80.4,112.8c-1.1,1.1,2.9-13.2,4.7-15.8c1-1.3,0.6-0.2-1.9,8.7
					C81.8,109.4,80.5,112.6,80.4,112.8z M82.9,117.6l0.5-5.3c0-2.7,1-6.9,1.8-8.9c1.5-4.4,3.1-6.4,2.3-2.9c-0.5,1.1-1.5,5.5-2.6,9.5
					L82.9,117.6z M87,114.6c-0.2-1.8,2.4-11,3.2-11.6c0.5-0.5,0.6-0.5,0.6,0.3C90.7,104.7,87,115.7,87,114.6z M92.8,121.5l0.5-2.9
					c0.3-1.6,1-3.9,1.5-5l1.1-2.3l-0.5,2.1c-0.5,1.3-1,3.7-1.6,5.2L92.8,121.5z"/>
				
					<linearGradient id="SVGID_8_" gradientUnits="userSpaceOnUse" x1="178.7255" y1="136.582" x2="275.0508" y2="136.582" gradientTransform="matrix(1 -6.006659e-03 -6.006659e-03 -1 0.5306 239.5151)">
					<stop  offset="0" style="stop-color:#4475B8"/>
					<stop  offset="1" style="stop-color:#25346E"/>
				</linearGradient>
				<path class="st9" d="M272.2,84.4L272.2,84.4c-1.3,1.9-2.4,4-3.5,6.1l-0.2,0.3c-1.8,1.9-2.9,3.4-3.7,4.4c-0.8,1-1.5,1.9-2.3,2.9
					c-3.5,6.3-6.4,11.9-9,17.1l-0.6,0.5c-1.5,1.1-2.4,2.3-2.4,2.6c0,0.5,0.5,0,2.6-2.3l0,0c-1.1,2.1-2.1,4.2-3.1,6.1l5.3-5.8v-0.2
					c0.3-0.5,0.5-0.8,0.6-1.3c1.8-3.2,3.5-6.8,5.5-10.3l0,0c0-0.2-0.2-0.2-0.2-0.3c-0.2-0.2-0.2-0.3-0.3-0.3c0-0.2,0-0.2,0-0.2l0,0
					c0,0,0.2,0,0.2,0.2l0.2,0.2c0,0,0.2,0,0.3,0l0,0c5.2-9.7,10.5-19.5,12.7-23.5C273.8,81.8,273,83.1,272.2,84.4z M181.4,82.3
					c0,0.2,0,0.2,0,0.3C181.9,82,181.9,82,181.4,82.3z M181.6,84.1L181.6,84.1c-0.2,0.5-0.2,0.8-0.2,1c0.2-0.2,0.3-0.3,0.6-0.5
					C182.9,83.3,182.7,83.3,181.6,84.1z M179.5,84.1c0,0.3,0.3,0.3,1-0.3c0-0.3,0-0.5,0-0.6C180,83.5,179.5,83.9,179.5,84.1z
					 M180.5,85.2c0,0.2-0.2,0.2-0.2,0.2c0,0.2,0,0.3,0.2,0.3V85.2z M178.7,91.7l-0.3,0.3c0,1,0.2,1.8,0.3,2.7c0-0.2,0-0.5,0-0.6
					C178.5,92.7,178.7,91.7,178.7,91.7z"/>
				
					<linearGradient id="SVGID_9_" gradientUnits="userSpaceOnUse" x1="156.9125" y1="136.3795" x2="274.7184" y2="136.3795" gradientTransform="matrix(1 -6.006659e-03 -6.006659e-03 -1 0.5306 239.5151)">
					<stop  offset="0" style="stop-color:#4475B8"/>
					<stop  offset="1" style="stop-color:#25346E"/>
				</linearGradient>
				<path class="st10" d="M274.1,45.4c-1.6-0.5-3.4-2.4-3.5-2.6c-1.6-1.6-1.8-1.8-5.6-1.9h-0.6c-4.5,0-7.4,1-16,6.3
					c-11.1,7.1-25.8,19.8-42.7,37.1l-9.5,10l-2.9-1.3l0.5-6.1l0.3-2.6c0.6-4,1.5-10,2.4-15c1.9-10.3,1.8-10.6,1.1-11.8
					c-0.3-0.5-0.8-1-1-1.1c-2.1-0.6-4.4-3.9-5.2-5.2c-0.5-0.8-1.6-1.3-2.7-1.3c-0.5,0-0.8,0-1.1,0.2c-0.2,0.2-0.3,0.2-0.5,0.3l0,0
					c-0.2,0.2-0.3,0.3-0.5,0.5c-0.5,0.5-0.8,1.1-1.3,1.9c-0.2,0.3-0.3,0.6-0.5,1c0,0.2-0.2,0.2-0.2,0.3c-0.2,0.3-0.3,0.8-0.5,1.1
					c0,0.2,0,0.2-0.2,0.3c-0.2,0.5-0.3,1-0.6,1.5c-0.2,0.3-0.2,0.6-0.3,1c-0.2,0.3-0.2,0.6-0.3,1c-0.2,0.6-0.5,1.3-0.6,1.9
					c-0.2,0.6-0.5,1.5-0.6,2.1c-0.2,0.6-0.3,1.3-0.5,2.1c-0.3,1.5-0.6,3.1-1,4.7c-0.2,0.8-0.3,1.6-0.5,2.4c-0.2,0.8-0.2,1.5-0.3,2.3
					c-0.2,0.5-0.2,1.1-0.2,1.6s-0.2,0.8-0.2,1.3c0,0.3,0,0.6-0.2,1.5c0,0.3,0,0.8-0.2,1.1c0,0.2,0,0.3,0,0.6c0,0.3,0,0.8-0.2,1.1
					c-0.2,1.9-0.2,4.4,0,7.1v0.5c0,0.8,0,1.8,0.2,2.7l0.3-0.3c0,0-0.2,1-0.2,2.6c0,0.2,0,0.5,0,0.6v0.2c0,0.3,0,0.6,0,1
					c0,0.3,0.2,0.6,0.2,1c0.3,1.9,0.6,3.5,0.8,4.7c0.2,0.6,0.3,1,0.3,1c0.2,0.6,0.3,1.3,0.6,1.9l1.8,5.6l-0.3,1.5l-4.5,5.3
					c-12.7,16.1-20.5,30-20.6,36.9c0,2.6,1.9,5.3,4.2,5.6c1.8,0.2,3.4,1.5,4.2,2.1l0.3,0.3c0.2,0.3,0.5,0.8,0.8,0.8
					c0.2,0,1-0.2,2.3-1.5c1-1,4.5-5.6,8.7-11.8c7.3-10.3,12.6-17.7,14.7-19.7l0.2,0.2l1.1-0.6c0.5,0,1.8,0,6.9,5
					c5.8,5.6,9.5,7.6,15.8,8.4c0.6,0,1.5,0,2.1,0c1,0,1.8,0,2.7-0.2c0.6,0,1.1-0.2,1.8-0.3c0.3-0.2,0.8-0.2,1.1-0.3
					c0.2,0,0.3-0.2,0.5-0.2c0.5-0.2,1-0.3,1.5-0.5c3.2-1.1,6.6-3.1,10.3-6c0.5-0.3,0.8-0.6,1.3-1c2.3-1.8,4.7-3.9,7.4-6.4
					c0.2-0.2,0.5-0.5,0.6-0.6l0.6-0.6c0.2-0.2,0.3-0.3,0.6-0.6l3.4-3.7c1-1.9,1.9-4,3.1-6.1l0,0c-2.1,2.3-2.6,2.7-2.6,2.3
					c0-0.2,1-1.3,2.4-2.6l0.6-0.5c2.6-5.2,5.5-10.8,9-17.1c-4.7,6.1-9.5,11.6-14.5,16.3c-1.5,1.5-2.9,2.7-4.5,4.2
					c-0.6,0.6-1.3,1.1-1.9,1.6c-1,0.8-1.9,1.6-3.1,2.4c-0.6,0.5-1.3,1-1.9,1.5c-2.1,1.5-4,2.7-6.1,3.9c-5.5,3.2-11.4,5-16.8,5
					c-6.1,0-10.8-2.3-12.7-6.4c0,0-1.8-2.9-1.8-4.4c0-2.7,26.3-31.3,31.3-36.4c9.7-9.8,17.1-16.1,30.1-25.8
					c11.1-8.2,11.8-10.5,11.9-10.5c0-1,0.8-2.3,1.6-3.1C274.1,46.4,274.1,45.7,274.1,45.4z M187.2,61.2c-0.3,1-1.8,4.8-1.9,7.6
					c-0.3,3.1-0.5,5.2-0.5,5.2S183.7,67,187.2,61.2z M181.9,84.6c-0.3,0.2-0.5,0.3-0.6,0.5l0,0c0,1.9-0.2,3.7-0.2,5.3
					c0,5.2,0,6.9-0.6,0.8l0,0c-0.2-1.9-0.3-3.7-0.2-5.5c0,0-0.2-0.2-0.2-0.3c0,0,0-0.2,0.2-0.2l0,0c0-0.5,0-1,0-1.5
					c-0.6,0.6-1,0.8-1,0.3c0-0.2,0.5-0.6,1-1.1c0.2-1.8,0.2-3.5,0.3-5.2c0.6-5.8,1.8-10.2,2.3-11.8c-0.6,3.1-1.1,6.9-1.5,10.8
					c-0.2,1.8-0.2,3.5-0.3,5.3c0.5-0.3,0.3-0.3,0,0.3c0,0.6,0,1.1,0,1.8l0.2-0.2C182.7,83.3,182.9,83.3,181.9,84.6z M161.9,157.6
					c0-1.3,2.4-6.6,2.9-6.6c0.2,0-0.3,1.6-1,3.7C162.3,158.6,161.9,159.2,161.9,157.6z M170.3,147.8c-1.6,2.6-3.7,6-4.5,7.9
					c-1.5,3.2-2.4,4.4-2.4,2.9c0-1.1,10.6-18.9,11.3-18.9C175.2,139.9,173.7,142.5,170.3,147.8z M179.8,133.3
					c-0.6,1.1-1.9,2.7-2.6,3.2c-0.5,0.5,0-0.6,1.1-2.3C180.8,130.5,181.8,129.9,179.8,133.3z M188.4,111c-1.1,1-3.9,3.5-3.4,4.7
					c0.5,1-3.5,3.2-4,3.5c0.3-0.6,6.4-11.1,7.6-11c1.3,0.2-0.6-0.8,1.5-1.1C192.1,106.8,189.3,110.1,188.4,111z M190.8,59.3
					c-0.6,1.5-1.1,2.1-1.1,1.5c0-1.3,2.1-6,2.4-4.8C192.1,56.4,191.6,58,190.8,59.3z M251.9,114.6c1-1.1,2.1-1.8,2.1-1.8
					c0.2,0-0.2,0.6-1.5,1.8c-1,1-1.9,1.8-2.1,1.8C250.3,116.4,250.9,115.4,251.9,114.6z M196.4,111c2.7-8.7,24.7-30.8,43-44.7
					C213.8,86.8,197.6,109.6,196.4,111z M201.4,108.1c2.9-5.5,31.6-38,55.9-52.1C230,74.1,203,106.2,201.4,108.1z"/>
				
					<linearGradient id="SVGID_10_" gradientUnits="userSpaceOnUse" x1="237.668" y1="111.5683" x2="363.2873" y2="111.5683" gradientTransform="matrix(1 -6.006659e-03 -6.006659e-03 -1 0.5306 239.5151)">
					<stop  offset="0" style="stop-color:#4475B8"/>
					<stop  offset="1" style="stop-color:#25346E"/>
				</linearGradient>
				<path class="st11" d="M361,56.2c-0.3-0.6-0.8-1.5-1.5-2.1c-1-1.1-1.9-2.1-2.6-2.6c-1.1-0.8-3.4-2.6-4.2-4
					c-11.3,0.5-20.8,3.7-28.2,7.7c-0.2,0.2-0.3,0.2-0.5,0.3l0,0l-13.5,9.5c-3.9,3.4-6,6-6,6c-0.2-0.3-0.5-1,0-1.9
					c3.4-5.2,7.3-13.2,8.9-17.1l-1.6-0.6l0.5-2.4c0-0.2,0-0.3,0-0.3c-1.6,0-5-3.9-5.6-5.8l-0.2-0.2c-0.2,0-0.3,0-0.5,0
					c-4.2,0-15.3,11.6-30.6,36.6v0.2c-0.2,0.2-0.2,0.3-0.3,0.6c-0.2,0.2-0.3,0.5-0.5,0.8c-2.4,4-7.6,13.9-12.7,23.5l0,0
					c0.5,0,1.1-0.3,1.8-0.8c1.5-1.3,1.5-1.3,0,0.5c-1.5,1.6-1.6,1.8-2.1,1c-1.9,3.5-3.7,7.1-5.5,10.3c-0.2,0.5-0.5,0.8-0.6,1.3
					c0,0,0,0,0,0.2c-0.2,0.3-0.3,0.8-0.8,1.5l0,0c-0.2,0.3-0.3,0.6-0.5,1.1c-1.3,2.6-2.4,4.7-3.2,6.3c-0.2,0.5-0.5,0.8-0.6,1.1
					c-0.2,0.3-0.3,0.6-0.5,0.8c-0.2,0.2-0.2,0.3-0.3,0.5v0.2c0,0.2-0.2,0.2-0.2,0.3c-2.9,6.9-5.2,13.2-6.8,19.7
					c-4,15.5-4.4,18.4-4.5,31.1c0,15.5,0.8,19,5.5,23.5c1.8,2.1,4.4,4,5.3,4.4c1.5,0.5,3.7,1.8,4.8,2.6c0,0-7.1-77.2,52.7-126.9
					c2.6-2.7,5.5-5.8,6.9-6.9c1.3-1.3-0.2,0.6-3.5,4.2c6.6-5.2,14-10,22.4-14.3c3.9-2.9,7.9-5.5,9.4-5.5c0.5,0,1,0.2,1.3,0.5
					c1.1,1,1.9,1.8-5.6,14.7c-4.4,7.4-9.8,16-14.5,22.6c-9,12.9-14,18.9-23.2,27.9c-6.3,6-9.2,8.5-13.9,10.6
					c-2.7,1.1-4.8,2.4-5.2,2.9c0,0,0,0,0-0.2l-0.3,0.3c-0.8,0.6-2.3,0.8-2.7,0.8h-0.2c-0.2,0-0.5,0.2-0.6,0.3
					c0.3,0.3,1.1,1.1,3.7,2.6c4.5,2.6,5.3,3.1,10.6,4.7c2.7,1,5.3,1.3,7.9,1.3c3.1,0,6.3-0.8,9.5-2.1c1-0.5,2.1-1,3.1-1.6
					c12.9-7.7,31.6-29.8,42.4-50.9c0.6-1.3,1.3-2.4,1.8-3.5C362.6,75.2,364.6,63.5,361,56.2z M301.5,55.7c0,0.2-2.1,3.4-4.7,7.3
					c-2.9,4.4-7.1,10.6-9.2,14.3c-2.1,3.4-4.2,6.3-4.5,6.3C282,83.6,299.6,56.9,301.5,55.7z M279.9,88.8c0.5-0.6,1-1.3,1.1-1.3
					c0.2,0,0,0.6-0.5,1.5c-0.5,1-1,1.6-1.1,1.6C279.3,90.4,279.5,89.7,279.9,88.8z M278.2,82.7c0.6,0,1,0.3,0.6,0.5
					c-0.2,0.5-0.5,0.6-0.6,0.6c-0.2,0-0.5-0.2-0.6-0.6C277.4,82.8,277.7,82.7,278.2,82.7z M277,95.2c-0.5,1.1-1.1,1.5-1.1,0.5
					c0-0.5,0.5-1,1-1.1C277.4,94.3,277.4,94.6,277,95.2z M275.3,85.4c1.5-1.6,2.1-1.6,1.8-0.5c0,0.5-0.2,0.6-0.5,0.6
					c-0.5,0-1.1,0.5-1.9,0.6C274,86.7,274.3,86.2,275.3,85.4z M265.4,98.5c0.3-0.6,1.8-0.2,1.8,0.5c0,0-0.6,0.2-1.1,0.2
					C265.4,99.1,265.1,98.6,265.4,98.5z M247.5,155.5c0-1,0-1.1,0.5-0.5c0,0.5,0,1.1-0.3,1.3C247.5,156.7,247.4,156.2,247.5,155.5z
					 M244.3,173.1c-0.2-3.2,2.1-14.2,2.7-14.8c0.2-0.3,0.2,1,0,2.4c-0.5,1.6-1.3,5.6-1.8,8.9C244.5,173.6,244.3,174.7,244.3,173.1z
					 M247.5,174.9c-1,8.7-1.5,9.2-1.1,1.6c0.3-8.1,5.8-31.8,8.1-35.6c0.6-0.6,0.6-0.6,0.5,0.5c-1.5,4.5-4.7,17.1-5.3,20.8
					C249,164.6,248,170.4,247.5,174.9z M262.4,131.8c-1.9,4.5-4.7,12.9-6.3,18.9c-1.6,6-3.5,14.2-4.4,18.2c-0.8,4.4-1.5,6.4-1.5,4.8
					c-0.2-3.2,2.6-16,4.7-24c1.8-6.1,5-14.8,8.4-22.1C266.7,120.2,266.1,122.8,262.4,131.8z M267.9,119.3c-1,1.8-1.9,3.2-1.9,2.7
					s1-2.3,1.9-4.2c1-1.8,1.9-2.9,1.9-2.7C269.6,115.7,268.7,117.5,267.9,119.3z M268.7,94.9c-1,1.1-1.9,2.3-2.1,2.3
					c0-0.2,0.5-1.1,1.5-2.3c1-1.1,1.9-2.3,1.9-2.3C270.1,92.7,269.6,93.8,268.7,94.9z M271.9,90.6c-1.1,1.3-1.6,1.6-1.6,1.1
					c0-0.2,0.5-1,1.1-1.3C272.9,89.4,272.9,89.4,271.9,90.6z M273.2,88c0.2-0.5,0.5-0.5,0.6-0.2c0.2,0.2,1,0,1.6-0.5
					c0.6-0.6,1-0.6,0.5,0.2c-0.3,0.6-1.1,1.1-1.9,1.1C273.3,88.8,272.9,88.3,273.2,88z M274.5,106.2c-0.8,0.6-0.8,0.6-0.5-0.5
					c0.5-0.6,1-1.1,1.1-0.8C275.4,105.1,275.1,105.7,274.5,106.2z M279.3,97.3c-1.9,3.7-3.7,6.6-4,6.6c-0.5,0,6.6-12.7,12.7-22.9
					c5.6-9.8,20-31.1,21.3-32.2c0.6-0.6-1.6,3.4-5.2,8.5C297,68.3,284.9,87.5,279.3,97.3z M308.8,78.3c-0.6,0.6-1.1,1.3-1.5,1.3
					c-0.6,0-0.2-0.6,1-1.6C309.6,77.2,309.6,77.2,308.8,78.3z M322.2,67.5c-1,1-1.8,1.8-2.1,1.8c-0.2,0,0.5-1,1.5-1.8
					c1-1.1,1.8-1.9,2.1-1.9C323.8,65.4,323.2,66.4,322.2,67.5z M316.2,69.1c-3.9,3.4-6,6-6,6v-1.9L316.2,69.1
					c3.2-2.9,7.9-6.3,13.7-9.4L316.2,69.1z M330.4,59.6c-0.2,0-0.3,0.2-0.5,0.2l0.8-0.5C330.6,59.3,330.4,59.4,330.4,59.6z
					 M335.9,91.8c1.5-2.6,5.2-9.4,8.1-15c3.1-5.6,5.3-9.5,5-8.2c-0.5,2.6-6.1,13.4-10.8,21.4C333.6,97,332,98.3,335.9,91.8z
					 M331.5,103.1c7.7-11.3,17.6-29.2,20-35.8c1.1-3.4,1.9-3.7,1.1-0.5c-1.8,6.8-11.3,24.8-19.3,35.6
					C325.1,113.3,324.3,113.8,331.5,103.1z M324.9,119.1c-1.6,1.8,0.2-0.6,3.7-5.5c7.9-10.6,14.5-20.8,18.7-28.9
					c3.2-6.4,5-8.2,2.7-3.4c-3.9,8.7-10.2,18.9-18.5,29.5C329.3,113.9,326.2,117.5,324.9,119.1z M353,91.4c-1.3,2.9-2.7,5.5-3.7,7.3
					c-1,1.6-1.6,2.6-1.6,2.6c-0.2,0-0.2,0-0.2-0.2c-0.2-0.2-0.2-0.2,0-0.3c0.2-0.5,2.6-5.2,5.5-10.6c2.7-5.5,5.2-9.8,5.2-9.4
					C358,81.2,355.9,85.9,353,91.4z"/>
			</g>
		</g>
		
			<linearGradient id="SVGID_11_" gradientUnits="userSpaceOnUse" x1="261.4081" y1="133.6342" x2="262.1433" y2="133.6342" gradientTransform="matrix(1 -6.006659e-03 -6.006659e-03 -1 0.5306 239.5151)">
			<stop  offset="0" style="stop-color:#4475B8"/>
			<stop  offset="1" style="stop-color:#25346E"/>
		</linearGradient>
		<path class="st12" d="M261.9,104.1c-0.2,0.2-0.2,0.3-0.3,0.6c0-0.2-0.2-0.2-0.2-0.3c-0.5-0.5-0.2-0.6,0-0.5
			C261.6,104.1,261.7,104.1,261.9,104.1z"/>
	</g>
</g>
</svg>
