<?xml version="1.0" encoding="utf-8"?>
<!-- Generator: Adobe Illustrator 25.2.3, SVG Export Plug-In . SVG Version: 6.00 Build 0)  -->
<svg version="1.1" id="Layer_1" xmlns="http://www.w3.org/2000/svg" xmlns:xlink="http://www.w3.org/1999/xlink" x="0px" y="0px"
	 viewBox="0 0 566.9 52.9" style="enable-background:new 0 0 566.9 52.9;" xml:space="preserve">
<style type="text/css">
	.st0{fill:url(#SVGID_1_);}
	.st1{fill:#F2F2F2;}
	.st2{fill:url(#SVGID_2_);}
	.st3{fill:url(#SVGID_3_);}
	.st4{fill:url(#SVGID_4_);}
</style>
<g>
	<g>
		
			<linearGradient id="SVGID_1_" gradientUnits="userSpaceOnUse" x1="-284.609" y1="17.4731" x2="100.4806" y2="17.4731" gradientTransform="matrix(0.9997 2.369908e-02 -2.369908e-02 0.9997 289.8147 16.4833)">
			<stop  offset="0.1285" style="stop-color:#0C7CFF;stop-opacity:0"/>
			<stop  offset="1" style="stop-color:#2CC4F2"/>
		</linearGradient>
		<path class="st0" d="M389.9,32.9C389.9,32.9,389.9,32.9,389.9,32.9c-0.8,0.5-1.6,1-2.4,1.6c-0.5,0.3-1,0.6-1.5,0.9l-1.5,0.9
			l-1.5,0.8c-0.5,0.3-1,0.6-1.6,0.8c-4.2,2.1-8.6,3.9-13,5.3c-4.5,1.4-9.1,2.4-13.8,3c-1.2,0.2-2.3,0.3-3.5,0.4
			c-0.6,0.1-1.2,0.1-1.8,0.1l-1.8,0.1c-0.6,0-1.2,0-1.8,0l-0.9,0l-0.4,0l-0.4,0l-1.8,0c-0.3,0-0.6,0-0.9,0l-0.9-0.1
			c-4.7-0.3-9.4-1-14-2.1c-4.6-1.1-9.1-2.6-13.4-4.4c-8.7-3.5-17-7.9-25.3-12.1c-4.1-2.1-8.3-4.2-12.4-6.2
			c-4.2-1.9-8.4-3.7-12.7-5.3c-4.3-1.5-8.7-2.8-13.1-3.7c-4.4-0.9-9-1.3-13.4-1.2c-2.2,0-4.5,0.2-6.7,0.6c-0.6,0.1-1.1,0.2-1.6,0.3
			c-0.5,0.1-1.1,0.2-1.6,0.3c-0.5,0.1-1.1,0.2-1.6,0.4l-1.6,0.5l-0.8,0.2c-0.3,0.1-0.5,0.2-0.8,0.3l-1.6,0.5
			c-0.5,0.2-1.1,0.4-1.6,0.6c-0.5,0.2-1.1,0.4-1.6,0.6l-1.6,0.7l-0.4,0.2l-0.4,0.2l-0.8,0.4c-0.5,0.2-1,0.5-1.5,0.7l-1.5,0.8
			c-0.3,0.1-0.5,0.3-0.8,0.4l-0.8,0.4l-1.5,0.8l-1.5,0.8c-0.5,0.3-1,0.6-1.5,0.9c-1,0.6-2,1.2-3,1.8c-1,0.6-2,1.2-3,1.8
			c-3.9,2.4-7.9,4.9-12,7.3c-2.1,1.2-4.1,2.3-6.3,3.4c-2.1,1.1-4.3,2.1-6.5,3c-2.2,0.9-4.5,1.7-6.8,2.4c-2.3,0.7-4.7,1.2-7.1,1.6
			c-1.2,0.2-2.4,0.3-3.7,0.4c-1.2,0.1-2.5,0.1-3.7,0.1c-0.6,0-1.2,0-1.9-0.1c-0.3,0-0.6,0-0.9-0.1c-0.3,0-0.6-0.1-0.9-0.1
			c-0.6-0.1-1.2-0.1-1.9-0.3l-0.9-0.2l-0.9-0.2c-2.5-0.5-4.8-1.3-7.1-2.2c-2.3-0.9-4.4-1.9-6.6-2.9c-4.3-2-8.3-4.1-12.5-5.7
			c-0.5-0.2-1-0.4-1.6-0.6c-0.3-0.1-0.5-0.2-0.8-0.3l-0.8-0.2c-0.3-0.1-0.5-0.1-0.8-0.2l-0.8-0.2l-0.8-0.2l-0.4-0.1l-0.4-0.1
			l-0.8-0.1l-0.8-0.1l-0.4-0.1c-0.1,0-0.3,0-0.4,0l-0.8-0.1l-0.8,0l-0.4,0c-0.1,0-0.3,0-0.4,0l-0.8,0c-0.3,0-0.5,0.1-0.8,0.1
			c-0.5,0-1,0.2-1.5,0.2c-0.2,0-0.5,0.1-0.7,0.2l-0.4,0.1l-0.2,0l-0.2,0.1c-1,0.3-1.9,0.7-2.8,1.1c-1.8,0.9-3.6,2.1-5.3,3.5
			c-1.7,1.4-3.4,2.9-5.1,4.5c-1.7,1.6-3.4,3.2-5.3,4.8c-1.9,1.6-3.9,3.1-6.1,4.3c-2.3,1.3-4.7,2.2-7.2,2.8c-2.5,0.6-5,0.9-7.5,1
			c-2.5,0.1-5,0-7.4-0.3c-2.4-0.2-4.8-0.6-7.1-1.1c-2.3-0.4-4.7-1-6.9-1.5c-4.5-1-9-1.9-13.4-2.3c-4.4-0.4-8.8-0.3-12.8,0.9
			l-0.8,0.2l-0.4,0.1c-0.1,0-0.2,0.1-0.4,0.1l-0.4,0.1l-0.3,0.1c-0.2,0.1-0.5,0.2-0.7,0.3c-0.9,0.3-1.9,0.7-2.9,1.1
			c-1,0.4-2,0.9-3,1.3l-1.1,0.5l-2.3-0.1c0,0,0-0.1,0-0.1c0.1-0.3,0.2-0.6,0.3-0.9c0.2-0.6,0.5-1.2,0.9-1.7c0.7-1.1,1.5-2.1,2.5-3
			c1-0.9,2-1.7,3.2-2.3c0.3-0.2,0.6-0.3,0.9-0.4l0.5-0.2c0.2-0.1,0.3-0.1,0.5-0.2c0.2-0.1,0.3-0.1,0.5-0.2l0.5-0.1l0.9-0.3
			c2.5-0.7,5-1.1,7.5-1.2c2.5-0.1,5-0.1,7.4,0.2c4.9,0.5,9.5,1.5,14.1,2.5c2.3,0.5,4.5,1,6.7,1.4c2.2,0.4,4.5,0.8,6.7,1
			c4.4,0.5,8.8,0.4,12.9-0.5c2-0.5,4-1.2,5.8-2.2c1.8-1,3.6-2.3,5.3-3.7c1.7-1.4,3.4-3,5.1-4.6c1.7-1.6,3.5-3.2,5.4-4.7
			c1.9-1.5,4-3,6.4-4.1c1.2-0.6,2.4-1.1,3.7-1.4l0.2-0.1l0.7-0.2c0.3-0.1,0.6-0.2,1-0.2c0.7-0.1,1.3-0.2,2-0.3c0.3,0,0.7-0.1,1-0.1
			l1,0c0.2,0,0.3,0,0.5,0l0.5,0c0.3,0,0.7,0,1,0l1,0.1c0.2,0,0.3,0,0.5,0l0.5,0.1l1,0.1l1.4,0.3l0.5,0.1l0.9,0.2l0.9,0.2
			c0.3,0.1,0.6,0.2,0.9,0.3l0.9,0.3c0.3,0.1,0.6,0.2,0.9,0.3c0.6,0.2,1.2,0.4,1.7,0.6c4.6,1.8,8.7,4,12.9,6c2.1,1,4.1,2,6.2,2.8
			c2.1,0.8,4.2,1.5,6.2,2c2.1,0.5,4.2,0.7,6.4,0.8c1.1,0,2.2,0,3.3-0.1c1.1-0.1,2.2-0.2,3.3-0.3c2.2-0.3,4.3-0.8,6.5-1.4
			c2.1-0.6,4.3-1.3,6.4-2.2c2.1-0.8,4.2-1.8,6.2-2.8c2-1,4.1-2.1,6-3.2c1-0.6,2-1.1,3-1.7c1-0.6,2-1.2,3-1.8l6-3.6
			c1-0.6,2-1.2,3-1.8c1-0.6,2-1.2,3.1-1.8c0.5-0.3,1-0.6,1.5-0.9l1.6-0.9l1.6-0.8l0.8-0.4c0.3-0.1,0.5-0.3,0.8-0.4l1.6-0.8
			c0.5-0.3,1.1-0.5,1.6-0.7l0.8-0.4l0.4-0.2l0.4-0.2l1.7-0.7c0.5-0.2,1.1-0.4,1.7-0.6c0.6-0.2,1.1-0.4,1.7-0.6l1.7-0.6
			c0.3-0.1,0.6-0.2,0.9-0.3l0.9-0.2l1.8-0.5c0.6-0.1,1.2-0.3,1.8-0.4c0.6-0.1,1.2-0.3,1.8-0.4c0.6-0.1,1.2-0.2,1.8-0.3
			c2.4-0.3,4.8-0.5,7.2-0.5c4.8,0,9.6,0.5,14.3,1.5c4.7,1,9.2,2.4,13.7,4c4.4,1.6,8.8,3.6,13,5.6c4.2,2.1,8.4,4.3,12.5,6.5
			c8.2,4.4,16.3,8.9,24.8,12.5c4.2,1.8,8.6,3.3,13,4.5c4.4,1.2,8.9,2,13.5,2.3l0.9,0.1c0.3,0,0.6,0,0.9,0l1.7,0.1l0.4,0l1.3,0
			c0.6,0,1.1,0,1.7,0l1.7-0.1c0.6,0,1.1,0,1.7-0.1c1.1-0.1,2.3-0.1,3.4-0.3l1.7-0.2l1.7-0.3c1.1-0.1,2.3-0.4,3.4-0.6
			c0.3-0.1,0.6-0.1,0.8-0.2l0.8-0.2l1.7-0.4c0.6-0.1,1.1-0.3,1.7-0.4l0.8-0.2c0.3-0.1,0.6-0.1,0.8-0.2c4.4-1.3,8.7-2.9,12.9-4.9
			c0.5-0.2,1-0.5,1.6-0.8l1.5-0.8l1.5-0.8c0.5-0.3,1-0.5,1.5-0.9c0.8-0.5,1.6-0.9,2.3-1.4c-0.1,0.1-0.2,0.2-0.2,0.4
			c0,0.3,0.2,0.6,0.6,0.6C389.7,33,389.8,33,389.9,32.9C389.9,32.9,389.9,32.9,389.9,32.9z"/>
		<path class="st1" d="M389.9,32.9C389.9,32.9,389.9,32.9,389.9,32.9L389.9,32.9C389.9,32.9,389.9,32.9,389.9,32.9z"/>
		<polygon class="st1" points="412.4,10.4 412.4,10.4 412.4,10.4 		"/>
		<path class="st1" d="M389,32.4c0,0.3,0.2,0.6,0.6,0.6c0.1,0,0.2,0,0.3-0.1c0,0,0,0,0,0c0,0,0,0,0.1,0c0.2-0.1,0.3-0.2,0.5-0.3
			l1.5-1c0.5-0.3,0.9-0.7,1.4-1c3.6-2.6,6.9-5.5,10-8.7c0,0,0,0,0.1-0.1c0.1-0.2,0.3-0.3,0.4-0.5L405,20l0.3-0.3l0.3-0.3l0.6-0.7
			c0.4-0.4,0.8-0.9,1.1-1.3l0.5-0.6c0-0.2-0.1-0.4-0.1-0.5l-0.7,0.8c-0.4,0.4-0.8,0.9-1.2,1.3l-0.6,0.6l-0.3,0.3l-0.3,0.3l-1.2,1.2
			c0,0,0,0,0,0c-0.2,0.2-0.3,0.3-0.5,0.5c0,0-0.1,0.1-0.1,0.1l-0.6,0.6l-1.3,1.2c-0.4,0.4-0.9,0.8-1.3,1.1c-0.4,0.4-0.9,0.8-1.3,1.1
			c-1.8,1.5-3.6,2.9-5.5,4.2c-0.5,0.3-0.9,0.7-1.4,1l-1.5,0.9c-0.1,0-0.1,0.1-0.2,0.1c-0.1,0-0.1,0.1-0.2,0.1
			c-0.1,0.1-0.2,0.1-0.2,0.1C389.1,32.1,389,32.2,389,32.4z"/>
	</g>
	<g>
		
			<linearGradient id="SVGID_2_" gradientUnits="userSpaceOnUse" x1="-830.9438" y1="19.5216" x2="-842.913" y2="7.5523" gradientTransform="matrix(1 0 0 1 1247.212 0)">
			<stop  offset="0" style="stop-color:#0C7CFF"/>
			<stop  offset="1" style="stop-color:#2CC4F2"/>
		</linearGradient>
		<path class="st2" d="M420.6,15c-0.5,2.5-1.9,4.7-3.9,6.3c-0.2,0.1-0.3,0.3-0.5,0.4c-1.4,1-2.9,1.6-4.6,1.9l0.1-6.4
			c0-0.2,0-0.3,0-0.5c0-0.2,0.1-0.4,0.1-0.5c0.1-0.3,0.3-0.5,0.4-0.7c0.7-0.6,1.7-0.7,1.9-0.7L420.6,15z"/>
		
			<linearGradient id="SVGID_3_" gradientUnits="userSpaceOnUse" x1="-830.5079" y1="19.1303" x2="-842.4899" y2="7.1482" gradientTransform="matrix(1 0 0 1 1247.212 0)">
			<stop  offset="0" style="stop-color:#0C7CFF"/>
			<stop  offset="1" style="stop-color:#2CC4F2"/>
		</linearGradient>
		<path class="st3" d="M408.5,1.8l-0.2,6.5c0,0.8-0.2,1.3-0.6,1.7c-0.1,0.1-0.3,0.2-0.5,0.3c0,0,0,0,0,0c-0.6,0.3-1.3,0.3-1.4,0.3
			l-6.8-0.2C399.9,5.9,403.8,2.4,408.5,1.8z"/>
		
			<linearGradient id="SVGID_4_" gradientUnits="userSpaceOnUse" x1="-830.6057" y1="19.5464" x2="-842.8979" y2="7.2542" gradientTransform="matrix(1 0 0 1 1247.212 0)">
			<stop  offset="0" style="stop-color:#0C7CFF"/>
			<stop  offset="1" style="stop-color:#2CC4F2"/>
		</linearGradient>
		<path class="st4" d="M420.8,12.2l-6.5-0.2c-0.3,0-2.4,0-3.9,1.4c-0.2,0.2-0.3,0.3-0.4,0.5c-0.1,0.1-0.1,0.2-0.2,0.3
			c-0.7,1-0.9,2.1-0.9,3l-0.2,6.5c-5.4-0.5-9.6-4.9-9.9-10.3l6.9,0.2h0c0.3,0,1.7,0,3-0.8c0.1,0,0.2-0.1,0.2-0.1
			c0.2-0.1,0.5-0.3,0.7-0.5c1.2-1.1,1.5-2.7,1.5-3.7l0.2-6.6C416.5,2.5,420.5,6.9,420.8,12.2z"/>
	</g>
</g>
</svg>
