<?xml version="1.0" encoding="utf-8"?>
<!-- Generator: Adobe Illustrator 24.3.0, SVG Export Plug-In . SVG Version: 6.00 Build 0)  -->
<svg version="1.1" id="Layer_1" xmlns="http://www.w3.org/2000/svg" xmlns:xlink="http://www.w3.org/1999/xlink" x="0px" y="0px"
	 viewBox="0 0 783 135.3" style="enable-background:new 0 0 783 135.3;" xml:space="preserve">
<style type="text/css">
	.st0{fill:#5B6670;}
	.st1{fill:url(#SVGID_1_);}
	.st2{fill:url(#SVGID_2_);}
	.st3{fill:url(#SVGID_3_);}
</style>
<g>
	<g>
		<path class="st0" d="M245.9,38.3c-2.5-3.4-5.8-5.9-9.9-7.5c-4.1-1.6-8-2.4-11.9-2.4c-5,0-9.5,0.9-13.5,2.7
			c-4.1,1.8-7.5,4.3-10.5,7.4c-2.9,3.2-5.2,6.8-6.8,11.1c-1.6,4.2-2.4,8.8-2.4,13.8c0,5.2,0.8,10,2.3,14.3c1.5,4.3,3.7,8,6.6,11.1
			c2.8,3.1,6.2,5.5,10.2,7.2c4,1.7,8.4,2.6,13.4,2.6c5.1,0,9.7-1,13.6-3c4-2,7.2-4.7,9.6-8l13.6,9.6c-4.2,5.3-9.4,9.4-15.5,12.4
			c-6.1,2.9-13.3,4.4-21.5,4.4c-7.5,0-14.3-1.2-20.6-3.7c-6.3-2.5-11.6-5.9-16.1-10.4c-4.5-4.5-8-9.8-10.5-15.9
			c-2.5-6.2-3.8-13-3.8-20.5c0-7.7,1.3-14.6,4-20.7c2.7-6.2,6.3-11.4,10.9-15.7c4.6-4.3,10.1-7.7,16.4-10c6.3-2.3,13.1-3.5,20.5-3.5
			c3.1,0,6.3,0.3,9.6,0.9c3.3,0.6,6.5,1.5,9.6,2.7c3.1,1.2,5.9,2.7,8.6,4.5c2.7,1.8,5,4,6.9,6.5L245.9,38.3z"/>
		<path class="st0" d="M310.2,103.3h-0.4c-1.6,2.9-4.2,5.2-7.8,7.1c-3.6,1.8-7.7,2.8-12.3,2.8c-2.6,0-5.3-0.3-8.2-1
			c-2.8-0.7-5.4-1.8-7.8-3.4c-2.4-1.6-4.4-3.6-5.9-6.2c-1.6-2.6-2.4-5.7-2.4-9.5c0-4.9,1.4-8.7,4.1-11.6c2.7-2.9,6.3-5.1,10.6-6.6
			c4.3-1.5,9.1-2.5,14.4-3c5.3-0.5,10.4-0.7,15.5-0.7v-1.6c0-4.1-1.5-7-4.4-9c-2.9-1.9-6.4-2.9-10.5-2.9c-3.4,0-6.7,0.7-9.9,2.2
			c-3.2,1.4-5.8,3.2-7.8,5.3L269,55c3.7-3.4,7.9-6,12.8-7.7c4.8-1.7,9.7-2.6,14.7-2.6c5.8,0,10.5,0.8,14.3,2.4
			c3.7,1.6,6.7,3.7,8.8,6.3c2.2,2.6,3.7,5.5,4.5,8.8c0.9,3.2,1.3,6.5,1.3,9.7v39.4h-15.1V103.3z M309.9,81.9h-3.6
			c-2.6,0-5.4,0.1-8.2,0.3c-2.9,0.2-5.5,0.7-8,1.5c-2.4,0.8-4.5,1.8-6.1,3.2c-1.6,1.4-2.4,3.3-2.4,5.7c0,1.5,0.3,2.8,1,3.8
			c0.7,1,1.6,1.9,2.6,2.5c1.1,0.6,2.3,1.1,3.6,1.4c1.4,0.3,2.7,0.4,4.1,0.4c5.6,0,9.8-1.5,12.7-4.5c2.9-3,4.3-7,4.3-12.2V81.9z"/>
		<path class="st0" d="M340.6,46.7h15.5v10.8h0.3c1.8-3.8,4.3-6.8,7.6-9.2c3.2-2.3,7-3.5,11.3-3.5c0.6,0,1.3,0,2,0.1
			c0.7,0,1.4,0.2,1.9,0.3V60c-1.1-0.3-2-0.4-2.8-0.5c-0.8-0.1-1.5-0.1-2.2-0.1c-3.7,0-6.7,0.7-8.9,2c-2.3,1.4-4,3-5.3,4.9
			c-1.3,1.9-2.1,3.8-2.6,5.8c-0.5,2-0.7,3.6-0.7,4.7v34.7h-16.2V46.7z"/>
		<path class="st0" d="M448.1,79.9c0,0.7,0,1.4,0,2.2c0,0.7,0,1.4-0.1,2.2h-49.3c0.2,2.3,0.8,4.5,1.8,6.4c1,1.9,2.4,3.6,4.1,5
			c1.7,1.4,3.6,2.5,5.8,3.3c2.2,0.8,4.4,1.2,6.8,1.2c4.1,0,7.5-0.7,10.3-2.2c2.8-1.5,5.1-3.5,6.9-6.1l10.8,8.6
			c-6.4,8.6-15.7,13-27.8,13c-5,0-9.7-0.8-13.9-2.4c-4.2-1.6-7.9-3.8-11-6.7c-3.1-2.9-5.5-6.4-7.3-10.6c-1.8-4.2-2.6-8.9-2.6-14.2
			c0-5.2,0.9-10,2.6-14.2c1.8-4.3,4.2-7.9,7.2-10.9c3.1-3,6.7-5.4,10.9-7c4.2-1.7,8.7-2.5,13.6-2.5c4.5,0,8.7,0.7,12.5,2.2
			c3.8,1.5,7.1,3.7,9.9,6.6c2.8,2.9,5,6.6,6.6,10.9C447.3,68.9,448.1,74,448.1,79.9z M431.9,72.6c0-2.1-0.3-4.1-0.9-5.9
			c-0.6-1.9-1.5-3.6-2.8-5c-1.3-1.4-2.9-2.6-4.8-3.4c-1.9-0.9-4.2-1.3-6.8-1.3c-4.9,0-9,1.5-12.4,4.4c-3.4,2.9-5.2,6.7-5.6,11.3
			H431.9z"/>
		<path class="st0" d="M485.1,98.9h0.3l31.1-83.1h10.4l-36.6,95.6h-10.3l-36.5-95.6H454L485.1,98.9z"/>
		<path class="st0" d="M569.1,70.6c0-5.5-1.4-9.5-4.3-12.2c-2.9-2.7-7.1-4-12.6-4c-3.8,0-7.3,0.7-10.5,2c-3.2,1.4-6,3.2-8.2,5.4
			l-5.1-6.1c2.6-2.6,6.1-4.8,10.3-6.5c4.3-1.7,9.1-2.6,14.5-2.6c3.4,0,6.6,0.5,9.6,1.4c3,0.9,5.6,2.4,7.8,4.3c2.2,1.9,4,4.3,5.3,7.2
			c1.3,2.9,1.9,6.3,1.9,10.1v27.7c0,2.4,0.1,5,0.3,7.6c0.2,2.6,0.4,4.8,0.8,6.6h-8.2c-0.3-1.5-0.5-3.2-0.7-5
			c-0.2-1.8-0.3-3.6-0.3-5.3h-0.3c-2.9,4.2-6.1,7.3-9.8,9.1c-3.6,1.8-8,2.8-13.2,2.8c-2.4,0-4.9-0.3-7.5-1c-2.6-0.7-4.9-1.8-7-3.3
			c-2.1-1.5-3.9-3.5-5.3-6c-1.4-2.4-2.1-5.4-2.1-8.9c0-4.9,1.2-8.7,3.7-11.6c2.5-2.8,5.8-5,9.9-6.4c4.1-1.4,8.9-2.3,14.2-2.7
			c5.4-0.4,10.9-0.6,16.7-0.6V70.6z M566.4,79.9c-3.8,0-7.6,0.2-11.4,0.5c-3.8,0.3-7.3,0.9-10.4,1.9c-3.1,0.9-5.7,2.3-7.6,4.1
			c-2,1.8-3,4.2-3,7.2c0,2.3,0.4,4.1,1.3,5.7c0.9,1.5,2,2.8,3.4,3.7c1.4,0.9,3,1.6,4.8,2c1.8,0.4,3.5,0.6,5.3,0.6
			c3.2,0,6.1-0.6,8.6-1.7c2.5-1.1,4.6-2.7,6.3-4.6c1.7-1.9,3-4.2,3.9-6.7c0.9-2.5,1.4-5.2,1.4-8v-4.7H566.4z"/>
		<path class="st0" d="M605.2,111.5H596V9.4h9.2V111.5z"/>
		<path class="st0" d="M670.2,111.5c-0.2-1.7-0.3-3.6-0.4-5.7c-0.1-2.1-0.1-3.8-0.1-5.1h-0.3c-1.8,3.7-4.7,6.7-8.8,9
			c-4.1,2.3-8.3,3.4-12.8,3.4c-8,0-14-2.4-18-7.2c-4-4.8-6-11.1-6-18.9V48.3h9.2v35c0,3.3,0.3,6.3,0.8,9c0.5,2.7,1.5,5,2.8,7
			c1.3,1.9,3.1,3.4,5.3,4.5c2.2,1.1,5,1.6,8.3,1.6c2.4,0,4.8-0.5,7.1-1.5c2.3-1,4.3-2.5,6.1-4.5c1.8-2,3.2-4.6,4.3-7.7
			c1.1-3.1,1.6-6.8,1.6-11V48.3h9.2v49.3c0,1.7,0,3.9,0.1,6.6c0.1,2.7,0.2,5.1,0.4,7.3H670.2z"/>
		<path class="st0" d="M755.3,78c0,0.6,0,1.3,0,2c0,0.7,0,1.5-0.1,2.3h-52.4c0.1,3.2,0.7,6.1,1.9,8.9c1.2,2.8,2.8,5.2,4.9,7.3
			c2.1,2.1,4.5,3.7,7.3,4.9c2.8,1.2,5.8,1.8,9.1,1.8c4.8,0,8.9-1.1,12.4-3.3c3.5-2.2,6.1-4.7,7.9-7.6l6.9,5.4
			c-3.8,4.8-7.9,8.2-12.5,10.3c-4.5,2.1-9.4,3.1-14.7,3.1c-4.7,0-9-0.8-13-2.5c-4-1.7-7.5-4-10.3-7c-2.9-3-5.2-6.5-6.8-10.5
			c-1.7-4.1-2.5-8.5-2.5-13.2c0-4.8,0.8-9.2,2.4-13.2c1.6-4.1,3.9-7.6,6.8-10.5c2.9-3,6.3-5.3,10.1-7c3.9-1.7,8.1-2.5,12.6-2.5
			c5,0,9.3,0.8,13.1,2.5c3.8,1.7,6.9,3.9,9.5,6.8c2.5,2.8,4.4,6.1,5.7,9.9C754.7,69.6,755.3,73.7,755.3,78z M746,75
			c-0.3-5.9-2.2-10.9-5.7-14.8c-3.6-3.9-8.6-5.9-15.2-5.9c-3.1,0-5.9,0.6-8.5,1.7c-2.6,1.1-4.9,2.7-6.9,4.6c-2,1.9-3.6,4.1-4.7,6.6
			c-1.2,2.5-1.8,5.1-2,7.8H746z"/>
	</g>
	<g>
		<linearGradient id="SVGID_1_" gradientUnits="userSpaceOnUse" x1="108.562" y1="108.3999" x2="34.7985" y2="34.6365">
			<stop  offset="0" style="stop-color:#4475B9"/>
			<stop  offset="1" style="stop-color:#2AC4F3"/>
		</linearGradient>
		<path class="st1" d="M95.2,80.1c-0.7,0-7.3,0.2-11.4,4.3c-2.4,2.4-3.6,5.9-3.6,10.6v39.3c27.5-5.1,49.2-26.8,54.3-54.3H95.2z"/>
		<linearGradient id="SVGID_2_" gradientUnits="userSpaceOnUse" x1="109.2453" y1="107.7165" x2="35.4819" y2="33.9531">
			<stop  offset="0" style="stop-color:#4475B9"/>
			<stop  offset="1" style="stop-color:#2AC4F3"/>
		</linearGradient>
		<path class="st2" d="M43,55.5c0.7,0,7.3-0.2,11.4-4.3c2.4-2.4,3.6-5.9,3.6-10.6V0.3C29,4.5,6,26.8,0.9,55.5H43z"/>
		<linearGradient id="SVGID_3_" gradientUnits="userSpaceOnUse" x1="108.5876" y1="108.3743" x2="34.8242" y2="34.6108">
			<stop  offset="0" style="stop-color:#4475B9"/>
			<stop  offset="1" style="stop-color:#2AC4F3"/>
		</linearGradient>
		<path class="st3" d="M62.6,95c0-6.6,1.6-16.1,8.9-23.3c9.3-9.1,22-9.3,23.9-9.3h40.1C133.1,29.9,107.8,3.7,75.6,0v40.5
			c0,6.6-1.6,16.1-8.9,23.3c-9,8.8-21.2,9.3-23.7,9.3c-0.1,0-0.1,0-0.2,0H0c2.7,33.2,29.3,59.7,62.6,62.2V95z"/>
	</g>
	<g>
		<path class="st0" d="M766,43.2h-4.3v11.5h-1.9V43.2h-4.4v-1.7H766V43.2z M783,54.7H781V43.5H781l-4.5,11.2h-1.3l-4.5-11.2h-0.1
			v11.2h-1.9V41.4h3l4.2,10.2l4.2-10.2h2.9V54.7z"/>
	</g>
</g>
</svg>
