<?xml version="1.0" encoding="utf-8"?>
<!-- Generator: Adobe Illustrator 25.2.3, SVG Export Plug-In . SVG Version: 6.00 Build 0)  -->
<svg version="1.1" id="Layer_1" xmlns="http://www.w3.org/2000/svg" xmlns:xlink="http://www.w3.org/1999/xlink" x="0px" y="0px"
	 viewBox="0 0 373.8 115.1" style="enable-background:new 0 0 373.8 115.1;" xml:space="preserve">
<style type="text/css">
	.st0{fill:#002677;}
</style>
<g>
	<path class="st0" d="M18.4,109.7L18.4,109.7c3.6,1.2,7.5,1.9,11.6,1.9c17.5,0,29.6-12.7,29.6-36.7V3.1L66.3,0v76.2
		c0,24.6-12.7,38.9-30.6,38.9C29.5,115,23.6,113.1,18.4,109.7z M10.9,102.4L10.9,102.4c4,1.4,8.1,2.2,11.6,2.2
		c14.7,0,24.4-9.2,24.4-30.1v-66l6.5-3.1v69.7C53.4,96.9,42.3,108,27,108C21.4,108.1,15.6,106,10.9,102.4z M6.2,95.9L6.2,95.9
		c3.6,1,6.8,1.7,9.7,1.7c11.4,0,18.4-6.2,18.4-22.7V14.2l6.4-3.1v63c0,18.4-8.5,26.8-20.6,26.8C15.2,100.8,10.4,99.1,6.2,95.9z
		 M28.3,76.8V16.6L0,29.4v48.8c0,9.3,5.9,15.6,14.5,15.6C23,93.7,28.3,87.4,28.3,76.8z"/>
	<g>
		<path class="st0" d="M102.8,16.6V39c0,8.3,4.9,14.8,14.3,14.8c8,0,14.1-5.9,14.1-14.9V17.2c0-2.3,1.5-4.3,4.2-4.4l0.9-0.1v-2.1
			h-14.1v2.1l0.9,0.1c2.6,0.2,4.2,2,4.2,4.4v20.9c0,6.9-3.6,11-9.1,11c-5.6,0-9-4.4-9-11.1V16.6c0-2.3,1.3-3.7,4-3.9l0.9-0.1v-2.1
			h-16v2.1l0.9,0.1C101.4,12.9,102.8,14.2,102.8,16.6z"/>
		<path class="st0" d="M121.7,64.4l0.9,0.1c2.2,0.1,4,1,4,3.6v13.1h-15.8V68c0-2.5,1.7-3.4,4-3.6l0.9-0.1v-2.1h-16v2.1l0.9,0.1
			c2.2,0.1,4,1,4,3.6v30.7c0,2.5-1.7,3.5-4,3.6l-0.9,0.1v2.1h16v-2.1l-0.9-0.1c-2.2-0.2-4-1-4-3.6V84.4h15.7v14.4
			c0,2.5-1.7,3.5-4,3.6l-0.9,0.1v2.1h16v-2.1l-0.9-0.1c-2.2-0.2-4-1-4-3.6V67.9c0-2.5,1.7-3.4,4-3.6l0.9-0.1v-2.1h-16L121.7,64.4
			L121.7,64.4z"/>
		<path class="st0" d="M136.1,22.9v2l1.2,0.1c1.9,0.1,3,1,3,3.6v18.6c0,2.5-1.3,3.5-3.3,3.6l-0.9,0.1v2h14.3v-2l-0.9-0.1
			c-2-0.1-3.3-1-3.3-3.6v-9.9c0.1-7.2,3.3-11.6,6.9-11.6c2.8,0,4.7,1.9,4.7,5.7v15.8c0,2.5-1.3,3.5-3.3,3.6l-0.9,0.1v2h14.3v-2
			l-0.9-0.1c-2-0.1-3.3-1-3.3-3.6V30.6c0-4.7-2.9-8.6-8.6-8.6c-4.1,0-7.5,2.4-9,6.7v-6.6L136.1,22.9z"/>
		<path class="st0" d="M218.7,53.4c6.1,0,9.6-4.1,10.9-8.9l-2.6-0.7c-1.2,3.3-3.3,5.8-7.5,5.8c-4.9,0-8.2-4.6-8.2-12h18.8v-1.7
			c0-7.8-4.6-14.1-12-14.1c-7.9,0-13.1,7.5-13.1,15.8C204.9,45.8,210,53.4,218.7,53.4z M218,25.2c3.3,0,5.4,3.1,5.7,9.4h-12.3
			C212,28.7,214.4,25.2,218,25.2z"/>
		<path class="st0" d="M189,46c0,4.7,2.8,7.3,7.3,7.3c4.2,0,7-3.1,8.3-7.5l-2.2-0.6c-0.9,2.5-2.2,4.1-4.1,4.1
			c-2.5,0-3.4-1.9-3.4-4.1V25.8h8.3v-3.1h-8.3v-9.3h-3c-1.2,7-4.7,9.6-8.5,10.3v2.1h5.6L189,46L189,46z"/>
		<path class="st0" d="M176.3,17.3c2,0,3.9-1.7,3.9-4.1c0-2.2-1.8-4-3.9-4s-3.9,1.7-3.9,4S174.2,17.3,176.3,17.3z"/>
		<path class="st0" d="M173.5,28.5v18.6c0,2.5-1.3,3.5-3.3,3.6l-0.9,0.1v2h14.3v-2l-0.9-0.1c-2-0.1-3.3-1-3.3-3.6v-25L169,22.9v2
			l1.5,0.1C172.4,25,173.5,26,173.5,28.5z"/>
		<path class="st0" d="M245.4,53.4c4,0,7-2,8.4-5.6v4.9h10.1v-2l-0.9-0.1c-2-0.1-3.3-1-3.3-3.6V9.7l-10.2,0.9v2l1.4,0.1
			c1.9,0.1,3,1,3,3.6v10.9c-1.4-3.4-4.4-5.4-8.4-5.4c-7.9,0-12.3,7.5-12.3,15.8S237.5,53.4,245.4,53.4z M246.4,25.2
			c4.4,0,7.3,4.8,7.3,12.3s-2.9,12.3-7.3,12.3c-4.2,0-7-4.8-7-12.3S242.2,25.2,246.4,25.2z"/>
		<path class="st0" d="M335.3,73.6c-3.5,0-6.5,2.3-7.8,6.4v-6.2l-10.1,0.8v2l1.2,0.1c1.9,0.1,3,1,3,3.6v18.6c0,2.5-1.3,3.5-3.3,3.6
			l-0.9,0.1v2h14.3v-2l-0.9-0.1c-2-0.1-3.3-1-3.3-3.6V88.7c0.1-7.5,3.4-12.3,7.3-12.3c0.9,0,1.5,0.2,2,0.8c-1,0.6-1.7,1.5-1.7,2.8
			c0,1.7,1.4,3.2,3.2,3.2c1.7,0,3.2-1.4,3.2-3.5C341.5,75.9,338.7,73.6,335.3,73.6z"/>
		<path class="st0" d="M354.7,73.4c-7.9,0-13.1,7.5-13.1,15.8s5.1,15.8,13.8,15.8c6.1,0,9.6-4.1,10.9-8.9l-2.6-0.7
			c-1.2,3.3-3.3,5.8-7.5,5.8c-4.9,0-8.2-4.6-8.2-12h18.8v-1.7C366.7,79.7,362.1,73.4,354.7,73.4z M348,86.3c0.6-5.9,3-9.4,6.7-9.4
			c3.3,0,5.4,3.1,5.7,9.4H348z"/>
		<path class="st0" d="M312.2,99.5V83.7c0-6.5-4.1-10.2-10.9-10.2c-5.9,0-11.1,3.9-11.1,8.3c0,1.9,1.4,3.3,3.2,3.3
			c1.7,0,3.2-1.4,3.2-3.2c0-1.2-0.7-2.3-1.6-2.8c1.1-1.5,3-2.4,5.4-2.4c3.7,0,5.9,2.8,5.9,7.4v1.4l-9,3.7c-6,2.5-8,4.6-8,8.6
			c0,4.5,3.3,7.4,8.4,7.4c3.9,0,7-2.3,8.5-5.9v0.9c0,3.1,2.2,4.9,5.8,4.9c1.4,0,2.6-0.2,3.8-0.6v-2
			C313.3,102.7,312.2,101.8,312.2,99.5z M306.3,92.6c-0.3,5.3-3,8.9-6.7,8.9c-2.7,0-4.3-1.8-4.3-4.6c0-2.5,1.4-4.4,3.9-5.5l7.2-3.2
			L306.3,92.6z"/>
		<path class="st0" d="M370.2,73.4c-2,0-3.6,1.6-3.6,3.6c0,2.1,1.5,3.7,3.6,3.7c2,0,3.6-1.6,3.6-3.7C373.8,75,372.2,73.4,370.2,73.4
			z M370.2,80.1c-1.7,0-3-1.3-3-3.1s1.2-3.1,3-3.1s3,1.3,3,3.1C373.1,78.8,371.9,80.1,370.2,80.1z"/>
		<path class="st0" d="M371.3,77.1c0.5-0.2,0.6-0.4,0.6-1c0-0.7-0.4-1.1-1.3-1.1h-2v4.1h0.6v-1.6h1.1c0.6,0,0.7,0.2,0.8,0.9
			c0,0.4,0,0.4,0.1,0.7h0.7c-0.1-0.1-0.2-0.4-0.2-0.6C371.8,77.5,371.8,77.3,371.3,77.1z M370.5,76.9h-1.2v-1.3h1.2
			c0.5,0,0.7,0.2,0.7,0.6C371.3,76.6,371,76.9,370.5,76.9z"/>
		<path class="st0" d="M227.4,97c-0.9,2.5-2.2,4.1-4.1,4.1c-2.5,0-3.4-1.9-3.4-4.1V77.5h8.3v-3.1h-8.3V65h-3
			c-1.2,7-4.7,9.6-8.5,10.3v2.1h5.6v20.2c0,4.7,2.8,7.3,7.3,7.3c4.2,0,7-3.1,8.3-7.5L227.4,97z"/>
		<path class="st0" d="M189.2,99.5V83.7c0-6.5-4.1-10.2-10.9-10.2c-5.9,0-11.1,3.9-11.1,8.3c0,1.9,1.4,3.3,3.2,3.3
			c1.7,0,3.2-1.4,3.2-3.2c0-1.2-0.7-2.3-1.6-2.8c1.1-1.5,3-2.4,5.4-2.4c3.7,0,5.9,2.8,5.9,7.4v1.4l-9,3.7c-6,2.5-8,4.6-8,8.6
			c0,4.5,3.3,7.4,8.4,7.4c3.9,0,7-2.3,8.5-5.9v0.9c0,3.1,2.2,4.9,5.8,4.9c1.4,0,2.6-0.2,3.8-0.6v-2
			C190.3,102.7,189.2,101.8,189.2,99.5z M183.2,92.6c-0.3,5.3-3,8.9-6.7,8.9c-2.7,0-4.3-1.8-4.3-4.6c0-2.5,1.4-4.4,3.9-5.5l7.2-3.2
			L183.2,92.6z"/>
		<path class="st0" d="M277.3,101.3c-4.9,0-8.2-4.6-8.2-12c0-7.5,3.3-12.3,8.1-12.3c2.2,0,3.9,0.7,4.9,2c-0.9,0.6-1.5,1.6-1.5,2.8
			c0,1.7,1.4,3.2,3.2,3.2s3.2-1.4,3.2-3.5c0-3.6-3.6-8.1-10.1-8.1c-9,0-14.2,7.5-14.2,15.8s5.2,15.8,13.9,15.8c6,0,9.4-4,10.7-8.5
			l-2.6-0.8C283.5,98.9,281.4,101.3,277.3,101.3z"/>
		<path class="st0" d="M204.4,98.8V61.5l-10.2,0.9v2l1.4,0.1c1.9,0.1,3,1,3,3.6V99c0,2.5-1.3,3.5-3.3,3.6l-0.9,0.1v2h14.3v-2.1
			l-0.9-0.1C205.6,102.3,204.4,101.3,204.4,98.8z"/>
		<path class="st0" d="M257.3,98.8V82.3c0-4.7-2.9-8.6-8.6-8.6c-4.1,0-7.5,2.4-9,6.7v-19l-10.2,0.9v2l1.4,0.1c1.9,0.1,3,1,3,3.6
			v30.9c0,2.5-1.3,3.5-3.3,3.6l-0.9,0.1v2h14.2v-2.1l-0.9-0.1c-2-0.1-3.3-1-3.3-3.6v-9.9c0.1-7.2,3.3-11.6,6.9-11.6
			c2.8,0,4.7,1.9,4.7,5.7v15.8c0,2.5-1.3,3.5-3.3,3.6l-0.9,0.1v2h14.3v-2l-0.9-0.1C258.5,102.3,257.3,101.3,257.3,98.8z"/>
		<path class="st0" d="M152.1,73.4c-7.9,0-13.1,7.5-13.1,15.8s5.1,15.8,13.8,15.8c6.1,0,9.6-4.1,10.9-8.9l-2.6-0.7
			c-1.2,3.3-3.3,5.8-7.5,5.8c-4.9,0-8.2-4.6-8.2-12h18.8v-1.7C164,79.7,159.4,73.4,152.1,73.4z M145.4,86.3c0.6-5.9,3-9.4,6.7-9.4
			c3.3,0,5.4,3.1,5.7,9.4H145.4z"/>
	</g>
</g>
</svg>
